;Holesize 1 =   28.0 PLATED MILS
;Holesize 2 =   31.0 PLATED MILS
;Holesize 3 =  118.0 PLATED MILS
;Holesize 4 =   78.0 PLATED MILS
;Holesize 5 =   98.0 PLATED MILS
;Holesize 6 =   35.0 PLATED MILS
;Holesize 7 =   27.0 PLATED MILS
;Holesize 8 =   16.0 PLATED MILS
;Holesize 9 =   66.0 PLATED MILS
;Holesize 10 =  157.0 PLATED MILS
;Holesize 11 =   25.0 PLATED MILS
;Holesize 12 =   23.0 PLATED MILS
;Holesize 13 =   17.0 PLATED MILS
;Holesize 14 =   51.0 PLATED MILS
;Holesize 15 =   40.0 PLATED MILS
;Holesize 16 =   47.0 PLATED MILS
;Holesize 17 =   30.0 PLATED MILS
;Holesize 18 =  130.0 PLATED MILS
M48
INCH,00.0000
T01C0.028
T02C0.031
T03C0.118
T04C0.078
T05C0.098
T06C0.035
T07C0.027
T08C0.016
T09C0.066
T10C0.157
T11C0.025
T12C0.023
T13C0.017
T14C0.051
T15C0.040
T16C0.047
T17C0.030
T18C0.130
%
G05
G90
T01
X011141Y-038188
X011141Y-037188
X011141Y-036188
X011141Y-035188
X011141Y-034188
X011141Y-033188
X011141Y-032188
X011141Y-031188
X011141Y-030188
X008141Y-030188
X008141Y-031188
X008141Y-032188
X008141Y-033188
X008141Y-034188
X008141Y-035188
X008141Y-036188
X008141Y-037188
X008141Y-038188
X044405Y-039448
X044917Y-033425
X007716Y-013814
X037130Y-034645
X038110Y-034645
X036697Y-030236
X037677Y-030236
X041811Y-033696
X041811Y-032716
X038066Y-025236
X037086Y-025236
X038105Y-019842
X037125Y-019842
X015586Y-046929
X014606Y-046929
X015546Y-052283
X014566Y-052283
X016259Y-010783
X016259Y-009803
T02
X046968Y-045354
X046968Y-046259
X046968Y-047165
X046968Y-048070
X046968Y-048976
X045944Y-044921
X045944Y-045787
X045944Y-046732
X045944Y-047637
X045944Y-048543
X044960Y-045354
X044960Y-046259
X044960Y-047165
X044960Y-048070
X044960Y-048976
X004566Y-018779
X004566Y-019869
X004566Y-020959
X004566Y-022049
X004566Y-023139
X003446Y-019319
X003446Y-020409
X003446Y-021499
X003446Y-022589
X004566Y-031889
X004566Y-032979
X004566Y-034069
X004566Y-035159
X004566Y-036249
X003446Y-032429
X003446Y-033519
X003446Y-034609
X003446Y-035699
X047007Y-029606
X047007Y-028503
X047007Y-027775
X047007Y-030334
X047007Y-022559
X047007Y-021456
X047007Y-020728
X047007Y-023287
X047007Y-015236
X047007Y-014133
X047007Y-013405
X047007Y-015984
X046023Y-015984
X046023Y-013385
X046023Y-014960
X046023Y-014173
T03
X045984Y-052047
X045905Y-042283
X004055Y-025866
X004055Y-016023
X004055Y-038976
X004055Y-029133
X044960Y-008582
T04
X048188Y-031712
X048188Y-026397
X048188Y-024665
X048188Y-019350
X048188Y-017342
X048188Y-012027
T05
X048484Y-029055
X048484Y-022007
X048484Y-014685
X047677Y-008582
X046102Y-006732
T06
X046023Y-030334
X046023Y-027775
X046023Y-023287
X046023Y-020728
X035275Y-047440
X035275Y-046440
X035275Y-045440
X035275Y-044440
X035275Y-043440
X035275Y-042440
X003661Y-041732
X003661Y-040732
X007165Y-016929
X006165Y-016929
X014370Y-010645
X014370Y-009645
X014370Y-008645
X042992Y-007598
X042992Y-008598
X041614Y-007598
X041614Y-008598
X002598Y-013188
X002598Y-012188
X004645Y-013228
X004645Y-012228
T07
X043425Y-039448
X043937Y-033425
X007716Y-012834
T08
X028228Y-030708
X028740Y-030708
X028228Y-036850
X028740Y-036850
X034370Y-027637
X034370Y-027125
X036850Y-015551
X037480Y-015551
X036850Y-011732
X037480Y-011732
X016417Y-019015
X017125Y-019015
X016377Y-011653
X017086Y-011653
X014370Y-054055
X013740Y-054055
X022244Y-027559
X008169Y-018169
X006102Y-044763
X039074Y-012854
X038897Y-014330
X010688Y-045354
X017755Y-035610
X040118Y-012834
X038909Y-015149
X039625Y-012775
X038582Y-014704
X028129Y-022263
X034940Y-026279
X003976Y-050708
X006102Y-046771
X036318Y-039212
X041279Y-033248
X041614Y-031830
X035000Y-028425
X022125Y-040078
X021062Y-031712
X003346Y-051358
X004566Y-046200
X022106Y-039330
X006102Y-050708
X006102Y-047755
X025728Y-022618
X035649Y-038051
X033818Y-039881
X026161Y-022244
X024370Y-028582
X025826Y-028602
X027401Y-028622
X028818Y-028622
X030492Y-028602
X032106Y-028622
X033641Y-027775
X033681Y-029192
X033681Y-029665
X033267Y-031181
X033543Y-033208
X033543Y-034507
X033267Y-036279
X033681Y-037913
X033720Y-038838
X032263Y-038917
X030807Y-039133
X029232Y-038937
X027874Y-038937
X026220Y-038996
X024704Y-039094
X022854Y-040216
X023129Y-037854
X023169Y-036279
X023169Y-034507
X023169Y-033129
X023169Y-031358
X022913Y-029901
X023051Y-028484
X044468Y-011830
X042047Y-014665
X042086Y-030039
X042066Y-026437
X043543Y-028228
X044429Y-031397
X005846Y-045767
X008267Y-048740
X017007Y-038011
X043779Y-023779
X042854Y-020275
X011437Y-048149
X017519Y-044980
X026889Y-043070
X010275Y-021948
X010275Y-021279
X011200Y-019507
X012795Y-019566
X014921Y-020314
X014901Y-022460
X015118Y-024330
X011732Y-024370
X026692Y-017224
X026377Y-024527
X043877Y-050157
X043877Y-048228
X043877Y-046338
X043877Y-045019
X042362Y-024015
X043537Y-052120
X019251Y-036476
X010314Y-045000
X018543Y-035275
X003996Y-047263
X024429Y-033090
X032007Y-033110
X024429Y-034724
X031732Y-034350
X009468Y-018622
X027185Y-022460
X027637Y-022224
X006102Y-049763
X006122Y-026181
X008740Y-024074
X025610Y-019173
X027598Y-019822
X043385Y-049251
X043287Y-045433
X004586Y-043996
X026909Y-019881
X005826Y-025610
X008188Y-024074
X026476Y-019547
X025846Y-019625
X007263Y-042185
X043464Y-047322
X043425Y-051220
X043779Y-044291
X026023Y-029527
X030157Y-029685
X024448Y-030944
X032283Y-030944
X024468Y-036850
X026417Y-037952
X030787Y-037952
X032283Y-037027
X035216Y-035688
X023228Y-029350
X038582Y-012775
X038582Y-013937
X008090Y-042755
X004055Y-049763
X025039Y-028858
X026692Y-028858
X028110Y-028858
X025433Y-038779
X027125Y-038700
X028503Y-038661
X030000Y-038661
X031535Y-038681
X023366Y-030590
X023346Y-037086
X033110Y-037165
X033090Y-030472
X029527Y-028858
X031338Y-028700
X018090Y-038937
X017303Y-042185
X026732Y-044212
X011968Y-019625
X013700Y-019645
X014291Y-024370
X012519Y-024370
X014940Y-023307
X014881Y-021220
X010413Y-022755
X010393Y-020433
X034370Y-028149
X040551Y-024606
X038838Y-024606
X026968Y-019015
X026653Y-022519
X003090Y-031259
X003385Y-027421
X027696Y-017263
X041929Y-052716
X001889Y-023720
X001889Y-036771
X013326Y-044547
X044980Y-023956
X044192Y-019547
T09
X005905Y-042755
X005905Y-052677
X048930Y-039204
X048968Y-035312
X049968Y-039212
X049968Y-035312
T10
X007677Y-009645
T11
X007913Y-020000
X007913Y-020800
T12
X013803Y-036330
X016803Y-036330
X016803Y-033330
X013803Y-033330
T13
X008464Y-040196
X010464Y-040196
T14
X046960Y-039204
X046960Y-035284
X046960Y-038224
X046960Y-036264
X048930Y-037244
T15
X009645Y-028149
X008645Y-028149
X018897Y-031574
X019897Y-031574
X036299Y-041141
X036299Y-040141
X006181Y-015590
X007181Y-015590
X008181Y-015590
X003622Y-011574
X003622Y-012574
X003622Y-013574
X022755Y-051102
X022755Y-050102
X023755Y-051102
X023755Y-050102
X024755Y-051102
X024755Y-050102
X025755Y-051102
X025755Y-050102
X026755Y-051102
X026755Y-050102
X027755Y-051102
X027755Y-050102
X028755Y-051102
X028755Y-050102
X029755Y-051102
X029755Y-050102
X030755Y-051102
X030755Y-050102
X031755Y-051102
X031755Y-050102
X018779Y-044094
X019779Y-044094
X018779Y-045094
X019779Y-045094
X018779Y-046094
X019779Y-046094
X018779Y-047094
X019779Y-047094
X018779Y-048094
X019779Y-048094
X018779Y-049094
X019779Y-049094
X018779Y-050094
X019779Y-050094
X018779Y-051094
X019779Y-051094
T16
X011299Y-051102
X011299Y-042834
T17
X001889Y-007283
X002889Y-007283
X003889Y-007283
X001889Y-008283
X002889Y-008283
X003889Y-008283
X001889Y-009283
X002889Y-009283
X003889Y-009283
X019921Y-011574
X020711Y-011574
X019921Y-012362
X020708Y-012362
X019921Y-013149
X020708Y-013149
X019921Y-013937
X020708Y-013937
X019921Y-014724
X020708Y-014724
X019921Y-015511
X020708Y-015511
X019921Y-016299
X020708Y-016299
X019921Y-017086
X020708Y-017086
X019921Y-017874
X020708Y-017874
X019921Y-018661
X020708Y-018661
X019921Y-019448
X020708Y-019448
X019921Y-020236
X020708Y-020236
X019921Y-021023
X020708Y-021023
X019921Y-021811
X020708Y-021811
X019921Y-022598
X020708Y-022598
X019921Y-023385
X020708Y-023385
X019921Y-024173
X020708Y-024173
X019921Y-024960
X020708Y-024960
X019921Y-025748
X020708Y-025748
X019921Y-026535
X020708Y-026535
X017559Y-027559
X017559Y-028346
X016771Y-027559
X016771Y-028346
X015984Y-027559
X015984Y-028346
X015196Y-027559
X015196Y-028346
X014409Y-027559
X014409Y-028346
X013622Y-027559
X013622Y-028346
X012834Y-027559
X012834Y-028346
X012047Y-027559
X012047Y-028346
T18
X045078Y-001968
X045078Y-057086
X005708Y-057086
X005708Y-001968
M30
