G04 FreePCB version 1.355*
G04 E:\My_Own_Files\Coding\ez80p\Development\PCB\v1.2\top_solder_mask.grb*
G04 top solder mask layer *
G04 Scale: 100 percent, Rotated: No, Reflected: No *
%FSLAX24Y24*%
%MOIN*%
%LN top solder mask *%
G04 Rounded Rectangle Macro, params: W/2, H/2, R *
%AMRNDREC*
21,1,$1+$1,$2+$2-$3-$3,0,0,0*
21,1,$1+$1-$3-$3,$2+$2,0,0,0*
1,1,$3+$3,$1-$3,$2-$3*
1,1,$3+$3,$3-$1,$2-$3*
1,1,$3+$3,$1-$3,$3-$2*
1,1,$3+$3,$3-$1,$3-$2*%
G04 Rectangular Thermal Macro, params: W/2, H/2, T/2 *
%AMRECTHERM*
$4=$3/2*
21,1,$1-$3,$2-$3,0-$1/2-$4,0-$2/2-$4,0*
21,1,$1-$3,$2-$3,0-$1/2-$4,$2/2+$4,0*
21,1,$1-$3,$2-$3,$1/2+$4,0-$2/2-$4,0*
21,1,$1-$3,$2-$3,$1/2+$4,$2/2+$4,0*%
%ADD10C,0.007874*%
%ADD11RNDREC,0.035433X0.009843X0.009843*%
%ADD12RNDREC,0.009843X0.035433X0.009843*%
%ADD13R,0.031496X0.047244*%
%ADD14R,0.047244X0.047244*%
%ADD15R,0.017717X0.078740*%
%ADD16R,0.078740X0.017717*%
%ADD17R,0.062874X0.062874*%
%ADD18C,0.062874*%
%ADD19R,0.051181X0.055118*%
%ADD20R,0.070866X0.070866*%
%ADD21C,0.070866*%
%ADD22C,0.204724*%
%ADD23C,0.145669*%
%ADD24C,0.066929*%
%ADD25C,0.153543*%
%ADD26C,0.086614*%
%ADD27C,0.196850*%
%ADD28C,0.185039*%
%ADD29R,0.055118X0.051181*%
%ADD30R,0.055874X0.047874*%
%ADD31R,0.094488X0.035433*%
%ADD32C,0.072874*%
%ADD33C,0.074803*%
%ADD34C,0.047874*%
%ADD35C,0.078740*%
%ADD36C,0.067874*%
%ADD37R,0.066929X0.066929*%
%ADD38C,0.085874*%
%ADD39R,0.066929X0.047244*%
%ADD40R,0.066929X0.035433*%
%ADD41C,0.164874*%
%ADD42R,0.072874X0.072874*%
%ADD43C,0.047244*%
%ADD44R,0.059055X0.059055*%
%ADD45C,0.059055*%
%ADD46C,0.090551*%
%ADD47R,0.068898X0.059055*%
%ADD48C,0.141732*%
%ADD49R,0.074803X0.025591*%
%ADD50R,0.043307X0.023622*%
%ADD51R,0.055118X0.094488*%
%ADD52R,0.149606X0.094488*%
%ADD53R,0.035433X0.094488*%
%ADD54R,0.070866X0.086614*%
%ADD55R,0.023622X0.043307*%
G90*
G70D02*

G04 Step and Repeat for panelization *

G04 ----------------------- Draw board outline (positive)*
%LPD*%
G54D10*
G01X0Y-57874D02*
G01X51181Y-57874D01*
G04 end of side 1*
G01X51181Y0D01*
G04 end of side 2*
G01X0Y0D01*
G04 end of side 3*
G01X0Y-57874D01*

G04 -------------- Draw Parts, Pads, Traces, Vias and Text (positive)*
%LPD*%
G04 Draw part ez80*
G54D11*
G01X16259Y-23740D03*
G01X16259Y-23543D03*
G01X16259Y-23346D03*
G01X16259Y-23149D03*
G01X16259Y-22952D03*
G01X16259Y-22755D03*
G01X16259Y-22559D03*
G01X16259Y-22362D03*
G01X16259Y-22165D03*
G01X16259Y-21968D03*
G01X16259Y-21771D03*
G01X16259Y-21574D03*
G01X16259Y-21377D03*
G01X16259Y-21181D03*
G01X16259Y-20984D03*
G01X16259Y-20787D03*
G01X16259Y-20590D03*
G01X16259Y-20393D03*
G01X16259Y-20196D03*
G01X16259Y-20000D03*
G01X16259Y-19803D03*
G01X16259Y-19606D03*
G01X16259Y-19409D03*
G01X16259Y-19212D03*
G01X16259Y-19015D03*
G54D12*
G01X15472Y-18228D03*
G01X15275Y-18228D03*
G01X15078Y-18228D03*
G01X14881Y-18228D03*
G01X14685Y-18228D03*
G01X14488Y-18228D03*
G01X14291Y-18228D03*
G01X14094Y-18228D03*
G01X13897Y-18228D03*
G01X13700Y-18228D03*
G01X13503Y-18228D03*
G01X13307Y-18228D03*
G01X13110Y-18228D03*
G01X12913Y-18228D03*
G01X12716Y-18228D03*
G01X12519Y-18228D03*
G01X12322Y-18228D03*
G01X12125Y-18228D03*
G01X11929Y-18228D03*
G01X11732Y-18228D03*
G01X11535Y-18228D03*
G01X11338Y-18228D03*
G01X11141Y-18228D03*
G01X10944Y-18228D03*
G01X10748Y-18228D03*
G54D11*
G01X9960Y-19015D03*
G01X9960Y-19212D03*
G01X9960Y-19409D03*
G01X9960Y-19606D03*
G01X9960Y-19803D03*
G01X9960Y-20000D03*
G01X9960Y-20196D03*
G01X9960Y-20393D03*
G01X9960Y-20590D03*
G01X9960Y-20787D03*
G01X9960Y-20984D03*
G01X9960Y-21181D03*
G01X9960Y-21377D03*
G01X9960Y-21574D03*
G01X9960Y-21771D03*
G01X9960Y-21968D03*
G01X9960Y-22165D03*
G01X9960Y-22362D03*
G01X9960Y-22559D03*
G01X9960Y-22755D03*
G01X9960Y-22952D03*
G01X9960Y-23149D03*
G01X9960Y-23346D03*
G01X9960Y-23543D03*
G01X9960Y-23740D03*
G54D12*
G01X10748Y-24527D03*
G01X10944Y-24527D03*
G01X11141Y-24527D03*
G01X11338Y-24527D03*
G01X11535Y-24527D03*
G01X11732Y-24527D03*
G01X11929Y-24527D03*
G01X12125Y-24527D03*
G01X12322Y-24527D03*
G01X12519Y-24527D03*
G01X12716Y-24527D03*
G01X12913Y-24527D03*
G01X13110Y-24527D03*
G01X13307Y-24527D03*
G01X13503Y-24527D03*
G01X13700Y-24527D03*
G01X13897Y-24527D03*
G01X14094Y-24527D03*
G01X14291Y-24527D03*
G01X14488Y-24527D03*
G01X14685Y-24527D03*
G01X14881Y-24527D03*
G01X15078Y-24527D03*
G01X15275Y-24527D03*
G01X15472Y-24527D03*
G04 Draw part sys_ram*
G54D13*
G01X30511Y-17952D03*
G54D14*
G01X30196Y-17952D03*
G01X29881Y-17952D03*
G01X29566Y-17952D03*
G01X29251Y-17952D03*
G01X28937Y-17952D03*
G01X28622Y-17952D03*
G01X28307Y-17952D03*
G01X27992Y-17952D03*
G01X27677Y-17952D03*
G01X27362Y-17952D03*
G01X27047Y-17952D03*
G01X26732Y-17952D03*
G01X26417Y-17952D03*
G01X26102Y-17952D03*
G01X25787Y-17952D03*
G01X25472Y-17952D03*
G01X25157Y-17952D03*
G01X24842Y-17952D03*
G01X24527Y-17952D03*
G01X24212Y-17952D03*
G01X23897Y-17952D03*
G01X23897Y-22598D03*
G01X24212Y-22598D03*
G01X24527Y-22598D03*
G01X24842Y-22598D03*
G01X25157Y-22598D03*
G01X25472Y-22598D03*
G01X25787Y-22598D03*
G01X26102Y-22598D03*
G01X26417Y-22598D03*
G01X26732Y-22598D03*
G01X27047Y-22598D03*
G01X27362Y-22598D03*
G01X27677Y-22598D03*
G01X27992Y-22598D03*
G01X28307Y-22598D03*
G01X28622Y-22598D03*
G01X28937Y-22598D03*
G01X29251Y-22598D03*
G01X29566Y-22598D03*
G01X29881Y-22598D03*
G01X30196Y-22598D03*
G01X30511Y-22598D03*
G04 Draw part spartan3*
G54D15*
G01X33700Y-27165D03*
G01X33503Y-27165D03*
G01X33307Y-27165D03*
G01X33110Y-27165D03*
G01X32913Y-27165D03*
G01X32716Y-27165D03*
G01X32519Y-27165D03*
G01X32322Y-27165D03*
G01X32125Y-27165D03*
G01X31929Y-27165D03*
G01X31732Y-27165D03*
G01X31535Y-27165D03*
G01X31338Y-27165D03*
G01X31141Y-27165D03*
G01X30944Y-27165D03*
G01X30748Y-27165D03*
G01X30551Y-27165D03*
G01X30354Y-27165D03*
G01X30157Y-27165D03*
G01X29960Y-27165D03*
G01X29763Y-27165D03*
G01X29566Y-27165D03*
G01X29370Y-27165D03*
G01X29173Y-27165D03*
G01X28976Y-27165D03*
G01X28779Y-27165D03*
G01X28582Y-27165D03*
G01X28385Y-27165D03*
G01X28188Y-27165D03*
G01X27992Y-27165D03*
G01X27795Y-27165D03*
G01X27598Y-27165D03*
G01X27401Y-27165D03*
G01X27204Y-27165D03*
G01X27007Y-27165D03*
G01X26811Y-27165D03*
G01X26614Y-27165D03*
G01X26417Y-27165D03*
G01X26220Y-27165D03*
G01X26023Y-27165D03*
G01X25826Y-27165D03*
G01X25629Y-27165D03*
G01X25433Y-27165D03*
G01X25236Y-27165D03*
G01X25039Y-27165D03*
G01X24842Y-27165D03*
G01X24645Y-27165D03*
G01X24448Y-27165D03*
G01X24251Y-27165D03*
G01X24055Y-27165D03*
G01X23858Y-27165D03*
G01X23661Y-27165D03*
G54D16*
G01X22618Y-28208D03*
G01X22618Y-28405D03*
G01X22618Y-28602D03*
G01X22618Y-28799D03*
G01X22618Y-28996D03*
G01X22618Y-29192D03*
G01X22618Y-29389D03*
G01X22618Y-29586D03*
G01X22618Y-29783D03*
G01X22618Y-29980D03*
G01X22618Y-30177D03*
G01X22618Y-30374D03*
G01X22618Y-30570D03*
G01X22618Y-30767D03*
G01X22618Y-30964D03*
G01X22618Y-31161D03*
G01X22618Y-31358D03*
G01X22618Y-31555D03*
G01X22618Y-31751D03*
G01X22618Y-31948D03*
G01X22618Y-32145D03*
G01X22618Y-32342D03*
G01X22618Y-32539D03*
G01X22618Y-32736D03*
G01X22618Y-32933D03*
G01X22618Y-33129D03*
G01X22618Y-33326D03*
G01X22618Y-33523D03*
G01X22618Y-33720D03*
G01X22618Y-33917D03*
G01X22618Y-34114D03*
G01X22618Y-34311D03*
G01X22618Y-34507D03*
G01X22618Y-34704D03*
G01X22618Y-34901D03*
G01X22618Y-35098D03*
G01X22618Y-35295D03*
G01X22618Y-35492D03*
G01X22618Y-35688D03*
G01X22618Y-35885D03*
G01X22618Y-36082D03*
G01X22618Y-36279D03*
G01X22618Y-36476D03*
G01X22618Y-36673D03*
G01X22618Y-36870D03*
G01X22618Y-37066D03*
G01X22618Y-37263D03*
G01X22618Y-37460D03*
G01X22618Y-37657D03*
G01X22618Y-37854D03*
G01X22618Y-38051D03*
G01X22618Y-38248D03*
G54D15*
G01X23661Y-39291D03*
G01X23858Y-39291D03*
G01X24055Y-39291D03*
G01X24251Y-39291D03*
G01X24448Y-39291D03*
G01X24645Y-39291D03*
G01X24842Y-39291D03*
G01X25039Y-39291D03*
G01X25236Y-39291D03*
G01X25433Y-39291D03*
G01X25629Y-39291D03*
G01X25826Y-39291D03*
G01X26023Y-39291D03*
G01X26220Y-39291D03*
G01X26417Y-39291D03*
G01X26614Y-39291D03*
G01X26811Y-39291D03*
G01X27007Y-39291D03*
G01X27204Y-39291D03*
G01X27401Y-39291D03*
G01X27598Y-39291D03*
G01X27795Y-39291D03*
G01X27992Y-39291D03*
G01X28188Y-39291D03*
G01X28385Y-39291D03*
G01X28582Y-39291D03*
G01X28779Y-39291D03*
G01X28976Y-39291D03*
G01X29173Y-39291D03*
G01X29370Y-39291D03*
G01X29566Y-39291D03*
G01X29763Y-39291D03*
G01X29960Y-39291D03*
G01X30157Y-39291D03*
G01X30354Y-39291D03*
G01X30551Y-39291D03*
G01X30748Y-39291D03*
G01X30944Y-39291D03*
G01X31141Y-39291D03*
G01X31338Y-39291D03*
G01X31535Y-39291D03*
G01X31732Y-39291D03*
G01X31929Y-39291D03*
G01X32125Y-39291D03*
G01X32322Y-39291D03*
G01X32519Y-39291D03*
G01X32716Y-39291D03*
G01X32913Y-39291D03*
G01X33110Y-39291D03*
G01X33307Y-39291D03*
G01X33503Y-39291D03*
G01X33700Y-39291D03*
G54D16*
G01X34744Y-38248D03*
G01X34744Y-38051D03*
G01X34744Y-37854D03*
G01X34744Y-37657D03*
G01X34744Y-37460D03*
G01X34744Y-37263D03*
G01X34744Y-37066D03*
G01X34744Y-36870D03*
G01X34744Y-36673D03*
G01X34744Y-36476D03*
G01X34744Y-36279D03*
G01X34744Y-36082D03*
G01X34744Y-35885D03*
G01X34744Y-35688D03*
G01X34744Y-35492D03*
G01X34744Y-35295D03*
G01X34744Y-35098D03*
G01X34744Y-34901D03*
G01X34744Y-34704D03*
G01X34744Y-34507D03*
G01X34744Y-34311D03*
G01X34744Y-34114D03*
G01X34744Y-33917D03*
G01X34744Y-33720D03*
G01X34744Y-33523D03*
G01X34744Y-33326D03*
G01X34744Y-33129D03*
G01X34744Y-32933D03*
G01X34744Y-32736D03*
G01X34744Y-32539D03*
G01X34744Y-32342D03*
G01X34744Y-32145D03*
G01X34744Y-31948D03*
G01X34744Y-31751D03*
G01X34744Y-31555D03*
G01X34744Y-31358D03*
G01X34744Y-31161D03*
G01X34744Y-30964D03*
G01X34744Y-30767D03*
G01X34744Y-30570D03*
G01X34744Y-30374D03*
G01X34744Y-30177D03*
G01X34744Y-29980D03*
G01X34744Y-29783D03*
G01X34744Y-29586D03*
G01X34744Y-29389D03*
G01X34744Y-29192D03*
G01X34744Y-28996D03*
G01X34744Y-28799D03*
G01X34744Y-28602D03*
G01X34744Y-28405D03*
G01X34744Y-28208D03*
G04 Draw part pic*
G54D17*
G01X11535Y-38149D03*
G54D18*
G01X11535Y-37149D03*
G01X11535Y-36149D03*
G01X11535Y-35149D03*
G01X11535Y-34149D03*
G01X11535Y-33149D03*
G01X11535Y-32149D03*
G01X11535Y-31149D03*
G01X11535Y-30149D03*
G01X8535Y-30149D03*
G01X8535Y-31149D03*
G01X8535Y-32149D03*
G01X8535Y-33149D03*
G01X8535Y-34149D03*
G01X8535Y-35149D03*
G01X8535Y-36149D03*
G01X8535Y-37149D03*
G01X8535Y-38149D03*
G04 Draw part vram*
G54D13*
G01X20866Y-37834D03*
G54D14*
G01X20551Y-37834D03*
G01X20236Y-37834D03*
G01X19921Y-37834D03*
G01X19606Y-37834D03*
G01X19291Y-37834D03*
G01X18976Y-37834D03*
G01X18661Y-37834D03*
G01X18346Y-37834D03*
G01X18031Y-37834D03*
G01X17716Y-37834D03*
G01X17401Y-37834D03*
G01X17086Y-37834D03*
G01X16771Y-37834D03*
G01X16456Y-37834D03*
G01X16141Y-37834D03*
G01X15826Y-37834D03*
G01X15511Y-37834D03*
G01X15196Y-37834D03*
G01X14881Y-37834D03*
G01X14566Y-37834D03*
G01X14251Y-37834D03*
G01X14251Y-42480D03*
G01X14566Y-42480D03*
G01X14881Y-42480D03*
G01X15196Y-42480D03*
G01X15511Y-42480D03*
G01X15826Y-42480D03*
G01X16141Y-42480D03*
G01X16456Y-42480D03*
G01X16771Y-42480D03*
G01X17086Y-42480D03*
G01X17401Y-42480D03*
G01X17716Y-42480D03*
G01X18031Y-42480D03*
G01X18346Y-42480D03*
G01X18661Y-42480D03*
G01X18976Y-42480D03*
G01X19291Y-42480D03*
G01X19606Y-42480D03*
G01X19921Y-42480D03*
G01X20236Y-42480D03*
G01X20551Y-42480D03*
G01X20866Y-42480D03*
G04 Draw part bypcap1*
G04 Draw part bypcap2*
G54D19*
G01X17913Y-43385D03*
G01X17244Y-43385D03*
G04 Draw part vidcon*
G54D20*
G01X47559Y-46614D03*
G54D21*
G01X47559Y-47519D03*
G01X47559Y-48425D03*
G01X47559Y-49330D03*
G01X47559Y-50236D03*
G01X46535Y-46181D03*
G01X46535Y-47047D03*
G01X46535Y-47992D03*
G01X46535Y-48897D03*
G01X46535Y-49803D03*
G01X45551Y-46614D03*
G01X45551Y-47519D03*
G01X45551Y-48425D03*
G01X45551Y-49330D03*
G01X45551Y-50236D03*
G54D22*
G01X46574Y-53307D03*
G01X46496Y-43543D03*
G04 Draw part joy1*
G54D20*
G01X4566Y-9685D03*
G54D21*
G01X4566Y-10775D03*
G01X4566Y-11865D03*
G01X4566Y-12955D03*
G01X4566Y-14045D03*
G01X3446Y-10225D03*
G01X3446Y-11315D03*
G01X3446Y-12405D03*
G01X3446Y-13495D03*
G54D22*
G01X4055Y-16771D03*
G01X4055Y-6929D03*
G04 Draw part joy2*
G54D20*
G01X4566Y-22913D03*
G54D21*
G01X4566Y-24003D03*
G01X4566Y-25093D03*
G01X4566Y-26183D03*
G01X4566Y-27273D03*
G01X3446Y-23453D03*
G01X3446Y-24543D03*
G01X3446Y-25633D03*
G01X3446Y-26723D03*
G54D22*
G01X4055Y-30000D03*
G01X4055Y-20157D03*
G04 Draw part keyb*
G54D23*
G01X48779Y-34665D03*
G01X48779Y-29350D03*
G54D24*
G01X47598Y-32559D03*
G01X47598Y-31456D03*
G01X47598Y-30728D03*
G01X47598Y-33287D03*
G54D25*
G01X49074Y-32007D03*
G54D26*
G01X46614Y-33287D03*
G01X46614Y-30728D03*
G04 Draw part mouse*
G54D23*
G01X48779Y-27263D03*
G01X48779Y-21948D03*
G54D24*
G01X47598Y-25157D03*
G01X47598Y-24055D03*
G01X47598Y-23326D03*
G01X47598Y-25885D03*
G54D25*
G01X49074Y-24606D03*
G54D26*
G01X46614Y-25885D03*
G01X46614Y-23326D03*
G04 Draw part dc_in*
G54D27*
G01X45393Y-9803D03*
G54D28*
G01X48110Y-9803D03*
G54D23*
G01X46535Y-7952D03*
G04 Draw part ps1res1*
G54D29*
G01X42007Y-30000D03*
G01X42007Y-30669D03*
G04 Draw part ps1res2*
G01X42007Y-28228D03*
G01X42007Y-28897D03*
G04 Draw part ps1res3*
G01X42086Y-26377D03*
G01X42086Y-27047D03*
G04 Draw part ps1res4*
G01X42047Y-24645D03*
G01X42047Y-25314D03*
G04 Draw part ps1res8*
G04 Draw part ps1res12*
G04 Draw part ps1res15*
G04 Draw part ps1res16*
G04 Draw part ps1res17*
G54D30*
G01X43897Y-30393D03*
G01X42997Y-29993D03*
G01X42997Y-30793D03*
G04 Draw part ps1res18*
G01X43897Y-28543D03*
G01X42997Y-28143D03*
G01X42997Y-28943D03*
G04 Draw part ps1res19*
G01X43937Y-26732D03*
G01X43037Y-26332D03*
G01X43037Y-27132D03*
G04 Draw part ps1res20*
G01X43937Y-25039D03*
G01X43037Y-24639D03*
G01X43037Y-25439D03*
G04 Draw part ps2buf*
G54D31*
G01X44173Y-22677D03*
G01X44173Y-22177D03*
G01X44173Y-21677D03*
G01X44173Y-21177D03*
G01X44173Y-20677D03*
G01X44173Y-20177D03*
G01X44173Y-19677D03*
G01X42047Y-19677D03*
G01X42047Y-20177D03*
G01X42047Y-20677D03*
G01X42047Y-21177D03*
G01X42047Y-21677D03*
G01X42047Y-22177D03*
G01X42047Y-22677D03*
G04 Draw part decap1*
G04 Draw part decap2*
G04 Draw part decap3*
G54D32*
G01X44050Y-40984D03*
G54D33*
G01X43070Y-40984D03*
G04 Draw part decap4*
G54D32*
G01X44090Y-35118D03*
G54D33*
G01X43110Y-35118D03*
G04 Draw part decap5*
G54D29*
G01X44881Y-39291D03*
G01X44881Y-38622D03*
G04 Draw part decap6*
G01X44881Y-36811D03*
G01X44881Y-37480D03*
G04 Draw part decap7*
G54D19*
G01X44055Y-37637D03*
G01X43385Y-37637D03*
G04 Draw part decap8*
G01X44055Y-38464D03*
G01X43385Y-38464D03*
G04 Draw part decap9*
G01X42598Y-39291D03*
G01X41929Y-39291D03*
G04 Draw part decap10*
G01X44055Y-36811D03*
G01X43385Y-36811D03*
G04 Draw part decap11*
G01X42598Y-36811D03*
G01X41929Y-36811D03*
G04 Draw part decap12*
G01X44055Y-39291D03*
G01X43385Y-39291D03*
G04 Draw part decap13*
G54D29*
G01X42598Y-38385D03*
G01X42598Y-37716D03*
G04 Draw part dac1*
G54D19*
G01X40511Y-44409D03*
G01X41181Y-44409D03*
G04 Draw part dac2*
G01X42165Y-44842D03*
G01X42834Y-44842D03*
G04 Draw part dac3*
G01X40511Y-45314D03*
G01X41181Y-45314D03*
G04 Draw part dac4*
G01X42165Y-45748D03*
G01X42834Y-45748D03*
G04 Draw part dac5*
G01X40511Y-46377D03*
G01X41181Y-46377D03*
G04 Draw part dac6*
G01X42204Y-46771D03*
G01X42874Y-46771D03*
G04 Draw part dac7*
G01X40511Y-47244D03*
G01X41181Y-47244D03*
G04 Draw part dac8*
G01X42204Y-47637D03*
G01X42874Y-47637D03*
G04 Draw part dac9*
G01X40472Y-48267D03*
G01X41141Y-48267D03*
G04 Draw part dac10*
G01X42165Y-48661D03*
G01X42834Y-48661D03*
G04 Draw part dac11*
G01X40472Y-49133D03*
G01X41141Y-49133D03*
G04 Draw part dac12*
G01X42165Y-49527D03*
G01X42834Y-49527D03*
G04 Draw part syncres2*
G01X42165Y-50629D03*
G01X42834Y-50629D03*
G04 Draw part sdres1*
G04 Draw part sdres2*
G04 Draw part sdres3*
G04 Draw part sdres4*
G04 Draw part sdres5*
G04 Draw part sdres6*
G04 Draw part sdres8*
G04 Draw part sdt*
G04 Draw part sdpowt*
G04 Draw part powres*
G04 Draw part jtag*
G54D21*
G01X36102Y-47480D03*
G01X36102Y-46480D03*
G01X36102Y-45480D03*
G01X36102Y-44480D03*
G01X36102Y-43480D03*
G01X36102Y-42480D03*
G04 Draw part sdpullhi*
G04 Draw part reg63v3*
G04 Draw part reg62v5*
G04 Draw part reg61v2*
G04 Draw part decap44*
G54D19*
G01X41496Y-23425D03*
G01X42165Y-23425D03*
G04 Draw part fpgacap1*
G04 Draw part fpgacap2*
G04 Draw part fpgacap3*
G04 Draw part fpgacap4*
G04 Draw part fpgacap7*
G04 Draw part fpgacap8*
G04 Draw part fpgacap9*
G04 Draw part fpgacap10*
G04 Draw part fpgacap11*
G04 Draw part fpgacap12*
G04 Draw part fpgacap13*
G04 Draw part via50*
G54D34*
G01X28622Y-30118D03*
G04 Draw part via51*
G01X29133Y-30118D03*
G04 Draw part via52*
G01X28622Y-36259D03*
G04 Draw part via53*
G01X29133Y-36259D03*
G04 Draw part fpgadecap50*
G04 Draw part fpgadecap51*
G04 Draw part fpgadecap52*
G04 Draw part fpgadecap53*
G04 Draw part fpgadecap54*
G04 Draw part fpgadecap55*
G04 Draw part fpgadecap56*
G04 Draw part fpgadecap57*
G04 Draw part fpgadecap58*
G04 Draw part fpgadecap59*
G04 Draw part fpgadecap60*
G04 Draw part fpgadecap63*
G04 Draw part fpgadecap64*
G04 Draw part fpgadecap67*
G04 Draw part fpgadecap68*
G04 Draw part led2*
G54D35*
G01X2795Y-55590D03*
G01X2795Y-56590D03*
G04 Draw part tant4*
G04 Draw part tant5*
G04 Draw part tant7*
G04 Draw part decap100*
G54D32*
G01X37523Y-34055D03*
G01X38503Y-34055D03*
G04 Draw part srcap1*
G54D19*
G01X26850Y-23346D03*
G01X27519Y-23346D03*
G04 Draw part srcap2*
G01X27559Y-17204D03*
G01X26889Y-17204D03*
G04 Draw part rtcxtal*
G54D36*
G01X8858Y-20433D03*
G01X8058Y-20433D03*
G04 Draw part rtxres*
G54D19*
G01X8188Y-21220D03*
G01X8858Y-21220D03*
G04 Draw part rtccap1*
G04 Draw part rtccap2*
G04 Draw part clock*
G54D37*
G01X14196Y-35740D03*
G54D36*
G01X17196Y-35740D03*
G01X17196Y-32740D03*
G01X14196Y-32740D03*
G04 Draw part xtal*
G54D32*
G01X5629Y-37125D03*
G01X5629Y-35125D03*
G04 Draw part xcap1*
G04 Draw part xcap2*
G04 Draw part eprres*
G04 Draw part vram2*
G54D13*
G01X30590Y-43070D03*
G54D14*
G01X30275Y-43070D03*
G01X29960Y-43070D03*
G01X29645Y-43070D03*
G01X29330Y-43070D03*
G01X29015Y-43070D03*
G01X28700Y-43070D03*
G01X28385Y-43070D03*
G01X28070Y-43070D03*
G01X27755Y-43070D03*
G01X27440Y-43070D03*
G01X27125Y-43070D03*
G01X26811Y-43070D03*
G01X26496Y-43070D03*
G01X26181Y-43070D03*
G01X25866Y-43070D03*
G01X25551Y-43070D03*
G01X25236Y-43070D03*
G01X24921Y-43070D03*
G01X24606Y-43070D03*
G01X24291Y-43070D03*
G01X23976Y-43070D03*
G01X23976Y-47716D03*
G01X24291Y-47716D03*
G01X24606Y-47716D03*
G01X24921Y-47716D03*
G01X25236Y-47716D03*
G01X25551Y-47716D03*
G01X25866Y-47716D03*
G01X26181Y-47716D03*
G01X26496Y-47716D03*
G01X26811Y-47716D03*
G01X27125Y-47716D03*
G01X27440Y-47716D03*
G01X27755Y-47716D03*
G01X28070Y-47716D03*
G01X28385Y-47716D03*
G01X28700Y-47716D03*
G01X29015Y-47716D03*
G01X29330Y-47716D03*
G01X29645Y-47716D03*
G01X29960Y-47716D03*
G01X30275Y-47716D03*
G01X30590Y-47716D03*
G04 Draw part vrdec2*
G04 Draw part vrdec3*
G04 Draw part prodiode1*
G04 Draw part prodiode2*
G04 Draw part prodiode3*
G04 Draw part prodiode4*
G04 Draw part prodiode5*
G04 Draw part prodiode6*
G54D19*
G01X42165Y-43700D03*
G01X42834Y-43700D03*
G04 Draw part prodiode7*
G54D26*
G01X47550Y-40778D03*
G54D38*
G01X47550Y-36858D03*
G01X47550Y-39798D03*
G01X47550Y-37838D03*
G54D33*
G01X49520Y-40778D03*
G01X49559Y-36887D03*
G54D38*
G01X49520Y-38818D03*
G54D33*
G01X50559Y-40787D03*
G01X50559Y-36887D03*
G54D24*
G01X47559Y-38818D03*
G04 Draw part respulup*
G54D29*
G01X10000Y-33503D03*
G01X10000Y-34173D03*
G04 Draw part epr2*
G04 Draw part eprdec*
G04 Draw part sd3m*
G54D39*
G01X12401Y-49527D03*
G01X12401Y-48543D03*
G01X12401Y-47559D03*
G01X12401Y-46574D03*
G01X12401Y-45590D03*
G01X12401Y-44606D03*
G01X12401Y-50511D03*
G01X12401Y-42992D03*
G01X12401Y-43661D03*
G54D40*
G01X12401Y-42480D03*
G01X12401Y-42007D03*
G54D24*
G01X11299Y-50511D03*
G01X11299Y-42244D03*
G04 Draw part oscdec*
G04 Draw part donepullup*
G54D29*
G01X10000Y-36574D03*
G01X10000Y-37244D03*
G04 Draw part initpullup*
G01X10000Y-34960D03*
G01X10000Y-35629D03*
G04 Draw part picdec*
G04 Draw part ezcap1*
G04 Draw part ezcap2*
G04 Draw part ezcap3*
G04 Draw part ezcap4*
G04 Draw part ezcap5*
G04 Draw part ezcap6*
G04 Draw part ezcap7*
G04 Draw part ezcap8*
G04 Draw part vrdec1*
G54D32*
G01X37090Y-29645D03*
G01X38070Y-29645D03*
G04 Draw part vrdec4*
G01X42204Y-33105D03*
G01X42204Y-32125D03*
G04 Draw part frres*
G04 Draw part powvia1*
G54D34*
G01X34763Y-27047D03*
G04 Draw part powcap2*
G54D32*
G01X38460Y-24645D03*
G01X37480Y-24645D03*
G04 Draw part powcap3*
G54D34*
G01X34763Y-26535D03*
G04 Draw part vccdec*
G54D32*
G01X38499Y-19251D03*
G01X37519Y-19251D03*
G04 Draw part myvia2*
G54D34*
G01X37283Y-12716D03*
G04 Draw part myvia3*
G01X37913Y-12716D03*
G04 Draw part myvia4*
G01X37204Y-11377D03*
G04 Draw part myvia5*
G01X37834Y-11377D03*
G04 Draw part cpupowvia1*
G01X16811Y-18267D03*
G04 Draw part jres7*
G04 Draw part sdpowreg*
G04 Draw part scdecapv*
G54D32*
G01X15980Y-46338D03*
G01X15000Y-46338D03*
G04 Draw part scdecap2*
G01X15940Y-51692D03*
G01X14960Y-51692D03*
G04 Draw part scdecap3*
G54D34*
G01X14763Y-53464D03*
G04 Draw part scdecap4*
G01X14133Y-53464D03*
G04 Draw part scdecap5*
G04 Draw part progpullup*
G04 Draw part cclkserres*
G04 Draw part doneserres*
G04 Draw part progbres*
G04 Draw part vdio2*
G54D35*
G01X42834Y-10708D03*
G01X43834Y-10708D03*
G04 Draw part justavia*
G54D34*
G01X22637Y-26968D03*
G04 Draw part hole1*
G54D41*
G01X45118Y-1377D03*
G04 Draw part hole2*
G01X45078Y-56496D03*
G04 Draw part hole3*
G01X5708Y-56496D03*
G04 Draw part doutpulldown*
G04 Draw part alt_conx2*
G54D42*
G01X23149Y-50511D03*
G54D32*
G01X23149Y-49511D03*
G01X24149Y-50511D03*
G01X24149Y-49511D03*
G01X25149Y-50511D03*
G01X25149Y-49511D03*
G01X26149Y-50511D03*
G01X26149Y-49511D03*
G01X27149Y-50511D03*
G01X27149Y-49511D03*
G01X28149Y-50511D03*
G01X28149Y-49511D03*
G01X29149Y-50511D03*
G01X29149Y-49511D03*
G01X30149Y-50511D03*
G01X30149Y-49511D03*
G01X31149Y-50511D03*
G01X31149Y-49511D03*
G01X32149Y-50511D03*
G01X32149Y-49511D03*
G04 Draw part alt_conx3*
G54D42*
G01X19173Y-43503D03*
G54D32*
G01X20173Y-43503D03*
G01X19173Y-44503D03*
G01X20173Y-44503D03*
G01X19173Y-45503D03*
G01X20173Y-45503D03*
G01X19173Y-46503D03*
G01X20173Y-46503D03*
G01X19173Y-47503D03*
G01X20173Y-47503D03*
G01X19173Y-48503D03*
G01X20173Y-48503D03*
G01X19173Y-49503D03*
G01X20173Y-49503D03*
G01X19173Y-50503D03*
G01X20173Y-50503D03*
G04 Draw part hole9*
G54D41*
G01X5708Y-1377D03*
G04 Draw part buscon2*
G54D21*
G01X20157Y-7795D03*
G01X21157Y-7795D03*
G01X20157Y-8795D03*
G01X21157Y-8795D03*
G01X20157Y-9795D03*
G01X21157Y-9795D03*
G01X20157Y-10795D03*
G01X21157Y-10795D03*
G01X20157Y-11795D03*
G01X21157Y-11795D03*
G01X20157Y-12795D03*
G01X21157Y-12795D03*
G01X20157Y-13795D03*
G01X21157Y-13795D03*
G01X20157Y-14795D03*
G01X21157Y-14795D03*
G01X20157Y-15795D03*
G01X21157Y-15795D03*
G01X20157Y-16795D03*
G01X21157Y-16795D03*
G01X20157Y-17795D03*
G01X21157Y-17795D03*
G01X20157Y-18795D03*
G01X21157Y-18795D03*
G01X20157Y-19795D03*
G01X21157Y-19795D03*
G01X20157Y-20795D03*
G01X21157Y-20795D03*
G01X20157Y-21795D03*
G01X21157Y-21795D03*
G01X20157Y-22795D03*
G01X21157Y-22795D03*
G01X20157Y-23795D03*
G01X21157Y-23795D03*
G01X20157Y-24795D03*
G01X21157Y-24795D03*
G01X20157Y-25795D03*
G01X21157Y-25795D03*
G01X20157Y-26795D03*
G01X21157Y-26795D03*
G04 Draw part buscon3*
G54D43*
G01X10314Y-17519D03*
G04 Draw part buscon4*
G54D20*
G01X12165Y-27795D03*
G54D21*
G01X12165Y-26795D03*
G01X13165Y-27795D03*
G01X13165Y-26795D03*
G01X14165Y-27795D03*
G01X14165Y-26795D03*
G01X15165Y-27795D03*
G01X15165Y-26795D03*
G01X16165Y-27795D03*
G01X16165Y-26795D03*
G01X17165Y-27795D03*
G01X17165Y-26795D03*
G01X18165Y-27795D03*
G01X18165Y-26795D03*
G04 Draw part buscon6*
G04 Draw part buscon7*
G54D29*
G01X1259Y-55590D03*
G01X1259Y-56259D03*
G04 Draw part buscon8*
G04 Draw part buscon9*
G54D35*
G01X37401Y-27047D03*
G01X38401Y-27047D03*
G04 Draw part buscon10*
G01X35157Y-49488D03*
G01X35157Y-50488D03*
G04 Draw part fix1*
G04 Draw part fix2*
G04 Draw part fix3*
G04 Draw part fix4*
G04 Draw part fix5*
G04 Draw part fix13*
G54D20*
G01X7165Y-28346D03*
G54D21*
G01X7165Y-27346D03*
G01X8165Y-28346D03*
G01X8165Y-27346D03*
G01X9165Y-28346D03*
G01X9165Y-27346D03*
G04 Draw part fix21*
G54D29*
G01X3346Y-35551D03*
G01X3346Y-36220D03*
G04 Draw part fix22*
G01X2637Y-36220D03*
G01X2637Y-35551D03*
G04 Draw part resnet1*
G04 Draw part resnet3*
G04 Draw part resnet4*
G04 Draw part resnet5*
G04 Draw part resnet6*
G04 Draw part cpupowvia*
G54D34*
G01X20472Y-4724D03*
G04 Draw part decap999*
G54D44*
G01X17519Y-17283D03*
G54D45*
G01X17519Y-18283D03*
G04 Draw part decap1000*
G54D34*
G01X25078Y-13228D03*
G04 Draw part batthoriz*
G54D26*
G01X7204Y-9842D03*
G01X7165Y-5905D03*
G01X13110Y-7874D03*
G01X7204Y-7834D03*
G01X15078Y-7874D03*
G04 Draw part battdio*
G54D35*
G01X6929Y-13897D03*
G01X6929Y-12897D03*
G04 Draw part battres*
G04 Draw part pusel*
G54D20*
G01X1771Y-4448D03*
G54D21*
G01X2771Y-4448D03*
G01X3771Y-4448D03*
G04 Draw part blah*
G04 Draw part blah3*
G04 Draw part cs3*
G54D35*
G01X8070Y-13897D03*
G01X8070Y-12897D03*
G04 Draw part powercon*
G54D46*
G01X1771Y-2598D03*
G01X2771Y-2598D03*
G01X3771Y-2598D03*
G04 Draw part buh*
G54D34*
G01X44527Y-27677D03*
G04 Draw part buhhh*
G54D32*
G01X43893Y-8700D03*
G54D33*
G01X42913Y-8700D03*
G04 Draw part rest*
G54D20*
G01X32165Y-8779D03*
G54D21*
G01X32165Y-7779D03*
G01X33165Y-8779D03*
G01X33165Y-7779D03*
G04 Draw part sw2*
G54D47*
G01X2440Y-31732D03*
G01X2440Y-33503D03*
G01X5590Y-33543D03*
G01X5590Y-31732D03*
G04 Draw part trans67*
G54D19*
G01X42598Y-3897D03*
G01X41929Y-3897D03*
G04 Draw part usbcon1*
G54D48*
G01X46929Y-19527D03*
G01X46929Y-14370D03*
G54D35*
G01X45866Y-18346D03*
G54D33*
G01X45866Y-17362D03*
G01X45866Y-16574D03*
G54D35*
G01X45866Y-15590D03*
G04 Draw part usbcon2*
G54D49*
G01X40807Y-14360D03*
G01X40807Y-14616D03*
G01X40807Y-14872D03*
G01X40807Y-15127D03*
G01X40807Y-15383D03*
G01X40807Y-15639D03*
G01X40807Y-15895D03*
G01X40807Y-16151D03*
G01X40807Y-16407D03*
G01X40807Y-16663D03*
G01X40807Y-16919D03*
G01X40807Y-17175D03*
G01X40807Y-17431D03*
G01X40807Y-17687D03*
G01X43523Y-17687D03*
G01X43523Y-17431D03*
G01X43523Y-17175D03*
G01X43523Y-16919D03*
G01X43523Y-16663D03*
G01X43523Y-16407D03*
G01X43523Y-16151D03*
G01X43523Y-15895D03*
G01X43523Y-15639D03*
G01X43523Y-15383D03*
G01X43523Y-15127D03*
G01X43523Y-14872D03*
G01X43523Y-14616D03*
G01X43523Y-14360D03*
G04 Draw part usbres1*
G04 Draw part usbres2*
G04 Draw part usbcap3*
G54D29*
G01X44606Y-15748D03*
G01X44606Y-16417D03*
G04 Draw part usbcap5*
G54D44*
G01X42204Y-12874D03*
G54D45*
G01X43204Y-12874D03*
G04 Draw part usbcap6*
G04 Draw part usbcap11*
G54D50*
G01X7775Y-22125D03*
G01X7775Y-22440D03*
G01X7775Y-22755D03*
G01X7775Y-23070D03*
G01X8444Y-23070D03*
G01X8444Y-22755D03*
G01X8444Y-22440D03*
G01X8444Y-22125D03*
G04 Draw part powcap*
G54D32*
G01X40196Y-10822D03*
G54D33*
G01X40196Y-9842D03*
G04 Draw part reg*
G54D51*
G01X36535Y-7716D03*
G01X37440Y-7716D03*
G01X38346Y-7716D03*
G54D52*
G01X37440Y-5275D03*
G04 Draw part powmf*
G54D53*
G01X41889Y-5669D03*
G01X41389Y-5669D03*
G01X40889Y-5669D03*
G01X40389Y-5669D03*
G01X40389Y-7795D03*
G01X40889Y-7795D03*
G01X41389Y-7795D03*
G01X41889Y-7795D03*
G04 Draw part powcap200*
G54D32*
G01X37480Y-10350D03*
G54D33*
G01X37480Y-9370D03*
G04 Draw part powcap201*
G54D34*
G01X19921Y-4724D03*
G04 Draw part decasp900*
G54D32*
G01X3499Y-38110D03*
G54D33*
G01X2519Y-38110D03*
G04 Draw part meeple*
G54D34*
G01X46377Y-38818D03*
G04 Draw part powvia*
G01X37086Y-15590D03*
G04 Draw part blahvccio*
G04 Draw part dio1*
G54D54*
G01X39921Y-12874D03*
G01X41023Y-12874D03*
G04 Draw part resft1*
G04 Draw part resft2*
G04 Draw part resnet*
G54D55*
G01X35708Y-40255D03*
G01X35393Y-40255D03*
G01X35078Y-40255D03*
G01X34763Y-40255D03*
G01X34763Y-40925D03*
G01X35078Y-40925D03*
G01X35393Y-40925D03*
G01X35708Y-40925D03*
G04 Draw part ledres9000*
G04 Draw part ledres9001*
G04 Draw part ledres9002*
G04 Draw part ledres9003*
G04 Draw part ledres9004*
G54D26*
G01X46732Y-5354D03*
G01X45732Y-5354D03*
G01X44732Y-5354D03*
G01X46732Y-4354D03*
G01X45732Y-4354D03*
G01X44732Y-4354D03*
G04 Draw part ledres9005*

G04 Draw traces*

G04 Draw Text*

G04 Draw solder mask cutouts*
G36*
G01X34389Y-28149D02*
G01X35098Y-28149D01*
G01X35098Y-38307D01*
G01X34389Y-38307D01*
G01X34389Y-28149D01*
G37*
G36*
G01X23602Y-38917D02*
G01X33779Y-38917D01*
G01X33779Y-39645D01*
G01X23602Y-39645D01*
G01X23602Y-38917D01*
G37*
G36*
G01X22263Y-28129D02*
G01X22972Y-28129D01*
G01X22972Y-38287D01*
G01X22972Y-38307D01*
G01X22263Y-38307D01*
G01X22244Y-28129D01*
G01X22263Y-28129D01*
G37*
G36*
G01X23582Y-26811D02*
G01X33740Y-26811D01*
G01X33740Y-27519D01*
G01X23582Y-27519D01*
G01X23582Y-26811D01*
G37*
G36*
G01X255Y-40157D02*
G01X1948Y-40157D01*
G01X1948Y-41692D01*
G01X255Y-41692D01*
G01X255Y-40157D01*
G37*
G36*
G01X649Y-52559D02*
G01X1948Y-52559D01*
G01X1948Y-54133D01*
G01X236Y-54133D01*
G01X236Y-52559D01*
G01X649Y-52559D01*
G37*
G36*
G01X7834Y-17204D02*
G01X8661Y-17204D01*
G01X8877Y-17421D01*
G01X8877Y-19980D01*
G01X7618Y-19980D01*
G01X7618Y-17421D01*
G01X7834Y-17204D01*
G37*
M00*
M02*
