G04 FreePCB version 1.355*
G04 C:\Program Files\FreePCB\projects\EZ80P_V100_large\top_solder_mask.grb*
G04 top solder mask layer *
G04 Scale: 100 percent, Rotated: No, Reflected: No *
%FSLAX24Y24*%
%MOIN*%
%LN top solder mask *%
G04 Rounded Rectangle Macro, params: W/2, H/2, R *
%AMRNDREC*
21,1,$1+$1,$2+$2-$3-$3,0,0,0*
21,1,$1+$1-$3-$3,$2+$2,0,0,0*
1,1,$3+$3,$1-$3,$2-$3*
1,1,$3+$3,$3-$1,$2-$3*
1,1,$3+$3,$1-$3,$3-$2*
1,1,$3+$3,$3-$1,$3-$2*%
G04 Rectangular Thermal Macro, params: W/2, H/2, T/2 *
%AMRECTHERM*
$4=$3/2*
21,1,$1-$3,$2-$3,0-$1/2-$4,0-$2/2-$4,0*
21,1,$1-$3,$2-$3,0-$1/2-$4,$2/2+$4,0*
21,1,$1-$3,$2-$3,$1/2+$4,0-$2/2-$4,0*
21,1,$1-$3,$2-$3,$1/2+$4,$2/2+$4,0*%
%ADD10C,0.007874*%
%ADD11RNDREC,0.035433X0.009843X0.009843*%
%ADD12RNDREC,0.009843X0.035433X0.009843*%
%ADD13R,0.031496X0.047244*%
%ADD14R,0.047244X0.047244*%
%ADD15R,0.017717X0.078740*%
%ADD16R,0.078740X0.017717*%
%ADD17R,0.062874X0.062874*%
%ADD18C,0.062874*%
%ADD19R,0.051181X0.055118*%
%ADD20R,0.070866X0.070866*%
%ADD21C,0.070866*%
%ADD22C,0.204724*%
%ADD23C,0.145669*%
%ADD24C,0.066929*%
%ADD25C,0.153543*%
%ADD26C,0.086614*%
%ADD27R,0.055118X0.051181*%
%ADD28R,0.102362X0.039370*%
%ADD29C,0.196850*%
%ADD30C,0.185039*%
%ADD31R,0.055874X0.047874*%
%ADD32R,0.094488X0.035433*%
%ADD33C,0.072874*%
%ADD34C,0.074803*%
%ADD35C,0.047874*%
%ADD36R,0.125984X0.047244*%
%ADD37C,0.078740*%
%ADD38C,0.087874*%
%ADD39C,0.224409*%
%ADD40C,0.067874*%
%ADD41R,0.066929X0.066929*%
%ADD42C,0.085874*%
%ADD43R,0.077874X0.077874*%
%ADD44C,0.077874*%
%ADD45R,0.066929X0.047244*%
%ADD46R,0.066929X0.035433*%
%ADD47C,0.055118*%
%ADD48C,0.061874*%
%ADD49C,0.164874*%
%ADD50R,0.072874X0.072874*%
%ADD51C,0.047244*%
G90*
G70D02*

G04 Step and Repeat for panelization *

G04 ----------------------- Draw board outline (positive)*
%LPD*%
G54D10*
G01X0Y-58661D02*
G01X50787Y-58661D01*
G04 end of side 1*
G01X50787Y-393D01*
G04 end of side 2*
G01X0Y-393D01*
G04 end of side 3*
G01X0Y-58661D01*

G04 -------------- Draw Parts, Pads, Traces, Vias and Text (positive)*
%LPD*%
G04 Draw part ez80*
G54D11*
G01X15866Y-24330D03*
G01X15866Y-24133D03*
G01X15866Y-23937D03*
G01X15866Y-23740D03*
G01X15866Y-23543D03*
G01X15866Y-23346D03*
G01X15866Y-23149D03*
G01X15866Y-22952D03*
G01X15866Y-22755D03*
G01X15866Y-22559D03*
G01X15866Y-22362D03*
G01X15866Y-22165D03*
G01X15866Y-21968D03*
G01X15866Y-21771D03*
G01X15866Y-21574D03*
G01X15866Y-21377D03*
G01X15866Y-21181D03*
G01X15866Y-20984D03*
G01X15866Y-20787D03*
G01X15866Y-20590D03*
G01X15866Y-20393D03*
G01X15866Y-20196D03*
G01X15866Y-20000D03*
G01X15866Y-19803D03*
G01X15866Y-19606D03*
G54D12*
G01X15078Y-18818D03*
G01X14881Y-18818D03*
G01X14685Y-18818D03*
G01X14488Y-18818D03*
G01X14291Y-18818D03*
G01X14094Y-18818D03*
G01X13897Y-18818D03*
G01X13700Y-18818D03*
G01X13503Y-18818D03*
G01X13307Y-18818D03*
G01X13110Y-18818D03*
G01X12913Y-18818D03*
G01X12716Y-18818D03*
G01X12519Y-18818D03*
G01X12322Y-18818D03*
G01X12125Y-18818D03*
G01X11929Y-18818D03*
G01X11732Y-18818D03*
G01X11535Y-18818D03*
G01X11338Y-18818D03*
G01X11141Y-18818D03*
G01X10944Y-18818D03*
G01X10748Y-18818D03*
G01X10551Y-18818D03*
G01X10354Y-18818D03*
G54D11*
G01X9566Y-19606D03*
G01X9566Y-19803D03*
G01X9566Y-20000D03*
G01X9566Y-20196D03*
G01X9566Y-20393D03*
G01X9566Y-20590D03*
G01X9566Y-20787D03*
G01X9566Y-20984D03*
G01X9566Y-21181D03*
G01X9566Y-21377D03*
G01X9566Y-21574D03*
G01X9566Y-21771D03*
G01X9566Y-21968D03*
G01X9566Y-22165D03*
G01X9566Y-22362D03*
G01X9566Y-22559D03*
G01X9566Y-22755D03*
G01X9566Y-22952D03*
G01X9566Y-23149D03*
G01X9566Y-23346D03*
G01X9566Y-23543D03*
G01X9566Y-23740D03*
G01X9566Y-23937D03*
G01X9566Y-24133D03*
G01X9566Y-24330D03*
G54D12*
G01X10354Y-25118D03*
G01X10551Y-25118D03*
G01X10748Y-25118D03*
G01X10944Y-25118D03*
G01X11141Y-25118D03*
G01X11338Y-25118D03*
G01X11535Y-25118D03*
G01X11732Y-25118D03*
G01X11929Y-25118D03*
G01X12125Y-25118D03*
G01X12322Y-25118D03*
G01X12519Y-25118D03*
G01X12716Y-25118D03*
G01X12913Y-25118D03*
G01X13110Y-25118D03*
G01X13307Y-25118D03*
G01X13503Y-25118D03*
G01X13700Y-25118D03*
G01X13897Y-25118D03*
G01X14094Y-25118D03*
G01X14291Y-25118D03*
G01X14488Y-25118D03*
G01X14685Y-25118D03*
G01X14881Y-25118D03*
G01X15078Y-25118D03*
G04 Draw part sys_ram*
G54D13*
G01X30118Y-18543D03*
G54D14*
G01X29803Y-18543D03*
G01X29488Y-18543D03*
G01X29173Y-18543D03*
G01X28858Y-18543D03*
G01X28543Y-18543D03*
G01X28228Y-18543D03*
G01X27913Y-18543D03*
G01X27598Y-18543D03*
G01X27283Y-18543D03*
G01X26968Y-18543D03*
G01X26653Y-18543D03*
G01X26338Y-18543D03*
G01X26023Y-18543D03*
G01X25708Y-18543D03*
G01X25393Y-18543D03*
G01X25078Y-18543D03*
G01X24763Y-18543D03*
G01X24448Y-18543D03*
G01X24133Y-18543D03*
G01X23818Y-18543D03*
G01X23503Y-18543D03*
G01X23503Y-23188D03*
G01X23818Y-23188D03*
G01X24133Y-23188D03*
G01X24448Y-23188D03*
G01X24763Y-23188D03*
G01X25078Y-23188D03*
G01X25393Y-23188D03*
G01X25708Y-23188D03*
G01X26023Y-23188D03*
G01X26338Y-23188D03*
G01X26653Y-23188D03*
G01X26968Y-23188D03*
G01X27283Y-23188D03*
G01X27598Y-23188D03*
G01X27913Y-23188D03*
G01X28228Y-23188D03*
G01X28543Y-23188D03*
G01X28858Y-23188D03*
G01X29173Y-23188D03*
G01X29488Y-23188D03*
G01X29803Y-23188D03*
G01X30118Y-23188D03*
G04 Draw part spartan3*
G54D15*
G01X33307Y-27755D03*
G01X33110Y-27755D03*
G01X32913Y-27755D03*
G01X32716Y-27755D03*
G01X32519Y-27755D03*
G01X32322Y-27755D03*
G01X32125Y-27755D03*
G01X31929Y-27755D03*
G01X31732Y-27755D03*
G01X31535Y-27755D03*
G01X31338Y-27755D03*
G01X31141Y-27755D03*
G01X30944Y-27755D03*
G01X30748Y-27755D03*
G01X30551Y-27755D03*
G01X30354Y-27755D03*
G01X30157Y-27755D03*
G01X29960Y-27755D03*
G01X29763Y-27755D03*
G01X29566Y-27755D03*
G01X29370Y-27755D03*
G01X29173Y-27755D03*
G01X28976Y-27755D03*
G01X28779Y-27755D03*
G01X28582Y-27755D03*
G01X28385Y-27755D03*
G01X28188Y-27755D03*
G01X27992Y-27755D03*
G01X27795Y-27755D03*
G01X27598Y-27755D03*
G01X27401Y-27755D03*
G01X27204Y-27755D03*
G01X27007Y-27755D03*
G01X26811Y-27755D03*
G01X26614Y-27755D03*
G01X26417Y-27755D03*
G01X26220Y-27755D03*
G01X26023Y-27755D03*
G01X25826Y-27755D03*
G01X25629Y-27755D03*
G01X25433Y-27755D03*
G01X25236Y-27755D03*
G01X25039Y-27755D03*
G01X24842Y-27755D03*
G01X24645Y-27755D03*
G01X24448Y-27755D03*
G01X24251Y-27755D03*
G01X24055Y-27755D03*
G01X23858Y-27755D03*
G01X23661Y-27755D03*
G01X23464Y-27755D03*
G01X23267Y-27755D03*
G54D16*
G01X22224Y-28799D03*
G01X22224Y-28996D03*
G01X22224Y-29192D03*
G01X22224Y-29389D03*
G01X22224Y-29586D03*
G01X22224Y-29783D03*
G01X22224Y-29980D03*
G01X22224Y-30177D03*
G01X22224Y-30374D03*
G01X22224Y-30570D03*
G01X22224Y-30767D03*
G01X22224Y-30964D03*
G01X22224Y-31161D03*
G01X22224Y-31358D03*
G01X22224Y-31555D03*
G01X22224Y-31751D03*
G01X22224Y-31948D03*
G01X22224Y-32145D03*
G01X22224Y-32342D03*
G01X22224Y-32539D03*
G01X22224Y-32736D03*
G01X22224Y-32933D03*
G01X22224Y-33129D03*
G01X22224Y-33326D03*
G01X22224Y-33523D03*
G01X22224Y-33720D03*
G01X22224Y-33917D03*
G01X22224Y-34114D03*
G01X22224Y-34311D03*
G01X22224Y-34507D03*
G01X22224Y-34704D03*
G01X22224Y-34901D03*
G01X22224Y-35098D03*
G01X22224Y-35295D03*
G01X22224Y-35492D03*
G01X22224Y-35688D03*
G01X22224Y-35885D03*
G01X22224Y-36082D03*
G01X22224Y-36279D03*
G01X22224Y-36476D03*
G01X22224Y-36673D03*
G01X22224Y-36870D03*
G01X22224Y-37066D03*
G01X22224Y-37263D03*
G01X22224Y-37460D03*
G01X22224Y-37657D03*
G01X22224Y-37854D03*
G01X22224Y-38051D03*
G01X22224Y-38248D03*
G01X22224Y-38444D03*
G01X22224Y-38641D03*
G01X22224Y-38838D03*
G54D15*
G01X23267Y-39881D03*
G01X23464Y-39881D03*
G01X23661Y-39881D03*
G01X23858Y-39881D03*
G01X24055Y-39881D03*
G01X24251Y-39881D03*
G01X24448Y-39881D03*
G01X24645Y-39881D03*
G01X24842Y-39881D03*
G01X25039Y-39881D03*
G01X25236Y-39881D03*
G01X25433Y-39881D03*
G01X25629Y-39881D03*
G01X25826Y-39881D03*
G01X26023Y-39881D03*
G01X26220Y-39881D03*
G01X26417Y-39881D03*
G01X26614Y-39881D03*
G01X26811Y-39881D03*
G01X27007Y-39881D03*
G01X27204Y-39881D03*
G01X27401Y-39881D03*
G01X27598Y-39881D03*
G01X27795Y-39881D03*
G01X27992Y-39881D03*
G01X28188Y-39881D03*
G01X28385Y-39881D03*
G01X28582Y-39881D03*
G01X28779Y-39881D03*
G01X28976Y-39881D03*
G01X29173Y-39881D03*
G01X29370Y-39881D03*
G01X29566Y-39881D03*
G01X29763Y-39881D03*
G01X29960Y-39881D03*
G01X30157Y-39881D03*
G01X30354Y-39881D03*
G01X30551Y-39881D03*
G01X30748Y-39881D03*
G01X30944Y-39881D03*
G01X31141Y-39881D03*
G01X31338Y-39881D03*
G01X31535Y-39881D03*
G01X31732Y-39881D03*
G01X31929Y-39881D03*
G01X32125Y-39881D03*
G01X32322Y-39881D03*
G01X32519Y-39881D03*
G01X32716Y-39881D03*
G01X32913Y-39881D03*
G01X33110Y-39881D03*
G01X33307Y-39881D03*
G54D16*
G01X34350Y-38838D03*
G01X34350Y-38641D03*
G01X34350Y-38444D03*
G01X34350Y-38248D03*
G01X34350Y-38051D03*
G01X34350Y-37854D03*
G01X34350Y-37657D03*
G01X34350Y-37460D03*
G01X34350Y-37263D03*
G01X34350Y-37066D03*
G01X34350Y-36870D03*
G01X34350Y-36673D03*
G01X34350Y-36476D03*
G01X34350Y-36279D03*
G01X34350Y-36082D03*
G01X34350Y-35885D03*
G01X34350Y-35688D03*
G01X34350Y-35492D03*
G01X34350Y-35295D03*
G01X34350Y-35098D03*
G01X34350Y-34901D03*
G01X34350Y-34704D03*
G01X34350Y-34507D03*
G01X34350Y-34311D03*
G01X34350Y-34114D03*
G01X34350Y-33917D03*
G01X34350Y-33720D03*
G01X34350Y-33523D03*
G01X34350Y-33326D03*
G01X34350Y-33129D03*
G01X34350Y-32933D03*
G01X34350Y-32736D03*
G01X34350Y-32539D03*
G01X34350Y-32342D03*
G01X34350Y-32145D03*
G01X34350Y-31948D03*
G01X34350Y-31751D03*
G01X34350Y-31555D03*
G01X34350Y-31358D03*
G01X34350Y-31161D03*
G01X34350Y-30964D03*
G01X34350Y-30767D03*
G01X34350Y-30570D03*
G01X34350Y-30374D03*
G01X34350Y-30177D03*
G01X34350Y-29980D03*
G01X34350Y-29783D03*
G01X34350Y-29586D03*
G01X34350Y-29389D03*
G01X34350Y-29192D03*
G01X34350Y-28996D03*
G01X34350Y-28799D03*
G04 Draw part pic*
G54D17*
G01X11141Y-38188D03*
G54D18*
G01X11141Y-37188D03*
G01X11141Y-36188D03*
G01X11141Y-35188D03*
G01X11141Y-34188D03*
G01X11141Y-33188D03*
G01X11141Y-32188D03*
G01X11141Y-31188D03*
G01X11141Y-30188D03*
G01X8141Y-30188D03*
G01X8141Y-31188D03*
G01X8141Y-32188D03*
G01X8141Y-33188D03*
G01X8141Y-34188D03*
G01X8141Y-35188D03*
G01X8141Y-36188D03*
G01X8141Y-37188D03*
G01X8141Y-38188D03*
G04 Draw part vram*
G54D13*
G01X20472Y-38425D03*
G54D14*
G01X20157Y-38425D03*
G01X19842Y-38425D03*
G01X19527Y-38425D03*
G01X19212Y-38425D03*
G01X18897Y-38425D03*
G01X18582Y-38425D03*
G01X18267Y-38425D03*
G01X17952Y-38425D03*
G01X17637Y-38425D03*
G01X17322Y-38425D03*
G01X17007Y-38425D03*
G01X16692Y-38425D03*
G01X16377Y-38425D03*
G01X16062Y-38425D03*
G01X15748Y-38425D03*
G01X15433Y-38425D03*
G01X15118Y-38425D03*
G01X14803Y-38425D03*
G01X14488Y-38425D03*
G01X14173Y-38425D03*
G01X13858Y-38425D03*
G01X13858Y-43070D03*
G01X14173Y-43070D03*
G01X14488Y-43070D03*
G01X14803Y-43070D03*
G01X15118Y-43070D03*
G01X15433Y-43070D03*
G01X15748Y-43070D03*
G01X16062Y-43070D03*
G01X16377Y-43070D03*
G01X16692Y-43070D03*
G01X17007Y-43070D03*
G01X17322Y-43070D03*
G01X17637Y-43070D03*
G01X17952Y-43070D03*
G01X18267Y-43070D03*
G01X18582Y-43070D03*
G01X18897Y-43070D03*
G01X19212Y-43070D03*
G01X19527Y-43070D03*
G01X19842Y-43070D03*
G01X20157Y-43070D03*
G01X20472Y-43070D03*
G04 Draw part bypcap1*
G04 Draw part bypcap2*
G54D19*
G01X17519Y-43976D03*
G01X16850Y-43976D03*
G04 Draw part vidcon*
G54D20*
G01X46968Y-45354D03*
G54D21*
G01X46968Y-46259D03*
G01X46968Y-47165D03*
G01X46968Y-48070D03*
G01X46968Y-48976D03*
G01X45944Y-44921D03*
G01X45944Y-45787D03*
G01X45944Y-46732D03*
G01X45944Y-47637D03*
G01X45944Y-48543D03*
G01X44960Y-45354D03*
G01X44960Y-46259D03*
G01X44960Y-47165D03*
G01X44960Y-48070D03*
G01X44960Y-48976D03*
G54D22*
G01X45984Y-52047D03*
G01X45905Y-42283D03*
G04 Draw part joy1*
G54D20*
G01X4566Y-18779D03*
G54D21*
G01X4566Y-19869D03*
G01X4566Y-20959D03*
G01X4566Y-22049D03*
G01X4566Y-23139D03*
G01X3446Y-19319D03*
G01X3446Y-20409D03*
G01X3446Y-21499D03*
G01X3446Y-22589D03*
G54D22*
G01X4055Y-25866D03*
G01X4055Y-16023D03*
G04 Draw part joy2*
G54D20*
G01X4566Y-31889D03*
G54D21*
G01X4566Y-32979D03*
G01X4566Y-34069D03*
G01X4566Y-35159D03*
G01X4566Y-36249D03*
G01X3446Y-32429D03*
G01X3446Y-33519D03*
G01X3446Y-34609D03*
G01X3446Y-35699D03*
G54D22*
G01X4055Y-38976D03*
G01X4055Y-29133D03*
G04 Draw part keyb*
G54D23*
G01X48188Y-31712D03*
G01X48188Y-26397D03*
G54D24*
G01X47007Y-29606D03*
G01X47007Y-28503D03*
G01X47007Y-27775D03*
G01X47007Y-30334D03*
G54D25*
G01X48484Y-29055D03*
G54D26*
G01X46023Y-30334D03*
G01X46023Y-27775D03*
G04 Draw part mouse*
G54D23*
G01X48188Y-24665D03*
G01X48188Y-19350D03*
G54D24*
G01X47007Y-22559D03*
G01X47007Y-21456D03*
G01X47007Y-20728D03*
G01X47007Y-23287D03*
G54D25*
G01X48484Y-22007D03*
G54D26*
G01X46023Y-23287D03*
G01X46023Y-20728D03*
G04 Draw part comport*
G54D23*
G01X48188Y-17342D03*
G01X48188Y-12027D03*
G54D24*
G01X47007Y-15236D03*
G01X47007Y-14133D03*
G01X47007Y-13405D03*
G01X47007Y-15984D03*
G54D25*
G01X48484Y-14685D03*
G54D24*
G01X46023Y-15984D03*
G01X46023Y-13385D03*
G01X46023Y-14960D03*
G01X46023Y-14173D03*
G04 Draw part rscap1*
G54D19*
G01X42519Y-16023D03*
G01X41850Y-16023D03*
G04 Draw part rscap2*
G54D27*
G01X44448Y-16220D03*
G01X44448Y-15551D03*
G04 Draw part rscap3*
G01X44488Y-14645D03*
G01X44488Y-13976D03*
G04 Draw part rscap4*
G01X44448Y-13031D03*
G01X44448Y-12362D03*
G04 Draw part rscap5*
G01X40157Y-15314D03*
G01X40157Y-14645D03*
G04 Draw part rs232*
G54D28*
G01X43110Y-15157D03*
G01X43110Y-14657D03*
G01X43110Y-14157D03*
G01X43110Y-13657D03*
G01X43110Y-13157D03*
G01X43110Y-12657D03*
G01X43110Y-12157D03*
G01X43110Y-11657D03*
G01X41141Y-11657D03*
G01X41141Y-12157D03*
G01X41141Y-12657D03*
G01X41141Y-13157D03*
G01X41141Y-13657D03*
G01X41141Y-14157D03*
G01X41141Y-14657D03*
G01X41141Y-15157D03*
G04 Draw part dc_in*
G54D29*
G01X44960Y-8582D03*
G54D30*
G01X47677Y-8582D03*
G54D23*
G01X46102Y-6732D03*
G04 Draw part ps1res1*
G54D27*
G01X41614Y-30590D03*
G01X41614Y-31259D03*
G04 Draw part ps1res2*
G01X41614Y-28818D03*
G01X41614Y-29488D03*
G04 Draw part ps1res3*
G01X41692Y-26968D03*
G01X41692Y-27637D03*
G04 Draw part ps1res4*
G01X41653Y-25236D03*
G01X41653Y-25905D03*
G04 Draw part ps1res8*
G04 Draw part ps1res12*
G04 Draw part ps1res15*
G04 Draw part ps1res16*
G04 Draw part ps1res17*
G54D31*
G01X43503Y-30984D03*
G01X42603Y-30584D03*
G01X42603Y-31384D03*
G04 Draw part ps1res18*
G01X43503Y-29133D03*
G01X42603Y-28733D03*
G01X42603Y-29533D03*
G04 Draw part ps1res19*
G01X43543Y-27322D03*
G01X42643Y-26922D03*
G01X42643Y-27722D03*
G04 Draw part ps1res20*
G01X43543Y-25629D03*
G01X42643Y-25229D03*
G01X42643Y-26029D03*
G04 Draw part ps2buf*
G54D32*
G01X43779Y-23267D03*
G01X43779Y-22767D03*
G01X43779Y-22267D03*
G01X43779Y-21767D03*
G01X43779Y-21267D03*
G01X43779Y-20767D03*
G01X43779Y-20267D03*
G01X41653Y-20267D03*
G01X41653Y-20767D03*
G01X41653Y-21267D03*
G01X41653Y-21767D03*
G01X41653Y-22267D03*
G01X41653Y-22767D03*
G01X41653Y-23267D03*
G04 Draw part decap1*
G04 Draw part decap2*
G04 Draw part decap3*
G54D33*
G01X44405Y-39448D03*
G54D34*
G01X43425Y-39448D03*
G04 Draw part decap4*
G54D33*
G01X44917Y-33425D03*
G54D34*
G01X43937Y-33425D03*
G04 Draw part decap5*
G54D27*
G01X44881Y-37637D03*
G01X44881Y-36968D03*
G04 Draw part decap6*
G01X44881Y-35157D03*
G01X44881Y-35826D03*
G04 Draw part decap7*
G54D19*
G01X44055Y-35984D03*
G01X43385Y-35984D03*
G04 Draw part decap8*
G01X44055Y-36811D03*
G01X43385Y-36811D03*
G04 Draw part decap9*
G01X42598Y-37637D03*
G01X41929Y-37637D03*
G04 Draw part decap10*
G01X44055Y-35157D03*
G01X43385Y-35157D03*
G04 Draw part decap11*
G01X42598Y-35157D03*
G01X41929Y-35157D03*
G04 Draw part decap12*
G01X44055Y-37637D03*
G01X43385Y-37637D03*
G04 Draw part decap13*
G54D27*
G01X42598Y-36732D03*
G01X42598Y-36062D03*
G04 Draw part dac1*
G54D19*
G01X40118Y-45000D03*
G01X40787Y-45000D03*
G04 Draw part dac2*
G01X41771Y-45433D03*
G01X42440Y-45433D03*
G04 Draw part dac3*
G01X40118Y-45905D03*
G01X40787Y-45905D03*
G04 Draw part dac4*
G01X41771Y-46338D03*
G01X42440Y-46338D03*
G04 Draw part dac5*
G01X40118Y-46968D03*
G01X40787Y-46968D03*
G04 Draw part dac6*
G01X41811Y-47362D03*
G01X42480Y-47362D03*
G04 Draw part dac7*
G01X40118Y-47834D03*
G01X40787Y-47834D03*
G04 Draw part dac8*
G01X41811Y-48228D03*
G01X42480Y-48228D03*
G04 Draw part dac9*
G01X40078Y-48858D03*
G01X40748Y-48858D03*
G04 Draw part dac10*
G01X41771Y-49251D03*
G01X42440Y-49251D03*
G04 Draw part dac11*
G01X40078Y-49724D03*
G01X40748Y-49724D03*
G04 Draw part dac12*
G01X41771Y-50118D03*
G01X42440Y-50118D03*
G04 Draw part syncres2*
G01X41771Y-51220D03*
G01X42440Y-51220D03*
G04 Draw part sdres1*
G04 Draw part sdres2*
G04 Draw part sdres3*
G04 Draw part sdres4*
G04 Draw part sdres5*
G04 Draw part sdres6*
G04 Draw part sdres8*
G04 Draw part sdt*
G04 Draw part sdpowt*
G04 Draw part powres*
G04 Draw part jtag*
G54D21*
G01X35275Y-47440D03*
G01X35275Y-46440D03*
G01X35275Y-45440D03*
G01X35275Y-44440D03*
G01X35275Y-43440D03*
G01X35275Y-42440D03*
G04 Draw part jtres1*
G54D27*
G01X34448Y-40669D03*
G01X34448Y-41338D03*
G04 Draw part jtres2*
G01X36338Y-42755D03*
G01X36338Y-43425D03*
G04 Draw part jtres3*
G01X35236Y-40669D03*
G01X35236Y-41338D03*
G04 Draw part jtres4*
G01X36299Y-44763D03*
G01X36299Y-45433D03*
G04 Draw part sdpullhi*
G04 Draw part diode5*
G54D33*
G01X7716Y-13814D03*
G54D34*
G01X7716Y-12834D03*
G04 Draw part reg63v3*
G04 Draw part reg62v5*
G04 Draw part reg61v2*
G04 Draw part decap44*
G54D19*
G01X41102Y-24015D03*
G01X41771Y-24015D03*
G04 Draw part fpgacap1*
G04 Draw part fpgacap2*
G04 Draw part fpgacap3*
G04 Draw part fpgacap4*
G04 Draw part fpgacap7*
G04 Draw part fpgacap8*
G04 Draw part fpgacap9*
G04 Draw part fpgacap10*
G04 Draw part fpgacap11*
G04 Draw part fpgacap12*
G04 Draw part fpgacap13*
G04 Draw part via50*
G54D35*
G01X28228Y-30708D03*
G04 Draw part via51*
G01X28740Y-30708D03*
G04 Draw part via52*
G01X28228Y-36850D03*
G04 Draw part via53*
G01X28740Y-36850D03*
G04 Draw part fpgadecap50*
G04 Draw part fpgadecap51*
G04 Draw part fpgadecap52*
G04 Draw part fpgadecap53*
G04 Draw part fpgadecap54*
G04 Draw part fpgadecap55*
G04 Draw part fpgadecap56*
G04 Draw part fpgadecap57*
G04 Draw part fpgadecap58*
G04 Draw part fpgadecap59*
G04 Draw part fpgadecap60*
G04 Draw part fpgadecap63*
G04 Draw part fpgadecap64*
G04 Draw part fpgadecap67*
G04 Draw part fpgadecap68*
G04 Draw part alt_sdc*
G54D36*
G01X7086Y-47755D03*
G01X7086Y-46771D03*
G01X7086Y-45748D03*
G01X7086Y-44763D03*
G01X7086Y-48740D03*
G01X7086Y-49763D03*
G01X7086Y-50708D03*
G01X7086Y-44133D03*
G01X7086Y-43425D03*
G01X7086Y-42755D03*
G01X7086Y-51653D03*
G01X7086Y-52362D03*
G01X7086Y-52913D03*
G54D34*
G01X5905Y-42755D03*
G01X5905Y-52677D03*
G04 Draw part led2*
G54D37*
G01X3661Y-41732D03*
G01X3661Y-40732D03*
G04 Draw part batt*
G01X7165Y-16929D03*
G01X6165Y-16929D03*
G04 Draw part tant4*
G04 Draw part tant5*
G04 Draw part tant7*
G04 Draw part decap100*
G54D33*
G01X37130Y-34645D03*
G01X38110Y-34645D03*
G04 Draw part v5reg*
G54D38*
G01X14370Y-10645D03*
G01X14370Y-9645D03*
G01X14370Y-8645D03*
G54D39*
G01X7677Y-9645D03*
G04 Draw part vres1*
G04 Draw part vres2*
G04 Draw part vres3*
G04 Draw part srcap1*
G54D19*
G01X26456Y-23937D03*
G01X27125Y-23937D03*
G04 Draw part srcap2*
G01X27165Y-17795D03*
G01X26496Y-17795D03*
G04 Draw part rtcxtal*
G54D40*
G01X7913Y-20000D03*
G01X7913Y-20800D03*
G04 Draw part rtxres*
G54D19*
G01X7795Y-21811D03*
G01X8464Y-21811D03*
G04 Draw part rtccap1*
G04 Draw part rtccap2*
G04 Draw part clock*
G54D41*
G01X13803Y-36330D03*
G54D40*
G01X16803Y-36330D03*
G01X16803Y-33330D03*
G01X13803Y-33330D03*
G04 Draw part lres1*
G04 Draw part lres2*
G04 Draw part xtal*
G54D33*
G01X8464Y-40196D03*
G01X10464Y-40196D03*
G04 Draw part xcap1*
G04 Draw part xcap2*
G04 Draw part eprres*
G04 Draw part vram2*
G54D13*
G01X30196Y-43661D03*
G54D14*
G01X29881Y-43661D03*
G01X29566Y-43661D03*
G01X29251Y-43661D03*
G01X28937Y-43661D03*
G01X28622Y-43661D03*
G01X28307Y-43661D03*
G01X27992Y-43661D03*
G01X27677Y-43661D03*
G01X27362Y-43661D03*
G01X27047Y-43661D03*
G01X26732Y-43661D03*
G01X26417Y-43661D03*
G01X26102Y-43661D03*
G01X25787Y-43661D03*
G01X25472Y-43661D03*
G01X25157Y-43661D03*
G01X24842Y-43661D03*
G01X24527Y-43661D03*
G01X24212Y-43661D03*
G01X23897Y-43661D03*
G01X23582Y-43661D03*
G01X23582Y-48307D03*
G01X23897Y-48307D03*
G01X24212Y-48307D03*
G01X24527Y-48307D03*
G01X24842Y-48307D03*
G01X25157Y-48307D03*
G01X25472Y-48307D03*
G01X25787Y-48307D03*
G01X26102Y-48307D03*
G01X26417Y-48307D03*
G01X26732Y-48307D03*
G01X27047Y-48307D03*
G01X27362Y-48307D03*
G01X27677Y-48307D03*
G01X27992Y-48307D03*
G01X28307Y-48307D03*
G01X28622Y-48307D03*
G01X28937Y-48307D03*
G01X29251Y-48307D03*
G01X29566Y-48307D03*
G01X29881Y-48307D03*
G01X30196Y-48307D03*
G04 Draw part vrdec2*
G04 Draw part vrdec3*
G04 Draw part prodiode1*
G04 Draw part prodiode2*
G04 Draw part prodiode3*
G04 Draw part prodiode4*
G04 Draw part prodiode5*
G04 Draw part prodiode6*
G54D19*
G01X41771Y-44291D03*
G01X42440Y-44291D03*
G04 Draw part prodiode7*
G54D26*
G01X46960Y-39204D03*
G54D42*
G01X46960Y-35284D03*
G01X46960Y-38224D03*
G01X46960Y-36264D03*
G54D34*
G01X48930Y-39204D03*
G01X48968Y-35312D03*
G54D42*
G01X48930Y-37244D03*
G54D34*
G01X49968Y-39212D03*
G01X49968Y-35312D03*
G04 Draw part man_reset*
G54D43*
G01X9645Y-28149D03*
G54D44*
G01X8645Y-28149D03*
G04 Draw part respulup*
G54D27*
G01X9606Y-33543D03*
G01X9606Y-34212D03*
G04 Draw part vga*
G54D43*
G01X18897Y-31574D03*
G54D44*
G01X19897Y-31574D03*
G04 Draw part nmijp*
G54D43*
G01X36299Y-41141D03*
G54D44*
G01X36299Y-40141D03*
G04 Draw part epr1*
G04 Draw part epr2*
G04 Draw part eprdec*
G04 Draw part sd3m*
G54D45*
G01X12401Y-50118D03*
G01X12401Y-49133D03*
G01X12401Y-48149D03*
G01X12401Y-47165D03*
G01X12401Y-46181D03*
G01X12401Y-45196D03*
G01X12401Y-51102D03*
G01X12401Y-43582D03*
G01X12401Y-44251D03*
G54D46*
G01X12401Y-43070D03*
G01X12401Y-42598D03*
G54D47*
G01X11299Y-51102D03*
G01X11299Y-42834D03*
G04 Draw part oscdec*
G04 Draw part donepullup*
G54D27*
G01X9606Y-36614D03*
G01X9606Y-37283D03*
G04 Draw part initpullup*
G01X9606Y-35039D03*
G01X9606Y-35708D03*
G04 Draw part picdec*
G04 Draw part ezcap1*
G04 Draw part ezcap2*
G04 Draw part ezcap3*
G04 Draw part ezcap4*
G04 Draw part ezcap5*
G04 Draw part ezcap6*
G04 Draw part ezcap7*
G04 Draw part ezcap8*
G04 Draw part vrdec1*
G54D33*
G01X36697Y-30236D03*
G01X37677Y-30236D03*
G04 Draw part vrdec4*
G01X41811Y-33696D03*
G01X41811Y-32716D03*
G04 Draw part frres*
G04 Draw part powvia1*
G54D35*
G01X34370Y-27637D03*
G04 Draw part powcap2*
G54D33*
G01X38066Y-25236D03*
G01X37086Y-25236D03*
G04 Draw part powcap3*
G54D35*
G01X34370Y-27125D03*
G04 Draw part vccdec*
G54D33*
G01X38105Y-19842D03*
G01X37125Y-19842D03*
G04 Draw part myvia2*
G54D35*
G01X36850Y-15551D03*
G04 Draw part myvia3*
G01X37480Y-15551D03*
G04 Draw part myvia4*
G01X36850Y-11732D03*
G04 Draw part myvia5*
G01X37480Y-11732D03*
G04 Draw part myvia6*
G54D38*
G01X1889Y-7283D03*
G01X2889Y-7283D03*
G01X3889Y-7283D03*
G01X1889Y-8283D03*
G01X2889Y-8283D03*
G01X3889Y-8283D03*
G01X1889Y-9283D03*
G01X2889Y-9283D03*
G01X3889Y-9283D03*
G04 Draw part cpupowvia1*
G54D35*
G01X16417Y-19015D03*
G04 Draw part cpupowvia2*
G01X17125Y-19015D03*
G04 Draw part cpupowvia3*
G01X16377Y-11653D03*
G04 Draw part cpupowvia4*
G01X17086Y-11653D03*
G04 Draw part jres1*
G04 Draw part jres2*
G04 Draw part jres3*
G04 Draw part jres4*
G04 Draw part jres5*
G04 Draw part jres6*
G04 Draw part jres7*
G04 Draw part jres8*
G04 Draw part jres9*
G04 Draw part jres10*
G04 Draw part jres11*
G04 Draw part jres12*
G04 Draw part jres13*
G04 Draw part jres14*
G04 Draw part sdpowreg*
G04 Draw part scdecapv*
G54D33*
G01X15586Y-46929D03*
G01X14606Y-46929D03*
G04 Draw part scdecap2*
G01X15546Y-52283D03*
G01X14566Y-52283D03*
G04 Draw part scdecap3*
G54D35*
G01X14370Y-54055D03*
G04 Draw part scdecap4*
G01X13740Y-54055D03*
G04 Draw part scdecap5*
G04 Draw part batt2*
G54D43*
G01X6181Y-15590D03*
G54D44*
G01X7181Y-15590D03*
G01X8181Y-15590D03*
G04 Draw part progpullup*
G04 Draw part 5vregdecout*
G54D33*
G01X16259Y-10783D03*
G01X16259Y-9803D03*
G04 Draw part cclkserres*
G04 Draw part doneserres*
G04 Draw part progbres*
G04 Draw part buscon*
G54D48*
G01X19921Y-11574D03*
G01X20711Y-11574D03*
G01X19921Y-12362D03*
G01X20708Y-12362D03*
G01X19921Y-13149D03*
G01X20708Y-13149D03*
G01X19921Y-13937D03*
G01X20708Y-13937D03*
G01X19921Y-14724D03*
G01X20708Y-14724D03*
G01X19921Y-15511D03*
G01X20708Y-15511D03*
G01X19921Y-16299D03*
G01X20708Y-16299D03*
G01X19921Y-17086D03*
G01X20708Y-17086D03*
G01X19921Y-17874D03*
G01X20708Y-17874D03*
G01X19921Y-18661D03*
G01X20708Y-18661D03*
G01X19921Y-19448D03*
G01X20708Y-19448D03*
G01X19921Y-20236D03*
G01X20708Y-20236D03*
G01X19921Y-21023D03*
G01X20708Y-21023D03*
G01X19921Y-21811D03*
G01X20708Y-21811D03*
G01X19921Y-22598D03*
G01X20708Y-22598D03*
G01X19921Y-23385D03*
G01X20708Y-23385D03*
G01X19921Y-24173D03*
G01X20708Y-24173D03*
G01X19921Y-24960D03*
G01X20708Y-24960D03*
G01X19921Y-25748D03*
G01X20708Y-25748D03*
G01X19921Y-26535D03*
G01X20708Y-26535D03*
G04 Draw part vdio1*
G54D37*
G01X42992Y-7598D03*
G01X42992Y-8598D03*
G04 Draw part vdio2*
G01X41614Y-7598D03*
G01X41614Y-8598D03*
G04 Draw part justavia*
G54D35*
G01X22244Y-27559D03*
G04 Draw part led1*
G54D37*
G01X2598Y-13188D03*
G01X2598Y-12188D03*
G04 Draw part led3*
G01X4645Y-13228D03*
G01X4645Y-12228D03*
G04 Draw part hole1*
G54D49*
G01X45078Y-1968D03*
G04 Draw part hole2*
G01X45078Y-57086D03*
G04 Draw part hole3*
G01X5708Y-57086D03*
G04 Draw part doutpulldown*
G04 Draw part tricolled*
G54D44*
G01X3622Y-11574D03*
G01X3622Y-12574D03*
G01X3622Y-13574D03*
G04 Draw part auxheader*
G54D48*
G01X17559Y-27559D03*
G01X17559Y-28346D03*
G01X16771Y-27559D03*
G01X16771Y-28346D03*
G01X15984Y-27559D03*
G01X15984Y-28346D03*
G01X15196Y-27559D03*
G01X15196Y-28346D03*
G01X14409Y-27559D03*
G01X14409Y-28346D03*
G01X13622Y-27559D03*
G01X13622Y-28346D03*
G01X12834Y-27559D03*
G01X12834Y-28346D03*
G01X12047Y-27559D03*
G01X12047Y-28346D03*
G04 Draw part alt_conx2*
G54D50*
G01X22755Y-51102D03*
G54D33*
G01X22755Y-50102D03*
G01X23755Y-51102D03*
G01X23755Y-50102D03*
G01X24755Y-51102D03*
G01X24755Y-50102D03*
G01X25755Y-51102D03*
G01X25755Y-50102D03*
G01X26755Y-51102D03*
G01X26755Y-50102D03*
G01X27755Y-51102D03*
G01X27755Y-50102D03*
G01X28755Y-51102D03*
G01X28755Y-50102D03*
G01X29755Y-51102D03*
G01X29755Y-50102D03*
G01X30755Y-51102D03*
G01X30755Y-50102D03*
G01X31755Y-51102D03*
G01X31755Y-50102D03*
G04 Draw part alt_conx3*
G54D50*
G01X18779Y-44094D03*
G54D33*
G01X19779Y-44094D03*
G01X18779Y-45094D03*
G01X19779Y-45094D03*
G01X18779Y-46094D03*
G01X19779Y-46094D03*
G01X18779Y-47094D03*
G01X19779Y-47094D03*
G01X18779Y-48094D03*
G01X19779Y-48094D03*
G01X18779Y-49094D03*
G01X19779Y-49094D03*
G01X18779Y-50094D03*
G01X19779Y-50094D03*
G01X18779Y-51094D03*
G01X19779Y-51094D03*
G04 Draw part testp1*
G54D51*
G01X14488Y-17992D03*
G04 Draw part testp3*
G01X14015Y-18188D03*
G04 Draw part testp4*
G01X12519Y-26811D03*
G04 Draw part hole9*
G54D49*
G01X5708Y-1968D03*

G04 Draw traces*

G04 Draw Text*

G04 Draw solder mask cutouts*
G36*
G01X255Y-53149D02*
G01X1948Y-53149D01*
G01X1948Y-54724D01*
G01X236Y-54724D01*
G01X236Y-53149D01*
G01X255Y-53149D01*
G37*
G36*
G01X255Y-40688D02*
G01X1948Y-40688D01*
G01X1948Y-42283D01*
G01X255Y-42283D01*
G01X255Y-40688D01*
G37*
G36*
G01X23188Y-27401D02*
G01X33366Y-27401D01*
G01X33346Y-28110D01*
G01X23188Y-28110D01*
G01X23188Y-27401D01*
G37*
G36*
G01X21870Y-28720D02*
G01X22578Y-28720D01*
G01X22578Y-38877D01*
G01X22578Y-38897D01*
G01X21870Y-38897D01*
G01X21850Y-28720D01*
G01X21870Y-28720D01*
G37*
G36*
G01X23208Y-39507D02*
G01X33385Y-39507D01*
G01X33385Y-40236D01*
G01X23208Y-40236D01*
G01X23208Y-39507D01*
G37*
G36*
G01X33996Y-28740D02*
G01X34704Y-28740D01*
G01X34704Y-38897D01*
G01X33996Y-38897D01*
G01X33996Y-28740D01*
G37*
M00*
M02*
