;Holesize 1 =   28.0 PLATED MILS
;Holesize 2 =   31.0 PLATED MILS
;Holesize 3 =  118.0 PLATED MILS
;Holesize 4 =   78.0 PLATED MILS
;Holesize 5 =   98.0 PLATED MILS
;Holesize 6 =   35.0 PLATED MILS
;Holesize 7 =   27.0 PLATED MILS
;Holesize 8 =   16.0 PLATED MILS
;Holesize 9 =   25.0 PLATED MILS
;Holesize 10 =   23.0 PLATED MILS
;Holesize 11 =   17.0 PLATED MILS
;Holesize 12 =   51.0 PLATED MILS
;Holesize 13 =   66.0 PLATED MILS
;Holesize 14 =   59.0 PLATED MILS
;Holesize 15 =  130.0 PLATED MILS
;Holesize 16 =   40.0 PLATED MILS
;Holesize 17 =   39.0 PLATED MILS
;Holesize 18 =   47.0 PLATED MILS
;Holesize 19 =   94.0 PLATED MILS
M48
INCH,00.0000
T01C0.028
T02C0.031
T03C0.118
T04C0.078
T05C0.098
T06C0.035
T07C0.027
T08C0.016
T09C0.025
T10C0.023
T11C0.017
T12C0.051
T13C0.066
T14C0.059
T15C0.130
T16C0.040
T17C0.039
T18C0.047
T19C0.094
%
G05
G90
T01
X011535Y-038149
X011535Y-037149
X011535Y-036149
X011535Y-035149
X011535Y-034149
X011535Y-033149
X011535Y-032149
X011535Y-031149
X011535Y-030149
X008535Y-030149
X008535Y-031149
X008535Y-032149
X008535Y-033149
X008535Y-034149
X008535Y-035149
X008535Y-036149
X008535Y-037149
X008535Y-038149
X044050Y-040984
X044090Y-035118
X037523Y-034055
X038503Y-034055
X037090Y-029645
X038070Y-029645
X042204Y-033105
X042204Y-032125
X038460Y-024645
X037480Y-024645
X038499Y-019251
X037519Y-019251
X015980Y-046338
X015000Y-046338
X015940Y-051692
X014960Y-051692
X043893Y-008700
X040196Y-010822
X036500Y-009370
X003499Y-038110
T02
X047559Y-046614
X047559Y-047519
X047559Y-048425
X047559Y-049330
X047559Y-050236
X046535Y-046181
X046535Y-047047
X046535Y-047992
X046535Y-048897
X046535Y-049803
X045551Y-046614
X045551Y-047519
X045551Y-048425
X045551Y-049330
X045551Y-050236
X004566Y-009685
X004566Y-010775
X004566Y-011865
X004566Y-012955
X004566Y-014045
X003446Y-010225
X003446Y-011315
X003446Y-012405
X003446Y-013495
X004566Y-022913
X004566Y-024003
X004566Y-025093
X004566Y-026183
X004566Y-027273
X003446Y-023453
X003446Y-024543
X003446Y-025633
X003446Y-026723
X047598Y-032559
X047598Y-031456
X047598Y-030728
X047598Y-033287
X047598Y-025157
X047598Y-024055
X047598Y-023326
X047598Y-025885
X046732Y-005354
X045732Y-005354
X044732Y-005354
X046732Y-004354
X045732Y-004354
X044732Y-004354
T03
X046574Y-053307
X046496Y-043543
X004055Y-016771
X004055Y-006929
X004055Y-030000
X004055Y-020157
X045393Y-009803
T04
X048779Y-034665
X048779Y-029350
X048779Y-027263
X048779Y-021948
T05
X049074Y-032007
X049074Y-024606
X048110Y-009803
X046535Y-007952
T06
X046614Y-033287
X046614Y-030728
X046614Y-025885
X046614Y-023326
X036102Y-047480
X036102Y-046480
X036102Y-045480
X036102Y-044480
X036102Y-043480
X036102Y-042480
X002795Y-055590
X002795Y-056590
X042834Y-010708
X043834Y-010708
X037401Y-027047
X038401Y-027047
X035157Y-049488
X035157Y-050488
X006929Y-013897
X006929Y-012897
X008070Y-013897
X008070Y-012897
X001771Y-002598
X002771Y-002598
X003771Y-002598
T07
X043070Y-040984
X043110Y-035118
X017519Y-017283
X017519Y-018283
X042913Y-008700
X042204Y-012874
X043204Y-012874
X040196Y-009842
X037480Y-009370
X002519Y-038110
T08
X028622Y-030118
X029133Y-030118
X028622Y-036259
X029133Y-036259
X034763Y-027047
X034763Y-026535
X037283Y-012716
X037913Y-012716
X037204Y-011377
X037834Y-011377
X016811Y-018267
X014763Y-053464
X014133Y-053464
X022637Y-026968
X020472Y-004724
X025078Y-013228
X044527Y-027677
X019921Y-004724
X046377Y-038818
X037086Y-015590
X007736Y-021673
X013011Y-044232
X039763Y-014015
X035826Y-013070
X044980Y-019960
X044980Y-024901
X036122Y-041653
X042637Y-017283
X011614Y-044192
X018149Y-035019
X020787Y-031122
X020787Y-028602
X040196Y-014350
X035787Y-013799
X002657Y-034921
X040196Y-015374
X036102Y-014448
X028523Y-021732
X035334Y-025688
X045413Y-016082
X006397Y-049960
X013070Y-045787
X036633Y-038622
X041673Y-032657
X042007Y-031240
X035393Y-027834
X022519Y-039488
X021456Y-031122
X003346Y-034921
X006338Y-045767
X022500Y-038740
X002165Y-005807
X002165Y-008858
X011614Y-048996
X011456Y-046771
X026122Y-022027
X036043Y-037460
X034212Y-039291
X026555Y-021653
X024763Y-027992
X026220Y-028011
X027795Y-028031
X029212Y-028031
X030885Y-028011
X032500Y-028031
X034035Y-027185
X034074Y-028602
X034074Y-029074
X033661Y-030590
X033937Y-032618
X033937Y-033917
X033661Y-035688
X034074Y-037322
X034114Y-038248
X032657Y-038326
X031200Y-038543
X029625Y-038346
X028267Y-038346
X026614Y-038405
X025098Y-038503
X023248Y-039625
X023523Y-037263
X023562Y-035688
X023562Y-033917
X023562Y-032539
X023562Y-030767
X023307Y-029311
X023444Y-027893
X042480Y-029448
X042460Y-025846
X044822Y-030807
X017401Y-037421
X044173Y-023188
X043248Y-019685
X011456Y-047814
X017913Y-044389
X027283Y-042480
X010669Y-021358
X010669Y-020688
X011594Y-018917
X013188Y-018976
X015314Y-019724
X015295Y-021870
X015511Y-023740
X012125Y-023779
X027086Y-016633
X026771Y-023937
X044055Y-049566
X044055Y-047637
X044055Y-045748
X044035Y-043740
X042755Y-023425
X043931Y-051529
X044173Y-023759
X011003Y-026988
X040118Y-016535
X044507Y-017401
X042578Y-015157
X019645Y-035885
X010984Y-044192
X018937Y-034685
X006318Y-047440
X024822Y-032500
X032401Y-032519
X024822Y-034133
X032125Y-033759
X007854Y-024114
X006712Y-016358
X009862Y-018031
X027578Y-021870
X028031Y-021633
X013011Y-050610
X008484Y-024114
X025905Y-018700
X027992Y-019232
X043602Y-048661
X043602Y-044842
X001259Y-056830
X006830Y-045000
X027303Y-019291
X035531Y-024192
X007677Y-023641
X026870Y-018956
X026318Y-019035
X043582Y-046732
X043602Y-050629
X043484Y-042834
X026417Y-028937
X030551Y-029094
X024842Y-030354
X032677Y-030354
X024862Y-036259
X026811Y-037362
X031181Y-037362
X032677Y-036437
X035610Y-035098
X023622Y-028759
X039803Y-014685
X036161Y-013444
X007066Y-051220
X025433Y-028267
X027086Y-028267
X028503Y-028267
X025826Y-038188
X027519Y-038110
X028897Y-038070
X030393Y-038070
X031929Y-038090
X023759Y-030000
X023740Y-036496
X033503Y-036574
X033484Y-029881
X029921Y-028267
X031732Y-028110
X018484Y-038346
X017696Y-041594
X027125Y-043622
X012362Y-019035
X014094Y-019055
X014685Y-023779
X012913Y-023779
X015334Y-022716
X015275Y-020629
X010807Y-022165
X010787Y-019842
X034763Y-027559
X040944Y-024015
X039232Y-024015
X027362Y-018425
X027047Y-021929
X003090Y-034153
X003346Y-028287
X028090Y-016673
X042322Y-052125
X013622Y-040708
X006456Y-004862
X041555Y-015590
X045570Y-025374
X045374Y-020570
T09
X008858Y-020433
X008058Y-020433
T10
X014196Y-035740
X017196Y-035740
X017196Y-032740
X014196Y-032740
T11
X005629Y-037125
X005629Y-035125
T12
X047550Y-040778
X047550Y-036858
X047550Y-039798
X047550Y-037838
X049520Y-038818
T13
X049520Y-040778
X049559Y-036887
X050559Y-040787
X050559Y-036887
T14
X047559Y-038818
X011299Y-050511
X011299Y-042244
T15
X045118Y-001377
X045078Y-056496
X005708Y-056496
X005708Y-001377
T16
X023149Y-050511
X023149Y-049511
X024149Y-050511
X024149Y-049511
X025149Y-050511
X025149Y-049511
X026149Y-050511
X026149Y-049511
X027149Y-050511
X027149Y-049511
X028149Y-050511
X028149Y-049511
X029149Y-050511
X029149Y-049511
X030149Y-050511
X030149Y-049511
X031149Y-050511
X031149Y-049511
X032149Y-050511
X032149Y-049511
X019173Y-043503
X020173Y-043503
X019173Y-044503
X020173Y-044503
X019173Y-045503
X020173Y-045503
X019173Y-046503
X020173Y-046503
X019173Y-047503
X020173Y-047503
X019173Y-048503
X020173Y-048503
X019173Y-049503
X020173Y-049503
X019173Y-050503
X020173Y-050503
T17
X020157Y-007795
X021157Y-007795
X020157Y-008795
X021157Y-008795
X020157Y-009795
X021157Y-009795
X020157Y-010795
X021157Y-010795
X020157Y-011795
X021157Y-011795
X020157Y-012795
X021157Y-012795
X020157Y-013795
X021157Y-013795
X020157Y-014795
X021157Y-014795
X020157Y-015795
X021157Y-015795
X020157Y-016795
X021157Y-016795
X020157Y-017795
X021157Y-017795
X020157Y-018795
X021157Y-018795
X020157Y-019795
X021157Y-019795
X020157Y-020795
X021157Y-020795
X020157Y-021795
X021157Y-021795
X020157Y-022795
X021157Y-022795
X020157Y-023795
X021157Y-023795
X020157Y-024795
X021157Y-024795
X020157Y-025795
X021157Y-025795
X020157Y-026795
X021157Y-026795
X012165Y-027795
X012165Y-026795
X013165Y-027795
X013165Y-026795
X014165Y-027795
X014165Y-026795
X015165Y-027795
X015165Y-026795
X016165Y-027795
X016165Y-026795
X017165Y-027795
X017165Y-026795
X018165Y-027795
X018165Y-026795
X007165Y-028346
X007165Y-027346
X008165Y-028346
X008165Y-027346
X009165Y-028346
X009165Y-027346
X007204Y-009842
X007165Y-005905
X013110Y-007874
X001771Y-004448
X002771Y-004448
X003771Y-004448
X032165Y-008779
X032165Y-007779
X033165Y-008779
X033165Y-007779
X045866Y-018346
X045866Y-017362
X045866Y-016574
X045866Y-015590
T18
X007204Y-007834
X015078Y-007874
T19
X046929Y-019527
X046929Y-014370
M30
