G04 FreePCB version 1.355*
G04 E:\My_Own_Files\Coding\ez80p\Development\PCB\v1.2\top_silk.grb*
G04 top silk layer *
G04 Scale: 100 percent, Rotated: No, Reflected: No *
%FSLAX24Y24*%
%MOIN*%
%LN top silk *%
G04 Rounded Rectangle Macro, params: W/2, H/2, R *
%AMRNDREC*
21,1,$1+$1,$2+$2-$3-$3,0,0,0*
21,1,$1+$1-$3-$3,$2+$2,0,0,0*
1,1,$3+$3,$1-$3,$2-$3*
1,1,$3+$3,$3-$1,$2-$3*
1,1,$3+$3,$1-$3,$3-$2*
1,1,$3+$3,$3-$1,$3-$2*%
G04 Rectangular Thermal Macro, params: W/2, H/2, T/2 *
%AMRECTHERM*
$4=$3/2*
21,1,$1-$3,$2-$3,0-$1/2-$4,0-$2/2-$4,0*
21,1,$1-$3,$2-$3,0-$1/2-$4,$2/2+$4,0*
21,1,$1-$3,$2-$3,$1/2+$4,0-$2/2-$4,0*
21,1,$1-$3,$2-$3,$1/2+$4,$2/2+$4,0*%
%ADD10C,0.007874*%
%ADD11C,0.010000*%
G90*
G70D02*

G04 Step and Repeat for panelization *

G04 ----------------------- Draw board outline (positive)*
%LPD*%
G54D10*
G01X0Y-57874D02*
G01X51181Y-57874D01*
G04 end of side 1*
G01X51181Y0D01*
G04 end of side 2*
G01X0Y0D01*
G04 end of side 3*
G01X0Y-57874D01*

G04 -------------- Draw Parts, Pads, Traces, Vias and Text (positive)*
%LPD*%
G04 Draw part ez80*
G04 draw part outline for part ez80*
G54D10*
G01X15744Y-18743D02*
G01X10475Y-18743D01*
G01X10475Y-18743D02*
G01X10475Y-24012D01*
G01X10475Y-24012D02*
G01X15744Y-24012D01*
G01X15744Y-24012D02*
G01X15744Y-18743D01*
G01X15594Y-23712D02*
G01X15594Y-23725D01*
G01X15592Y-23738D01*
G01X15589Y-23751D01*
G01X15585Y-23763D01*
G01X15580Y-23775D01*
G01X15574Y-23787D01*
G01X15567Y-23798D01*
G01X15559Y-23809D01*
G01X15550Y-23818D01*
G01X15541Y-23827D01*
G01X15530Y-23835D01*
G01X15519Y-23842D01*
G01X15508Y-23848D01*
G01X15496Y-23853D01*
G01X15483Y-23857D01*
G01X15470Y-23860D01*
G01X15457Y-23862D01*
G01X15444Y-23862D01*
G01X15444Y-23862D02*
G01X15431Y-23862D01*
G01X15418Y-23860D01*
G01X15406Y-23857D01*
G01X15393Y-23853D01*
G01X15381Y-23848D01*
G01X15369Y-23842D01*
G01X15358Y-23835D01*
G01X15348Y-23827D01*
G01X15338Y-23818D01*
G01X15329Y-23809D01*
G01X15322Y-23798D01*
G01X15314Y-23787D01*
G01X15308Y-23775D01*
G01X15303Y-23763D01*
G01X15299Y-23751D01*
G01X15297Y-23738D01*
G01X15295Y-23725D01*
G01X15294Y-23712D01*
G01X15294Y-23712D02*
G01X15295Y-23699D01*
G01X15297Y-23686D01*
G01X15299Y-23673D01*
G01X15303Y-23661D01*
G01X15308Y-23649D01*
G01X15314Y-23637D01*
G01X15322Y-23626D01*
G01X15329Y-23616D01*
G01X15338Y-23606D01*
G01X15348Y-23597D01*
G01X15358Y-23589D01*
G01X15369Y-23582D01*
G01X15381Y-23576D01*
G01X15393Y-23571D01*
G01X15406Y-23567D01*
G01X15418Y-23564D01*
G01X15431Y-23563D01*
G01X15444Y-23562D01*
G01X15444Y-23562D02*
G01X15457Y-23563D01*
G01X15470Y-23564D01*
G01X15483Y-23567D01*
G01X15496Y-23571D01*
G01X15508Y-23576D01*
G01X15519Y-23582D01*
G01X15530Y-23589D01*
G01X15541Y-23597D01*
G01X15550Y-23606D01*
G01X15559Y-23616D01*
G01X15567Y-23626D01*
G01X15574Y-23637D01*
G01X15580Y-23649D01*
G01X15585Y-23661D01*
G01X15589Y-23673D01*
G01X15592Y-23686D01*
G01X15594Y-23699D01*
G01X15594Y-23712D01*
G01X16545Y-23937D02*
G01X16545Y-23939D01*
G01X16544Y-23942D01*
G01X16544Y-23944D01*
G01X16543Y-23947D01*
G01X16542Y-23949D01*
G01X16541Y-23951D01*
G01X16539Y-23953D01*
G01X16538Y-23955D01*
G01X16536Y-23957D01*
G01X16534Y-23959D01*
G01X16532Y-23961D01*
G01X16530Y-23962D01*
G01X16528Y-23963D01*
G01X16525Y-23964D01*
G01X16523Y-23965D01*
G01X16520Y-23966D01*
G01X16518Y-23966D01*
G01X16515Y-23966D01*
G01X16515Y-23966D02*
G01X16513Y-23966D01*
G01X16510Y-23966D01*
G01X16508Y-23965D01*
G01X16505Y-23964D01*
G01X16503Y-23963D01*
G01X16500Y-23962D01*
G01X16498Y-23961D01*
G01X16496Y-23959D01*
G01X16494Y-23957D01*
G01X16493Y-23955D01*
G01X16491Y-23953D01*
G01X16490Y-23951D01*
G01X16488Y-23949D01*
G01X16488Y-23947D01*
G01X16487Y-23944D01*
G01X16486Y-23942D01*
G01X16486Y-23939D01*
G01X16486Y-23937D01*
G01X16486Y-23937D02*
G01X16486Y-23934D01*
G01X16486Y-23931D01*
G01X16487Y-23929D01*
G01X16488Y-23926D01*
G01X16488Y-23924D01*
G01X16490Y-23922D01*
G01X16491Y-23920D01*
G01X16493Y-23918D01*
G01X16494Y-23916D01*
G01X16496Y-23914D01*
G01X16498Y-23912D01*
G01X16500Y-23911D01*
G01X16503Y-23910D01*
G01X16505Y-23909D01*
G01X16508Y-23908D01*
G01X16510Y-23907D01*
G01X16513Y-23907D01*
G01X16515Y-23907D01*
G01X16515Y-23907D02*
G01X16518Y-23907D01*
G01X16520Y-23907D01*
G01X16523Y-23908D01*
G01X16525Y-23909D01*
G01X16528Y-23910D01*
G01X16530Y-23911D01*
G01X16532Y-23912D01*
G01X16534Y-23914D01*
G01X16536Y-23916D01*
G01X16538Y-23918D01*
G01X16539Y-23920D01*
G01X16541Y-23922D01*
G01X16542Y-23924D01*
G01X16543Y-23926D01*
G01X16544Y-23929D01*
G01X16544Y-23931D01*
G01X16545Y-23934D01*
G01X16545Y-23937D01*
G04 Draw part sys_ram*
G04 draw part outline for part sys_ram*
G54D11*
G01X30590Y-22204D02*
G01X23543Y-22204D01*
G01X23543Y-22204D02*
G01X23543Y-18307D01*
G01X23543Y-18307D02*
G01X30787Y-18307D01*
G01X30787Y-18307D02*
G01X30787Y-22204D01*
G01X30787Y-22204D02*
G01X30590Y-22204D01*
G01X23818Y-21889D02*
G01X24173Y-21889D01*
G01X24173Y-21889D02*
G01X24173Y-21535D01*
G01X24173Y-21535D02*
G01X23818Y-21535D01*
G01X23818Y-21535D02*
G01X23818Y-21889D01*
G04 Draw part spartan3*
G04 draw part outline for part spartan3*
G54D10*
G01X33622Y-27795D02*
G01X23228Y-27795D01*
G01X23228Y-27795D02*
G01X23228Y-38661D01*
G01X23228Y-38661D02*
G01X34094Y-38661D01*
G01X34094Y-38661D02*
G01X34094Y-28346D01*
G01X34094Y-28346D02*
G01X33622Y-27795D01*
G04 Draw part pic*
G04 draw part outline for part pic*
G01X11035Y-38649D02*
G01X11035Y-29649D01*
G01X11035Y-29649D02*
G01X9035Y-29649D01*
G01X9035Y-29649D02*
G01X9035Y-38649D01*
G01X9035Y-38649D02*
G01X11035Y-38649D01*
G01X10535Y-38649D02*
G01X10535Y-38149D01*
G01X10535Y-38149D02*
G01X9535Y-38149D01*
G01X9535Y-38149D02*
G01X9535Y-38649D01*
G01X9535Y-38649D02*
G01X10535Y-38649D01*
G04 Draw part vram*
G04 draw part outline for part vram*
G54D11*
G01X20944Y-42086D02*
G01X13897Y-42086D01*
G01X13897Y-42086D02*
G01X13897Y-38188D01*
G01X13897Y-38188D02*
G01X21141Y-38188D01*
G01X21141Y-38188D02*
G01X21141Y-42086D01*
G01X21141Y-42086D02*
G01X20944Y-42086D01*
G01X14173Y-41771D02*
G01X14527Y-41771D01*
G01X14527Y-41771D02*
G01X14527Y-41417D01*
G01X14527Y-41417D02*
G01X14173Y-41417D01*
G01X14173Y-41417D02*
G01X14173Y-41771D01*
G04 Draw part bypcap1*
G04 Draw part bypcap2*
G04 draw part outline for part bypcap2*
G54D10*
G01X18248Y-43740D02*
G01X16909Y-43740D01*
G01X16909Y-43740D02*
G01X16909Y-43031D01*
G01X16909Y-43031D02*
G01X18248Y-43031D01*
G01X18248Y-43031D02*
G01X18248Y-43740D01*
G04 Draw part vidcon*
G04 draw part outline for part vidcon*
G54D11*
G01X44842Y-54409D02*
G01X44842Y-42362D01*
G01X44842Y-42362D02*
G01X50984Y-42362D01*
G01X50984Y-42362D02*
G01X50984Y-54448D01*
G01X50984Y-54448D02*
G01X44842Y-54448D01*
G04 Draw part joy1*
G04 draw part outline for part joy1*
G01X5157Y-5551D02*
G01X5157Y-17952D01*
G01X5157Y-17952D02*
G01X236Y-17952D01*
G01X236Y-17952D02*
G01X236Y-5511D01*
G01X236Y-5511D02*
G01X5157Y-5511D01*
G01X5157Y-5511D02*
G01X5157Y-5551D01*
G04 Draw part joy2*
G04 draw part outline for part joy2*
G01X5157Y-18779D02*
G01X5157Y-31181D01*
G01X5157Y-31181D02*
G01X236Y-31181D01*
G01X236Y-31181D02*
G01X236Y-18740D01*
G01X236Y-18740D02*
G01X5157Y-18740D01*
G01X5157Y-18740D02*
G01X5157Y-18779D01*
G04 Draw part keyb*
G04 draw part outline for part keyb*
G01X50944Y-34763D02*
G01X50944Y-29251D01*
G01X50944Y-29251D02*
G01X45826Y-29251D01*
G01X45826Y-29251D02*
G01X45826Y-34763D01*
G01X45826Y-34763D02*
G01X50944Y-34763D01*
G04 Draw part mouse*
G04 draw part outline for part mouse*
G01X50944Y-27362D02*
G01X50944Y-21850D01*
G01X50944Y-21850D02*
G01X45826Y-21850D01*
G01X45826Y-21850D02*
G01X45826Y-27362D01*
G01X45826Y-27362D02*
G01X50944Y-27362D01*
G04 Draw part dc_in*
G04 draw part outline for part dc_in*
G01X50866Y-7874D02*
G01X45354Y-7874D01*
G01X45354Y-7874D02*
G01X45354Y-11771D01*
G01X45354Y-11771D02*
G01X50866Y-11771D01*
G01X50866Y-11771D02*
G01X50866Y-7874D01*
G01X49881Y-11771D02*
G01X49881Y-7874D01*
G04 Draw part ps1res1*
G04 draw part outline for part ps1res1*
G54D10*
G01X42362Y-29665D02*
G01X42362Y-31003D01*
G01X42362Y-31003D02*
G01X41653Y-31003D01*
G01X41653Y-31003D02*
G01X41653Y-29665D01*
G01X41653Y-29665D02*
G01X42362Y-29665D01*
G04 Draw part ps1res2*
G04 draw part outline for part ps1res2*
G01X42362Y-27893D02*
G01X42362Y-29232D01*
G01X42362Y-29232D02*
G01X41653Y-29232D01*
G01X41653Y-29232D02*
G01X41653Y-27893D01*
G01X41653Y-27893D02*
G01X42362Y-27893D01*
G04 Draw part ps1res3*
G04 draw part outline for part ps1res3*
G01X42440Y-26043D02*
G01X42440Y-27381D01*
G01X42440Y-27381D02*
G01X41732Y-27381D01*
G01X41732Y-27381D02*
G01X41732Y-26043D01*
G01X41732Y-26043D02*
G01X42440Y-26043D01*
G04 Draw part ps1res4*
G04 draw part outline for part ps1res4*
G01X42401Y-24311D02*
G01X42401Y-25649D01*
G01X42401Y-25649D02*
G01X41692Y-25649D01*
G01X41692Y-25649D02*
G01X41692Y-24311D01*
G01X41692Y-24311D02*
G01X42401Y-24311D01*
G04 Draw part ps1res8*
G04 Draw part ps1res12*
G04 Draw part ps1res15*
G04 Draw part ps1res16*
G04 Draw part ps1res17*
G04 draw part outline for part ps1res17*
G01X44237Y-29693D02*
G01X44237Y-31093D01*
G01X44237Y-31093D02*
G01X42557Y-31093D01*
G01X42557Y-31093D02*
G01X42557Y-29693D01*
G01X42557Y-29693D02*
G01X44237Y-29693D01*
G04 Draw part ps1res18*
G04 draw part outline for part ps1res18*
G01X44237Y-27843D02*
G01X44237Y-29243D01*
G01X44237Y-29243D02*
G01X42557Y-29243D01*
G01X42557Y-29243D02*
G01X42557Y-27843D01*
G01X42557Y-27843D02*
G01X44237Y-27843D01*
G04 Draw part ps1res19*
G04 draw part outline for part ps1res19*
G01X44277Y-26032D02*
G01X44277Y-27432D01*
G01X44277Y-27432D02*
G01X42597Y-27432D01*
G01X42597Y-27432D02*
G01X42597Y-26032D01*
G01X42597Y-26032D02*
G01X44277Y-26032D01*
G04 Draw part ps1res20*
G04 draw part outline for part ps1res20*
G01X44277Y-24339D02*
G01X44277Y-25739D01*
G01X44277Y-25739D02*
G01X42597Y-25739D01*
G01X42597Y-25739D02*
G01X42597Y-24339D01*
G01X42597Y-24339D02*
G01X44277Y-24339D01*
G04 Draw part ps2buf*
G04 draw part outline for part ps2buf*
G01X43582Y-22952D02*
G01X43582Y-19440D01*
G01X43582Y-19440D02*
G01X42677Y-19440D01*
G01X42677Y-19440D02*
G01X42677Y-22952D01*
G01X42677Y-22952D02*
G01X43582Y-22952D01*
G01X43385Y-22952D02*
G01X43385Y-22755D01*
G01X43385Y-22755D02*
G01X42874Y-22755D01*
G01X42874Y-22755D02*
G01X42874Y-22952D01*
G01X42874Y-22952D02*
G01X43385Y-22952D01*
G04 Draw part decap1*
G04 Draw part decap2*
G04 Draw part decap3*
G04 draw part outline for part decap3*
G01X42920Y-41484D02*
G01X43220Y-41484D01*
G01X43070Y-41334D02*
G01X43070Y-41634D01*
G01X44800Y-40984D02*
G01X44800Y-40944D01*
G01X44798Y-40904D01*
G01X44795Y-40865D01*
G01X44790Y-40825D01*
G01X44784Y-40786D01*
G01X44777Y-40747D01*
G01X44769Y-40708D01*
G01X44760Y-40669D01*
G01X44749Y-40631D01*
G01X44737Y-40593D01*
G01X44724Y-40555D01*
G01X44710Y-40518D01*
G01X44694Y-40482D01*
G01X44678Y-40446D01*
G01X44660Y-40410D01*
G01X44641Y-40375D01*
G01X44621Y-40341D01*
G01X44600Y-40307D01*
G01X44577Y-40274D01*
G01X44554Y-40242D01*
G01X44530Y-40211D01*
G01X44505Y-40180D01*
G01X44478Y-40150D01*
G01X44451Y-40121D01*
G01X44423Y-40093D01*
G01X44394Y-40066D01*
G01X44364Y-40040D01*
G01X44333Y-40014D01*
G01X44302Y-39990D01*
G01X44270Y-39967D01*
G01X44237Y-39945D01*
G01X44203Y-39923D01*
G01X44169Y-39903D01*
G01X44134Y-39884D01*
G01X44098Y-39867D01*
G01X44062Y-39850D01*
G01X44026Y-39834D01*
G01X43989Y-39820D01*
G01X43951Y-39807D01*
G01X43913Y-39795D01*
G01X43875Y-39784D01*
G01X43836Y-39775D01*
G01X43797Y-39767D01*
G01X43758Y-39760D01*
G01X43719Y-39754D01*
G01X43679Y-39749D01*
G01X43640Y-39746D01*
G01X43600Y-39744D01*
G01X43560Y-39744D01*
G01X43560Y-39744D02*
G01X43521Y-39744D01*
G01X43481Y-39746D01*
G01X43441Y-39749D01*
G01X43402Y-39754D01*
G01X43362Y-39760D01*
G01X43323Y-39767D01*
G01X43284Y-39775D01*
G01X43246Y-39784D01*
G01X43208Y-39795D01*
G01X43170Y-39807D01*
G01X43132Y-39820D01*
G01X43095Y-39834D01*
G01X43058Y-39850D01*
G01X43022Y-39867D01*
G01X42987Y-39884D01*
G01X42952Y-39903D01*
G01X42918Y-39923D01*
G01X42884Y-39945D01*
G01X42851Y-39967D01*
G01X42819Y-39990D01*
G01X42787Y-40014D01*
G01X42757Y-40040D01*
G01X42727Y-40066D01*
G01X42698Y-40093D01*
G01X42670Y-40121D01*
G01X42642Y-40150D01*
G01X42616Y-40180D01*
G01X42591Y-40211D01*
G01X42567Y-40242D01*
G01X42543Y-40274D01*
G01X42521Y-40307D01*
G01X42500Y-40341D01*
G01X42480Y-40375D01*
G01X42461Y-40410D01*
G01X42443Y-40446D01*
G01X42426Y-40482D01*
G01X42411Y-40518D01*
G01X42397Y-40555D01*
G01X42384Y-40593D01*
G01X42372Y-40631D01*
G01X42361Y-40669D01*
G01X42351Y-40708D01*
G01X42343Y-40747D01*
G01X42336Y-40786D01*
G01X42331Y-40825D01*
G01X42326Y-40865D01*
G01X42323Y-40904D01*
G01X42321Y-40944D01*
G01X42320Y-40984D01*
G01X42320Y-40984D02*
G01X42321Y-41023D01*
G01X42323Y-41063D01*
G01X42326Y-41103D01*
G01X42331Y-41142D01*
G01X42336Y-41182D01*
G01X42343Y-41221D01*
G01X42351Y-41260D01*
G01X42361Y-41298D01*
G01X42372Y-41337D01*
G01X42384Y-41374D01*
G01X42397Y-41412D01*
G01X42411Y-41449D01*
G01X42426Y-41486D01*
G01X42443Y-41522D01*
G01X42461Y-41557D01*
G01X42480Y-41592D01*
G01X42500Y-41627D01*
G01X42521Y-41660D01*
G01X42543Y-41693D01*
G01X42567Y-41725D01*
G01X42591Y-41757D01*
G01X42616Y-41788D01*
G01X42642Y-41817D01*
G01X42670Y-41846D01*
G01X42698Y-41875D01*
G01X42727Y-41902D01*
G01X42757Y-41928D01*
G01X42787Y-41953D01*
G01X42819Y-41978D01*
G01X42851Y-42001D01*
G01X42884Y-42023D01*
G01X42918Y-42044D01*
G01X42952Y-42064D01*
G01X42987Y-42083D01*
G01X43022Y-42101D01*
G01X43058Y-42118D01*
G01X43095Y-42133D01*
G01X43132Y-42147D01*
G01X43170Y-42161D01*
G01X43208Y-42173D01*
G01X43246Y-42183D01*
G01X43284Y-42193D01*
G01X43323Y-42201D01*
G01X43362Y-42208D01*
G01X43402Y-42214D01*
G01X43441Y-42218D01*
G01X43481Y-42221D01*
G01X43521Y-42223D01*
G01X43560Y-42224D01*
G01X43560Y-42224D02*
G01X43600Y-42223D01*
G01X43640Y-42221D01*
G01X43679Y-42218D01*
G01X43719Y-42214D01*
G01X43758Y-42208D01*
G01X43797Y-42201D01*
G01X43836Y-42193D01*
G01X43875Y-42183D01*
G01X43913Y-42173D01*
G01X43951Y-42161D01*
G01X43989Y-42147D01*
G01X44026Y-42133D01*
G01X44062Y-42118D01*
G01X44098Y-42101D01*
G01X44134Y-42083D01*
G01X44169Y-42064D01*
G01X44203Y-42044D01*
G01X44237Y-42023D01*
G01X44270Y-42001D01*
G01X44302Y-41978D01*
G01X44333Y-41953D01*
G01X44364Y-41928D01*
G01X44394Y-41902D01*
G01X44423Y-41875D01*
G01X44451Y-41846D01*
G01X44478Y-41817D01*
G01X44505Y-41788D01*
G01X44530Y-41757D01*
G01X44554Y-41725D01*
G01X44577Y-41693D01*
G01X44600Y-41660D01*
G01X44621Y-41627D01*
G01X44641Y-41592D01*
G01X44660Y-41557D01*
G01X44678Y-41522D01*
G01X44694Y-41486D01*
G01X44710Y-41449D01*
G01X44724Y-41412D01*
G01X44737Y-41374D01*
G01X44749Y-41337D01*
G01X44760Y-41298D01*
G01X44769Y-41260D01*
G01X44777Y-41221D01*
G01X44784Y-41182D01*
G01X44790Y-41142D01*
G01X44795Y-41103D01*
G01X44798Y-41063D01*
G01X44800Y-41023D01*
G01X44800Y-40984D01*
G04 Draw part decap4*
G04 draw part outline for part decap4*
G01X42960Y-35618D02*
G01X43260Y-35618D01*
G01X43110Y-35468D02*
G01X43110Y-35768D01*
G01X44840Y-35118D02*
G01X44839Y-35078D01*
G01X44837Y-35038D01*
G01X44834Y-34999D01*
G01X44830Y-34959D01*
G01X44824Y-34920D01*
G01X44817Y-34881D01*
G01X44809Y-34842D01*
G01X44799Y-34803D01*
G01X44788Y-34765D01*
G01X44777Y-34727D01*
G01X44763Y-34689D01*
G01X44749Y-34652D01*
G01X44734Y-34616D01*
G01X44717Y-34580D01*
G01X44699Y-34544D01*
G01X44680Y-34509D01*
G01X44660Y-34475D01*
G01X44639Y-34441D01*
G01X44617Y-34408D01*
G01X44593Y-34376D01*
G01X44569Y-34344D01*
G01X44544Y-34314D01*
G01X44518Y-34284D01*
G01X44490Y-34255D01*
G01X44462Y-34227D01*
G01X44433Y-34200D01*
G01X44404Y-34173D01*
G01X44373Y-34148D01*
G01X44341Y-34124D01*
G01X44309Y-34101D01*
G01X44276Y-34078D01*
G01X44243Y-34057D01*
G01X44208Y-34037D01*
G01X44173Y-34018D01*
G01X44138Y-34000D01*
G01X44102Y-33984D01*
G01X44065Y-33968D01*
G01X44028Y-33954D01*
G01X43990Y-33941D01*
G01X43953Y-33929D01*
G01X43914Y-33918D01*
G01X43876Y-33909D01*
G01X43837Y-33900D01*
G01X43798Y-33894D01*
G01X43758Y-33888D01*
G01X43719Y-33883D01*
G01X43679Y-33880D01*
G01X43639Y-33878D01*
G01X43600Y-33878D01*
G01X43600Y-33878D02*
G01X43560Y-33878D01*
G01X43520Y-33880D01*
G01X43481Y-33883D01*
G01X43441Y-33888D01*
G01X43402Y-33894D01*
G01X43363Y-33900D01*
G01X43324Y-33909D01*
G01X43285Y-33918D01*
G01X43247Y-33929D01*
G01X43209Y-33941D01*
G01X43171Y-33954D01*
G01X43134Y-33968D01*
G01X43098Y-33984D01*
G01X43062Y-34000D01*
G01X43026Y-34018D01*
G01X42991Y-34037D01*
G01X42957Y-34057D01*
G01X42923Y-34078D01*
G01X42890Y-34101D01*
G01X42858Y-34124D01*
G01X42827Y-34148D01*
G01X42796Y-34173D01*
G01X42766Y-34200D01*
G01X42737Y-34227D01*
G01X42709Y-34255D01*
G01X42682Y-34284D01*
G01X42656Y-34314D01*
G01X42630Y-34344D01*
G01X42606Y-34376D01*
G01X42583Y-34408D01*
G01X42561Y-34441D01*
G01X42539Y-34475D01*
G01X42519Y-34509D01*
G01X42500Y-34544D01*
G01X42483Y-34580D01*
G01X42466Y-34616D01*
G01X42450Y-34652D01*
G01X42436Y-34689D01*
G01X42423Y-34727D01*
G01X42411Y-34765D01*
G01X42400Y-34803D01*
G01X42391Y-34842D01*
G01X42383Y-34881D01*
G01X42376Y-34920D01*
G01X42370Y-34959D01*
G01X42365Y-34999D01*
G01X42362Y-35038D01*
G01X42360Y-35078D01*
G01X42360Y-35118D01*
G01X42360Y-35118D02*
G01X42360Y-35157D01*
G01X42362Y-35197D01*
G01X42365Y-35237D01*
G01X42370Y-35276D01*
G01X42376Y-35316D01*
G01X42383Y-35355D01*
G01X42391Y-35394D01*
G01X42400Y-35432D01*
G01X42411Y-35470D01*
G01X42423Y-35508D01*
G01X42436Y-35546D01*
G01X42450Y-35583D01*
G01X42466Y-35620D01*
G01X42483Y-35656D01*
G01X42500Y-35691D01*
G01X42519Y-35726D01*
G01X42539Y-35760D01*
G01X42561Y-35794D01*
G01X42583Y-35827D01*
G01X42606Y-35859D01*
G01X42630Y-35891D01*
G01X42656Y-35921D01*
G01X42682Y-35951D01*
G01X42709Y-35980D01*
G01X42737Y-36008D01*
G01X42766Y-36036D01*
G01X42796Y-36062D01*
G01X42827Y-36087D01*
G01X42858Y-36111D01*
G01X42890Y-36135D01*
G01X42923Y-36157D01*
G01X42957Y-36178D01*
G01X42991Y-36198D01*
G01X43026Y-36217D01*
G01X43062Y-36235D01*
G01X43098Y-36251D01*
G01X43134Y-36267D01*
G01X43171Y-36281D01*
G01X43209Y-36294D01*
G01X43247Y-36306D01*
G01X43285Y-36317D01*
G01X43324Y-36327D01*
G01X43363Y-36335D01*
G01X43402Y-36342D01*
G01X43441Y-36347D01*
G01X43481Y-36352D01*
G01X43520Y-36355D01*
G01X43560Y-36357D01*
G01X43600Y-36358D01*
G01X43600Y-36358D02*
G01X43639Y-36357D01*
G01X43679Y-36355D01*
G01X43719Y-36352D01*
G01X43758Y-36347D01*
G01X43798Y-36342D01*
G01X43837Y-36335D01*
G01X43876Y-36327D01*
G01X43914Y-36317D01*
G01X43953Y-36306D01*
G01X43990Y-36294D01*
G01X44028Y-36281D01*
G01X44065Y-36267D01*
G01X44102Y-36251D01*
G01X44138Y-36235D01*
G01X44173Y-36217D01*
G01X44208Y-36198D01*
G01X44243Y-36178D01*
G01X44276Y-36157D01*
G01X44309Y-36135D01*
G01X44341Y-36111D01*
G01X44373Y-36087D01*
G01X44404Y-36062D01*
G01X44433Y-36036D01*
G01X44462Y-36008D01*
G01X44490Y-35980D01*
G01X44518Y-35951D01*
G01X44544Y-35921D01*
G01X44569Y-35891D01*
G01X44593Y-35859D01*
G01X44617Y-35827D01*
G01X44639Y-35794D01*
G01X44660Y-35760D01*
G01X44680Y-35726D01*
G01X44699Y-35691D01*
G01X44717Y-35656D01*
G01X44734Y-35620D01*
G01X44749Y-35583D01*
G01X44763Y-35546D01*
G01X44777Y-35508D01*
G01X44788Y-35470D01*
G01X44799Y-35432D01*
G01X44809Y-35394D01*
G01X44817Y-35355D01*
G01X44824Y-35316D01*
G01X44830Y-35276D01*
G01X44834Y-35237D01*
G01X44837Y-35197D01*
G01X44839Y-35157D01*
G01X44840Y-35118D01*
G04 Draw part decap5*
G04 draw part outline for part decap5*
G01X44527Y-39625D02*
G01X44527Y-38287D01*
G01X44527Y-38287D02*
G01X45236Y-38287D01*
G01X45236Y-38287D02*
G01X45236Y-39625D01*
G01X45236Y-39625D02*
G01X44527Y-39625D01*
G04 Draw part decap6*
G04 draw part outline for part decap6*
G01X45236Y-36476D02*
G01X45236Y-37814D01*
G01X45236Y-37814D02*
G01X44527Y-37814D01*
G01X44527Y-37814D02*
G01X44527Y-36476D01*
G01X44527Y-36476D02*
G01X45236Y-36476D01*
G04 Draw part decap7*
G04 draw part outline for part decap7*
G01X44389Y-37992D02*
G01X43051Y-37992D01*
G01X43051Y-37992D02*
G01X43051Y-37283D01*
G01X43051Y-37283D02*
G01X44389Y-37283D01*
G01X44389Y-37283D02*
G01X44389Y-37992D01*
G04 Draw part decap8*
G04 draw part outline for part decap8*
G01X44389Y-38818D02*
G01X43051Y-38818D01*
G01X43051Y-38818D02*
G01X43051Y-38110D01*
G01X43051Y-38110D02*
G01X44389Y-38110D01*
G01X44389Y-38110D02*
G01X44389Y-38818D01*
G04 Draw part decap9*
G04 draw part outline for part decap9*
G01X42933Y-39645D02*
G01X41594Y-39645D01*
G01X41594Y-39645D02*
G01X41594Y-38937D01*
G01X41594Y-38937D02*
G01X42933Y-38937D01*
G01X42933Y-38937D02*
G01X42933Y-39645D01*
G04 Draw part decap10*
G04 draw part outline for part decap10*
G01X44389Y-37165D02*
G01X43051Y-37165D01*
G01X43051Y-37165D02*
G01X43051Y-36456D01*
G01X43051Y-36456D02*
G01X44389Y-36456D01*
G01X44389Y-36456D02*
G01X44389Y-37165D01*
G04 Draw part decap11*
G04 draw part outline for part decap11*
G01X42933Y-37165D02*
G01X41594Y-37165D01*
G01X41594Y-37165D02*
G01X41594Y-36456D01*
G01X41594Y-36456D02*
G01X42933Y-36456D01*
G01X42933Y-36456D02*
G01X42933Y-37165D01*
G04 Draw part decap12*
G04 draw part outline for part decap12*
G01X44389Y-39645D02*
G01X43051Y-39645D01*
G01X43051Y-39645D02*
G01X43051Y-38937D01*
G01X43051Y-38937D02*
G01X44389Y-38937D01*
G01X44389Y-38937D02*
G01X44389Y-39645D01*
G04 Draw part decap13*
G04 draw part outline for part decap13*
G01X42244Y-38720D02*
G01X42244Y-37381D01*
G01X42244Y-37381D02*
G01X42952Y-37381D01*
G01X42952Y-37381D02*
G01X42952Y-38720D01*
G01X42952Y-38720D02*
G01X42244Y-38720D01*
G04 Draw part dac1*
G04 draw part outline for part dac1*
G01X40177Y-44055D02*
G01X41515Y-44055D01*
G01X41515Y-44055D02*
G01X41515Y-44763D01*
G01X41515Y-44763D02*
G01X40177Y-44763D01*
G01X40177Y-44763D02*
G01X40177Y-44055D01*
G04 Draw part dac2*
G04 draw part outline for part dac2*
G01X41830Y-44488D02*
G01X43169Y-44488D01*
G01X43169Y-44488D02*
G01X43169Y-45196D01*
G01X43169Y-45196D02*
G01X41830Y-45196D01*
G01X41830Y-45196D02*
G01X41830Y-44488D01*
G04 Draw part dac3*
G04 draw part outline for part dac3*
G01X40177Y-44960D02*
G01X41515Y-44960D01*
G01X41515Y-44960D02*
G01X41515Y-45669D01*
G01X41515Y-45669D02*
G01X40177Y-45669D01*
G01X40177Y-45669D02*
G01X40177Y-44960D01*
G04 Draw part dac4*
G04 draw part outline for part dac4*
G01X41830Y-45393D02*
G01X43169Y-45393D01*
G01X43169Y-45393D02*
G01X43169Y-46102D01*
G01X43169Y-46102D02*
G01X41830Y-46102D01*
G01X41830Y-46102D02*
G01X41830Y-45393D01*
G04 Draw part dac5*
G04 draw part outline for part dac5*
G01X40177Y-46023D02*
G01X41515Y-46023D01*
G01X41515Y-46023D02*
G01X41515Y-46732D01*
G01X41515Y-46732D02*
G01X40177Y-46732D01*
G01X40177Y-46732D02*
G01X40177Y-46023D01*
G04 Draw part dac6*
G04 draw part outline for part dac6*
G01X41870Y-46417D02*
G01X43208Y-46417D01*
G01X43208Y-46417D02*
G01X43208Y-47125D01*
G01X43208Y-47125D02*
G01X41870Y-47125D01*
G01X41870Y-47125D02*
G01X41870Y-46417D01*
G04 Draw part dac7*
G04 draw part outline for part dac7*
G01X40177Y-46889D02*
G01X41515Y-46889D01*
G01X41515Y-46889D02*
G01X41515Y-47598D01*
G01X41515Y-47598D02*
G01X40177Y-47598D01*
G01X40177Y-47598D02*
G01X40177Y-46889D01*
G04 Draw part dac8*
G04 draw part outline for part dac8*
G01X41870Y-47283D02*
G01X43208Y-47283D01*
G01X43208Y-47283D02*
G01X43208Y-47992D01*
G01X43208Y-47992D02*
G01X41870Y-47992D01*
G01X41870Y-47992D02*
G01X41870Y-47283D01*
G04 Draw part dac9*
G04 draw part outline for part dac9*
G01X40137Y-47913D02*
G01X41476Y-47913D01*
G01X41476Y-47913D02*
G01X41476Y-48622D01*
G01X41476Y-48622D02*
G01X40137Y-48622D01*
G01X40137Y-48622D02*
G01X40137Y-47913D01*
G04 Draw part dac10*
G04 draw part outline for part dac10*
G01X41830Y-48307D02*
G01X43169Y-48307D01*
G01X43169Y-48307D02*
G01X43169Y-49015D01*
G01X43169Y-49015D02*
G01X41830Y-49015D01*
G01X41830Y-49015D02*
G01X41830Y-48307D01*
G04 Draw part dac11*
G04 draw part outline for part dac11*
G01X40137Y-48779D02*
G01X41476Y-48779D01*
G01X41476Y-48779D02*
G01X41476Y-49488D01*
G01X41476Y-49488D02*
G01X40137Y-49488D01*
G01X40137Y-49488D02*
G01X40137Y-48779D01*
G04 Draw part dac12*
G04 draw part outline for part dac12*
G01X41830Y-49173D02*
G01X43169Y-49173D01*
G01X43169Y-49173D02*
G01X43169Y-49881D01*
G01X43169Y-49881D02*
G01X41830Y-49881D01*
G01X41830Y-49881D02*
G01X41830Y-49173D01*
G04 Draw part syncres2*
G04 draw part outline for part syncres2*
G01X41830Y-50275D02*
G01X43169Y-50275D01*
G01X43169Y-50275D02*
G01X43169Y-50984D01*
G01X43169Y-50984D02*
G01X41830Y-50984D01*
G01X41830Y-50984D02*
G01X41830Y-50275D01*
G04 Draw part sdres1*
G04 Draw part sdres2*
G04 Draw part sdres3*
G04 Draw part sdres4*
G04 Draw part sdres5*
G04 Draw part sdres6*
G04 Draw part sdres8*
G04 Draw part sdt*
G04 Draw part sdpowt*
G04 Draw part powres*
G04 Draw part jtag*
G04 draw part outline for part jtag*
G54D11*
G01X35602Y-47880D02*
G01X35602Y-41980D01*
G01X35602Y-41980D02*
G01X36602Y-41980D01*
G01X36602Y-41980D02*
G01X36602Y-47880D01*
G01X36602Y-47880D02*
G01X35602Y-47880D01*
G04 Draw part sdpullhi*
G04 Draw part reg63v3*
G04 Draw part reg62v5*
G04 Draw part reg61v2*
G04 Draw part decap44*
G04 draw part outline for part decap44*
G54D10*
G01X41161Y-23070D02*
G01X42500Y-23070D01*
G01X42500Y-23070D02*
G01X42500Y-23779D01*
G01X42500Y-23779D02*
G01X41161Y-23779D01*
G01X41161Y-23779D02*
G01X41161Y-23070D01*
G04 Draw part fpgacap1*
G04 Draw part fpgacap2*
G04 Draw part fpgacap3*
G04 Draw part fpgacap4*
G04 Draw part fpgacap7*
G04 Draw part fpgacap8*
G04 Draw part fpgacap9*
G04 Draw part fpgacap10*
G04 Draw part fpgacap11*
G04 Draw part fpgacap12*
G04 Draw part fpgacap13*
G04 Draw part via50*
G04 draw part outline for part via50*
G04 Draw part via51*
G04 draw part outline for part via51*
G04 Draw part via52*
G04 draw part outline for part via52*
G04 Draw part via53*
G04 draw part outline for part via53*
G04 Draw part fpgadecap50*
G04 Draw part fpgadecap51*
G04 Draw part fpgadecap52*
G04 Draw part fpgadecap53*
G04 Draw part fpgadecap54*
G04 Draw part fpgadecap55*
G04 Draw part fpgadecap56*
G04 Draw part fpgadecap57*
G04 Draw part fpgadecap58*
G04 Draw part fpgadecap59*
G04 Draw part fpgadecap60*
G04 Draw part fpgadecap63*
G04 Draw part fpgadecap64*
G04 Draw part fpgadecap67*
G04 Draw part fpgadecap68*
G04 Draw part led2*
G04 draw part outline for part led2*
G54D11*
G01X3267Y-57047D02*
G01X2322Y-57047D01*
G01X2322Y-57047D02*
G01X2322Y-55157D01*
G01X2322Y-55157D02*
G01X3267Y-55157D01*
G01X3267Y-55157D02*
G01X3267Y-56811D01*
G01X3267Y-56811D02*
G01X3267Y-57047D01*
G04 Draw part tant4*
G04 Draw part tant5*
G04 Draw part tant7*
G04 Draw part decap100*
G04 draw part outline for part decap100*
G54D10*
G01X38653Y-33555D02*
G01X38353Y-33555D01*
G01X38503Y-33705D02*
G01X38503Y-33405D01*
G01X36773Y-34055D02*
G01X36774Y-34094D01*
G01X36776Y-34134D01*
G01X36779Y-34174D01*
G01X36784Y-34213D01*
G01X36789Y-34253D01*
G01X36796Y-34292D01*
G01X36805Y-34331D01*
G01X36814Y-34369D01*
G01X36825Y-34407D01*
G01X36837Y-34445D01*
G01X36850Y-34483D01*
G01X36864Y-34520D01*
G01X36880Y-34557D01*
G01X36896Y-34593D01*
G01X36914Y-34628D01*
G01X36933Y-34663D01*
G01X36953Y-34697D01*
G01X36974Y-34731D01*
G01X36996Y-34764D01*
G01X37020Y-34796D01*
G01X37044Y-34828D01*
G01X37069Y-34858D01*
G01X37095Y-34888D01*
G01X37123Y-34917D01*
G01X37151Y-34945D01*
G01X37180Y-34973D01*
G01X37210Y-34999D01*
G01X37240Y-35024D01*
G01X37272Y-35048D01*
G01X37304Y-35072D01*
G01X37337Y-35094D01*
G01X37371Y-35115D01*
G01X37405Y-35135D01*
G01X37440Y-35154D01*
G01X37475Y-35172D01*
G01X37512Y-35188D01*
G01X37548Y-35204D01*
G01X37585Y-35218D01*
G01X37623Y-35231D01*
G01X37661Y-35243D01*
G01X37699Y-35254D01*
G01X37738Y-35264D01*
G01X37776Y-35272D01*
G01X37816Y-35279D01*
G01X37855Y-35284D01*
G01X37894Y-35289D01*
G01X37934Y-35292D01*
G01X37974Y-35294D01*
G01X38013Y-35295D01*
G01X38013Y-35295D02*
G01X38053Y-35294D01*
G01X38093Y-35292D01*
G01X38133Y-35289D01*
G01X38172Y-35284D01*
G01X38211Y-35279D01*
G01X38250Y-35272D01*
G01X38289Y-35264D01*
G01X38328Y-35254D01*
G01X38366Y-35243D01*
G01X38404Y-35231D01*
G01X38442Y-35218D01*
G01X38479Y-35204D01*
G01X38515Y-35188D01*
G01X38551Y-35172D01*
G01X38587Y-35154D01*
G01X38622Y-35135D01*
G01X38656Y-35115D01*
G01X38690Y-35094D01*
G01X38723Y-35072D01*
G01X38755Y-35048D01*
G01X38787Y-35024D01*
G01X38817Y-34999D01*
G01X38847Y-34973D01*
G01X38876Y-34945D01*
G01X38904Y-34917D01*
G01X38931Y-34888D01*
G01X38958Y-34858D01*
G01X38983Y-34828D01*
G01X39007Y-34796D01*
G01X39030Y-34764D01*
G01X39053Y-34731D01*
G01X39074Y-34697D01*
G01X39094Y-34663D01*
G01X39113Y-34628D01*
G01X39131Y-34593D01*
G01X39147Y-34557D01*
G01X39163Y-34520D01*
G01X39177Y-34483D01*
G01X39190Y-34445D01*
G01X39202Y-34407D01*
G01X39213Y-34369D01*
G01X39222Y-34331D01*
G01X39231Y-34292D01*
G01X39238Y-34253D01*
G01X39243Y-34213D01*
G01X39248Y-34174D01*
G01X39251Y-34134D01*
G01X39253Y-34094D01*
G01X39253Y-34055D01*
G01X39253Y-34055D02*
G01X39253Y-34015D01*
G01X39251Y-33975D01*
G01X39248Y-33936D01*
G01X39243Y-33896D01*
G01X39238Y-33857D01*
G01X39231Y-33818D01*
G01X39222Y-33779D01*
G01X39213Y-33740D01*
G01X39202Y-33702D01*
G01X39190Y-33664D01*
G01X39177Y-33626D01*
G01X39163Y-33589D01*
G01X39147Y-33553D01*
G01X39131Y-33517D01*
G01X39113Y-33481D01*
G01X39094Y-33446D01*
G01X39074Y-33412D01*
G01X39053Y-33378D01*
G01X39030Y-33345D01*
G01X39007Y-33313D01*
G01X38983Y-33281D01*
G01X38958Y-33251D01*
G01X38931Y-33221D01*
G01X38904Y-33192D01*
G01X38876Y-33164D01*
G01X38847Y-33137D01*
G01X38817Y-33110D01*
G01X38787Y-33085D01*
G01X38755Y-33061D01*
G01X38723Y-33038D01*
G01X38690Y-33015D01*
G01X38656Y-32994D01*
G01X38622Y-32974D01*
G01X38587Y-32955D01*
G01X38551Y-32937D01*
G01X38515Y-32921D01*
G01X38479Y-32905D01*
G01X38442Y-32891D01*
G01X38404Y-32878D01*
G01X38366Y-32866D01*
G01X38328Y-32855D01*
G01X38289Y-32846D01*
G01X38250Y-32837D01*
G01X38211Y-32831D01*
G01X38172Y-32825D01*
G01X38133Y-32820D01*
G01X38093Y-32817D01*
G01X38053Y-32815D01*
G01X38013Y-32815D01*
G01X38013Y-32815D02*
G01X37974Y-32815D01*
G01X37934Y-32817D01*
G01X37894Y-32820D01*
G01X37855Y-32825D01*
G01X37816Y-32831D01*
G01X37776Y-32837D01*
G01X37738Y-32846D01*
G01X37699Y-32855D01*
G01X37661Y-32866D01*
G01X37623Y-32878D01*
G01X37585Y-32891D01*
G01X37548Y-32905D01*
G01X37512Y-32921D01*
G01X37475Y-32937D01*
G01X37440Y-32955D01*
G01X37405Y-32974D01*
G01X37371Y-32994D01*
G01X37337Y-33015D01*
G01X37304Y-33038D01*
G01X37272Y-33061D01*
G01X37240Y-33085D01*
G01X37210Y-33110D01*
G01X37180Y-33137D01*
G01X37151Y-33164D01*
G01X37123Y-33192D01*
G01X37095Y-33221D01*
G01X37069Y-33251D01*
G01X37044Y-33281D01*
G01X37020Y-33313D01*
G01X36996Y-33345D01*
G01X36974Y-33378D01*
G01X36953Y-33412D01*
G01X36933Y-33446D01*
G01X36914Y-33481D01*
G01X36896Y-33517D01*
G01X36880Y-33553D01*
G01X36864Y-33589D01*
G01X36850Y-33626D01*
G01X36837Y-33664D01*
G01X36825Y-33702D01*
G01X36814Y-33740D01*
G01X36805Y-33779D01*
G01X36796Y-33818D01*
G01X36789Y-33857D01*
G01X36784Y-33896D01*
G01X36779Y-33936D01*
G01X36776Y-33975D01*
G01X36774Y-34015D01*
G01X36773Y-34055D01*
G04 Draw part srcap1*
G04 draw part outline for part srcap1*
G01X26515Y-22992D02*
G01X27854Y-22992D01*
G01X27854Y-22992D02*
G01X27854Y-23700D01*
G01X27854Y-23700D02*
G01X26515Y-23700D01*
G01X26515Y-23700D02*
G01X26515Y-22992D01*
G04 Draw part srcap2*
G04 draw part outline for part srcap2*
G01X27893Y-17559D02*
G01X26555Y-17559D01*
G01X26555Y-17559D02*
G01X26555Y-16850D01*
G01X26555Y-16850D02*
G01X27893Y-16850D01*
G01X27893Y-16850D02*
G01X27893Y-17559D01*
G04 Draw part rtcxtal*
G04 draw part outline for part rtcxtal*
G54D11*
G01X9258Y-20833D02*
G01X7658Y-20833D01*
G01X7658Y-20833D02*
G01X7658Y-20033D01*
G01X7658Y-20033D02*
G01X9258Y-20033D01*
G01X9258Y-20033D02*
G01X9258Y-20833D01*
G04 Draw part rtxres*
G04 draw part outline for part rtxres*
G54D10*
G01X7854Y-20866D02*
G01X9192Y-20866D01*
G01X9192Y-20866D02*
G01X9192Y-21574D01*
G01X9192Y-21574D02*
G01X7854Y-21574D01*
G01X7854Y-21574D02*
G01X7854Y-20866D01*
G04 Draw part rtccap1*
G04 Draw part rtccap2*
G04 Draw part clock*
G04 draw part outline for part clock*
G54D11*
G01X13110Y-36811D02*
G01X18070Y-36811D01*
G01X18070Y-36811D02*
G01X18267Y-36614D01*
G01X18267Y-36614D02*
G01X18267Y-31889D01*
G01X18267Y-31889D02*
G01X18070Y-31653D01*
G01X18070Y-31653D02*
G01X13464Y-31653D01*
G01X13464Y-31653D02*
G01X13110Y-32007D01*
G01X13110Y-32007D02*
G01X13110Y-36811D01*
G04 Draw part xtal*
G04 draw part outline for part xtal*
G01X4629Y-38125D02*
G01X4629Y-34125D01*
G01X4629Y-34125D02*
G01X6629Y-34125D01*
G01X6629Y-34125D02*
G01X6629Y-38125D01*
G01X6629Y-38125D02*
G01X4629Y-38125D01*
G04 Draw part xcap1*
G04 Draw part xcap2*
G04 Draw part eprres*
G04 Draw part vram2*
G04 draw part outline for part vram2*
G01X30669Y-47322D02*
G01X23622Y-47322D01*
G01X23622Y-47322D02*
G01X23622Y-43425D01*
G01X23622Y-43425D02*
G01X30866Y-43425D01*
G01X30866Y-43425D02*
G01X30866Y-47322D01*
G01X30866Y-47322D02*
G01X30669Y-47322D01*
G01X23897Y-47007D02*
G01X24251Y-47007D01*
G01X24251Y-47007D02*
G01X24251Y-46653D01*
G01X24251Y-46653D02*
G01X23897Y-46653D01*
G01X23897Y-46653D02*
G01X23897Y-47007D01*
G04 Draw part vrdec2*
G04 Draw part vrdec3*
G04 Draw part prodiode1*
G04 Draw part prodiode2*
G04 Draw part prodiode3*
G04 Draw part prodiode4*
G04 Draw part prodiode5*
G04 Draw part prodiode6*
G04 draw part outline for part prodiode6*
G54D10*
G01X41830Y-43346D02*
G01X43169Y-43346D01*
G01X43169Y-43346D02*
G01X43169Y-44055D01*
G01X43169Y-44055D02*
G01X41830Y-44055D01*
G01X41830Y-44055D02*
G01X41830Y-43346D01*
G04 Draw part prodiode7*
G04 draw part outline for part prodiode7*
G54D11*
G01X46359Y-41287D02*
G01X46359Y-36387D01*
G01X46359Y-36387D02*
G01X50959Y-36387D01*
G01X50959Y-36387D02*
G01X50959Y-41287D01*
G01X50959Y-41287D02*
G01X46359Y-41287D01*
G01X50059Y-41287D02*
G01X50059Y-36387D01*
G04 Draw part respulup*
G04 draw part outline for part respulup*
G54D10*
G01X10354Y-33169D02*
G01X10354Y-34507D01*
G01X10354Y-34507D02*
G01X9645Y-34507D01*
G01X9645Y-34507D02*
G01X9645Y-33169D01*
G01X9645Y-33169D02*
G01X10354Y-33169D01*
G04 Draw part epr2*
G04 Draw part eprdec*
G04 Draw part sd3m*
G04 draw part outline for part sd3m*
G54D11*
G01X11968Y-41811D02*
G01X11968Y-52480D01*
G01X11968Y-52480D02*
G01X1023Y-52480D01*
G01X1023Y-52480D02*
G01X1023Y-41811D01*
G01X1023Y-41811D02*
G01X11968Y-41811D01*
G01X11968Y-46811D02*
G01X1062Y-46811D01*
G04 Draw part oscdec*
G04 Draw part donepullup*
G04 draw part outline for part donepullup*
G54D10*
G01X10354Y-36240D02*
G01X10354Y-37578D01*
G01X10354Y-37578D02*
G01X9645Y-37578D01*
G01X9645Y-37578D02*
G01X9645Y-36240D01*
G01X9645Y-36240D02*
G01X10354Y-36240D01*
G04 Draw part initpullup*
G04 draw part outline for part initpullup*
G01X10354Y-34625D02*
G01X10354Y-35964D01*
G01X10354Y-35964D02*
G01X9645Y-35964D01*
G01X9645Y-35964D02*
G01X9645Y-34625D01*
G01X9645Y-34625D02*
G01X10354Y-34625D01*
G04 Draw part picdec*
G04 Draw part ezcap1*
G04 Draw part ezcap2*
G04 Draw part ezcap3*
G04 Draw part ezcap4*
G04 Draw part ezcap5*
G04 Draw part ezcap6*
G04 Draw part ezcap7*
G04 Draw part ezcap8*
G04 Draw part vrdec1*
G04 draw part outline for part vrdec1*
G01X38220Y-29145D02*
G01X37920Y-29145D01*
G01X38070Y-29295D02*
G01X38070Y-28995D01*
G01X36340Y-29645D02*
G01X36341Y-29685D01*
G01X36343Y-29725D01*
G01X36346Y-29764D01*
G01X36351Y-29804D01*
G01X36356Y-29843D01*
G01X36363Y-29882D01*
G01X36371Y-29921D01*
G01X36381Y-29960D01*
G01X36392Y-29998D01*
G01X36404Y-30036D01*
G01X36417Y-30073D01*
G01X36431Y-30111D01*
G01X36446Y-30147D01*
G01X36463Y-30183D01*
G01X36481Y-30219D01*
G01X36500Y-30254D01*
G01X36520Y-30288D01*
G01X36541Y-30322D01*
G01X36563Y-30355D01*
G01X36587Y-30387D01*
G01X36611Y-30418D01*
G01X36636Y-30449D01*
G01X36662Y-30479D01*
G01X36690Y-30508D01*
G01X36718Y-30536D01*
G01X36747Y-30563D01*
G01X36777Y-30589D01*
G01X36807Y-30615D01*
G01X36839Y-30639D01*
G01X36871Y-30662D01*
G01X36904Y-30684D01*
G01X36938Y-30706D01*
G01X36972Y-30726D01*
G01X37007Y-30745D01*
G01X37042Y-30762D01*
G01X37078Y-30779D01*
G01X37115Y-30795D01*
G01X37152Y-30809D01*
G01X37190Y-30822D01*
G01X37228Y-30834D01*
G01X37266Y-30845D01*
G01X37304Y-30854D01*
G01X37343Y-30862D01*
G01X37382Y-30869D01*
G01X37422Y-30875D01*
G01X37461Y-30879D01*
G01X37501Y-30883D01*
G01X37541Y-30885D01*
G01X37580Y-30885D01*
G01X37580Y-30885D02*
G01X37620Y-30885D01*
G01X37660Y-30883D01*
G01X37699Y-30879D01*
G01X37739Y-30875D01*
G01X37778Y-30869D01*
G01X37817Y-30862D01*
G01X37856Y-30854D01*
G01X37895Y-30845D01*
G01X37933Y-30834D01*
G01X37971Y-30822D01*
G01X38009Y-30809D01*
G01X38046Y-30795D01*
G01X38082Y-30779D01*
G01X38118Y-30762D01*
G01X38154Y-30745D01*
G01X38189Y-30726D01*
G01X38223Y-30706D01*
G01X38257Y-30684D01*
G01X38290Y-30662D01*
G01X38322Y-30639D01*
G01X38353Y-30615D01*
G01X38384Y-30589D01*
G01X38414Y-30563D01*
G01X38443Y-30536D01*
G01X38471Y-30508D01*
G01X38498Y-30479D01*
G01X38525Y-30449D01*
G01X38550Y-30418D01*
G01X38574Y-30387D01*
G01X38597Y-30355D01*
G01X38620Y-30322D01*
G01X38641Y-30288D01*
G01X38661Y-30254D01*
G01X38680Y-30219D01*
G01X38698Y-30183D01*
G01X38714Y-30147D01*
G01X38730Y-30111D01*
G01X38744Y-30073D01*
G01X38757Y-30036D01*
G01X38769Y-29998D01*
G01X38780Y-29960D01*
G01X38789Y-29921D01*
G01X38797Y-29882D01*
G01X38804Y-29843D01*
G01X38810Y-29804D01*
G01X38815Y-29764D01*
G01X38818Y-29725D01*
G01X38820Y-29685D01*
G01X38820Y-29645D01*
G01X38820Y-29645D02*
G01X38820Y-29605D01*
G01X38818Y-29566D01*
G01X38815Y-29526D01*
G01X38810Y-29487D01*
G01X38804Y-29447D01*
G01X38797Y-29408D01*
G01X38789Y-29369D01*
G01X38780Y-29331D01*
G01X38769Y-29292D01*
G01X38757Y-29254D01*
G01X38744Y-29217D01*
G01X38730Y-29180D01*
G01X38714Y-29143D01*
G01X38698Y-29107D01*
G01X38680Y-29072D01*
G01X38661Y-29037D01*
G01X38641Y-29002D01*
G01X38620Y-28969D01*
G01X38597Y-28936D01*
G01X38574Y-28904D01*
G01X38550Y-28872D01*
G01X38525Y-28841D01*
G01X38498Y-28812D01*
G01X38471Y-28783D01*
G01X38443Y-28754D01*
G01X38414Y-28727D01*
G01X38384Y-28701D01*
G01X38353Y-28676D01*
G01X38322Y-28651D01*
G01X38290Y-28628D01*
G01X38257Y-28606D01*
G01X38223Y-28585D01*
G01X38189Y-28565D01*
G01X38154Y-28546D01*
G01X38118Y-28528D01*
G01X38082Y-28511D01*
G01X38046Y-28496D01*
G01X38009Y-28481D01*
G01X37971Y-28468D01*
G01X37933Y-28456D01*
G01X37895Y-28446D01*
G01X37856Y-28436D01*
G01X37817Y-28428D01*
G01X37778Y-28421D01*
G01X37739Y-28415D01*
G01X37699Y-28411D01*
G01X37660Y-28408D01*
G01X37620Y-28406D01*
G01X37580Y-28405D01*
G01X37580Y-28405D02*
G01X37541Y-28406D01*
G01X37501Y-28408D01*
G01X37461Y-28411D01*
G01X37422Y-28415D01*
G01X37382Y-28421D01*
G01X37343Y-28428D01*
G01X37304Y-28436D01*
G01X37266Y-28446D01*
G01X37228Y-28456D01*
G01X37190Y-28468D01*
G01X37152Y-28481D01*
G01X37115Y-28496D01*
G01X37078Y-28511D01*
G01X37042Y-28528D01*
G01X37007Y-28546D01*
G01X36972Y-28565D01*
G01X36938Y-28585D01*
G01X36904Y-28606D01*
G01X36871Y-28628D01*
G01X36839Y-28651D01*
G01X36807Y-28676D01*
G01X36777Y-28701D01*
G01X36747Y-28727D01*
G01X36718Y-28754D01*
G01X36690Y-28783D01*
G01X36662Y-28812D01*
G01X36636Y-28841D01*
G01X36611Y-28872D01*
G01X36587Y-28904D01*
G01X36563Y-28936D01*
G01X36541Y-28969D01*
G01X36520Y-29002D01*
G01X36500Y-29037D01*
G01X36481Y-29072D01*
G01X36463Y-29107D01*
G01X36446Y-29143D01*
G01X36431Y-29180D01*
G01X36417Y-29217D01*
G01X36404Y-29254D01*
G01X36392Y-29292D01*
G01X36381Y-29331D01*
G01X36371Y-29369D01*
G01X36363Y-29408D01*
G01X36356Y-29447D01*
G01X36351Y-29487D01*
G01X36346Y-29526D01*
G01X36343Y-29566D01*
G01X36341Y-29605D01*
G01X36340Y-29645D01*
G04 Draw part vrdec4*
G04 draw part outline for part vrdec4*
G01X41704Y-31975D02*
G01X41704Y-32275D01*
G01X41854Y-32125D02*
G01X41554Y-32125D01*
G01X42204Y-33855D02*
G01X42244Y-33855D01*
G01X42284Y-33853D01*
G01X42323Y-33850D01*
G01X42363Y-33845D01*
G01X42402Y-33840D01*
G01X42441Y-33833D01*
G01X42480Y-33824D01*
G01X42519Y-33815D01*
G01X42557Y-33804D01*
G01X42595Y-33792D01*
G01X42632Y-33779D01*
G01X42670Y-33765D01*
G01X42706Y-33749D01*
G01X42742Y-33733D01*
G01X42778Y-33715D01*
G01X42813Y-33696D01*
G01X42847Y-33676D01*
G01X42881Y-33655D01*
G01X42914Y-33632D01*
G01X42946Y-33609D01*
G01X42977Y-33585D01*
G01X43008Y-33560D01*
G01X43038Y-33533D01*
G01X43067Y-33506D01*
G01X43095Y-33478D01*
G01X43122Y-33449D01*
G01X43148Y-33419D01*
G01X43174Y-33389D01*
G01X43198Y-33357D01*
G01X43221Y-33325D01*
G01X43243Y-33292D01*
G01X43265Y-33258D01*
G01X43285Y-33224D01*
G01X43304Y-33189D01*
G01X43321Y-33154D01*
G01X43338Y-33117D01*
G01X43354Y-33081D01*
G01X43368Y-33044D01*
G01X43381Y-33006D01*
G01X43393Y-32968D01*
G01X43404Y-32930D01*
G01X43413Y-32891D01*
G01X43421Y-32853D01*
G01X43428Y-32813D01*
G01X43434Y-32774D01*
G01X43438Y-32735D01*
G01X43442Y-32695D01*
G01X43444Y-32655D01*
G01X43444Y-32615D01*
G01X43444Y-32615D02*
G01X43444Y-32576D01*
G01X43442Y-32536D01*
G01X43438Y-32496D01*
G01X43434Y-32457D01*
G01X43428Y-32418D01*
G01X43421Y-32378D01*
G01X43413Y-32340D01*
G01X43404Y-32301D01*
G01X43393Y-32263D01*
G01X43381Y-32225D01*
G01X43368Y-32187D01*
G01X43354Y-32150D01*
G01X43338Y-32114D01*
G01X43321Y-32077D01*
G01X43304Y-32042D01*
G01X43285Y-32007D01*
G01X43265Y-31973D01*
G01X43243Y-31939D01*
G01X43221Y-31906D01*
G01X43198Y-31874D01*
G01X43174Y-31842D01*
G01X43148Y-31812D01*
G01X43122Y-31782D01*
G01X43095Y-31753D01*
G01X43067Y-31725D01*
G01X43038Y-31698D01*
G01X43008Y-31671D01*
G01X42977Y-31646D01*
G01X42946Y-31622D01*
G01X42914Y-31598D01*
G01X42881Y-31576D01*
G01X42847Y-31555D01*
G01X42813Y-31535D01*
G01X42778Y-31516D01*
G01X42742Y-31498D01*
G01X42706Y-31482D01*
G01X42670Y-31466D01*
G01X42632Y-31452D01*
G01X42595Y-31439D01*
G01X42557Y-31427D01*
G01X42519Y-31416D01*
G01X42480Y-31407D01*
G01X42441Y-31398D01*
G01X42402Y-31391D01*
G01X42363Y-31386D01*
G01X42323Y-31381D01*
G01X42284Y-31378D01*
G01X42244Y-31376D01*
G01X42204Y-31375D01*
G01X42204Y-31375D02*
G01X42164Y-31376D01*
G01X42125Y-31378D01*
G01X42085Y-31381D01*
G01X42046Y-31386D01*
G01X42006Y-31391D01*
G01X41967Y-31398D01*
G01X41928Y-31407D01*
G01X41890Y-31416D01*
G01X41851Y-31427D01*
G01X41813Y-31439D01*
G01X41776Y-31452D01*
G01X41739Y-31466D01*
G01X41702Y-31482D01*
G01X41666Y-31498D01*
G01X41631Y-31516D01*
G01X41596Y-31535D01*
G01X41561Y-31555D01*
G01X41528Y-31576D01*
G01X41495Y-31598D01*
G01X41463Y-31622D01*
G01X41431Y-31646D01*
G01X41400Y-31671D01*
G01X41371Y-31698D01*
G01X41342Y-31725D01*
G01X41313Y-31753D01*
G01X41286Y-31782D01*
G01X41260Y-31812D01*
G01X41235Y-31842D01*
G01X41210Y-31874D01*
G01X41187Y-31906D01*
G01X41165Y-31939D01*
G01X41144Y-31973D01*
G01X41124Y-32007D01*
G01X41105Y-32042D01*
G01X41087Y-32077D01*
G01X41070Y-32114D01*
G01X41055Y-32150D01*
G01X41041Y-32187D01*
G01X41027Y-32225D01*
G01X41015Y-32263D01*
G01X41005Y-32301D01*
G01X40995Y-32340D01*
G01X40987Y-32378D01*
G01X40980Y-32418D01*
G01X40974Y-32457D01*
G01X40970Y-32496D01*
G01X40967Y-32536D01*
G01X40965Y-32576D01*
G01X40964Y-32615D01*
G01X40964Y-32615D02*
G01X40965Y-32655D01*
G01X40967Y-32695D01*
G01X40970Y-32735D01*
G01X40974Y-32774D01*
G01X40980Y-32813D01*
G01X40987Y-32853D01*
G01X40995Y-32891D01*
G01X41005Y-32930D01*
G01X41015Y-32968D01*
G01X41027Y-33006D01*
G01X41041Y-33044D01*
G01X41055Y-33081D01*
G01X41070Y-33117D01*
G01X41087Y-33154D01*
G01X41105Y-33189D01*
G01X41124Y-33224D01*
G01X41144Y-33258D01*
G01X41165Y-33292D01*
G01X41187Y-33325D01*
G01X41210Y-33357D01*
G01X41235Y-33389D01*
G01X41260Y-33419D01*
G01X41286Y-33449D01*
G01X41313Y-33478D01*
G01X41342Y-33506D01*
G01X41371Y-33533D01*
G01X41400Y-33560D01*
G01X41431Y-33585D01*
G01X41463Y-33609D01*
G01X41495Y-33632D01*
G01X41528Y-33655D01*
G01X41561Y-33676D01*
G01X41596Y-33696D01*
G01X41631Y-33715D01*
G01X41666Y-33733D01*
G01X41702Y-33749D01*
G01X41739Y-33765D01*
G01X41776Y-33779D01*
G01X41813Y-33792D01*
G01X41851Y-33804D01*
G01X41890Y-33815D01*
G01X41928Y-33824D01*
G01X41967Y-33833D01*
G01X42006Y-33840D01*
G01X42046Y-33845D01*
G01X42085Y-33850D01*
G01X42125Y-33853D01*
G01X42164Y-33855D01*
G01X42204Y-33855D01*
G04 Draw part frres*
G04 Draw part powvia1*
G04 draw part outline for part powvia1*
G04 Draw part powcap2*
G04 draw part outline for part powcap2*
G01X37330Y-25145D02*
G01X37630Y-25145D01*
G01X37480Y-24995D02*
G01X37480Y-25295D01*
G01X39210Y-24645D02*
G01X39209Y-24605D01*
G01X39207Y-24566D01*
G01X39204Y-24526D01*
G01X39200Y-24487D01*
G01X39194Y-24447D01*
G01X39187Y-24408D01*
G01X39179Y-24369D01*
G01X39169Y-24331D01*
G01X39159Y-24292D01*
G01X39147Y-24254D01*
G01X39134Y-24217D01*
G01X39119Y-24180D01*
G01X39104Y-24143D01*
G01X39087Y-24107D01*
G01X39069Y-24072D01*
G01X39050Y-24037D01*
G01X39030Y-24002D01*
G01X39009Y-23969D01*
G01X38987Y-23936D01*
G01X38964Y-23904D01*
G01X38939Y-23872D01*
G01X38914Y-23841D01*
G01X38888Y-23812D01*
G01X38861Y-23783D01*
G01X38832Y-23754D01*
G01X38803Y-23727D01*
G01X38774Y-23701D01*
G01X38743Y-23676D01*
G01X38711Y-23651D01*
G01X38679Y-23628D01*
G01X38646Y-23606D01*
G01X38613Y-23585D01*
G01X38578Y-23565D01*
G01X38543Y-23546D01*
G01X38508Y-23528D01*
G01X38472Y-23511D01*
G01X38435Y-23496D01*
G01X38398Y-23481D01*
G01X38361Y-23468D01*
G01X38323Y-23456D01*
G01X38284Y-23446D01*
G01X38246Y-23436D01*
G01X38207Y-23428D01*
G01X38168Y-23421D01*
G01X38128Y-23415D01*
G01X38089Y-23411D01*
G01X38049Y-23408D01*
G01X38010Y-23406D01*
G01X37970Y-23405D01*
G01X37970Y-23405D02*
G01X37930Y-23406D01*
G01X37890Y-23408D01*
G01X37851Y-23411D01*
G01X37811Y-23415D01*
G01X37772Y-23421D01*
G01X37733Y-23428D01*
G01X37694Y-23436D01*
G01X37655Y-23446D01*
G01X37617Y-23456D01*
G01X37579Y-23468D01*
G01X37542Y-23481D01*
G01X37504Y-23496D01*
G01X37468Y-23511D01*
G01X37432Y-23528D01*
G01X37396Y-23546D01*
G01X37361Y-23565D01*
G01X37327Y-23585D01*
G01X37293Y-23606D01*
G01X37260Y-23628D01*
G01X37228Y-23651D01*
G01X37197Y-23676D01*
G01X37166Y-23701D01*
G01X37136Y-23727D01*
G01X37107Y-23754D01*
G01X37079Y-23783D01*
G01X37052Y-23812D01*
G01X37026Y-23841D01*
G01X37000Y-23872D01*
G01X36976Y-23904D01*
G01X36953Y-23936D01*
G01X36931Y-23969D01*
G01X36909Y-24002D01*
G01X36889Y-24037D01*
G01X36870Y-24072D01*
G01X36853Y-24107D01*
G01X36836Y-24143D01*
G01X36820Y-24180D01*
G01X36806Y-24217D01*
G01X36793Y-24254D01*
G01X36781Y-24292D01*
G01X36770Y-24331D01*
G01X36761Y-24369D01*
G01X36753Y-24408D01*
G01X36746Y-24447D01*
G01X36740Y-24487D01*
G01X36736Y-24526D01*
G01X36732Y-24566D01*
G01X36730Y-24605D01*
G01X36730Y-24645D01*
G01X36730Y-24645D02*
G01X36730Y-24685D01*
G01X36732Y-24725D01*
G01X36736Y-24764D01*
G01X36740Y-24804D01*
G01X36746Y-24843D01*
G01X36753Y-24882D01*
G01X36761Y-24921D01*
G01X36770Y-24960D01*
G01X36781Y-24998D01*
G01X36793Y-25036D01*
G01X36806Y-25073D01*
G01X36820Y-25111D01*
G01X36836Y-25147D01*
G01X36853Y-25183D01*
G01X36870Y-25219D01*
G01X36889Y-25254D01*
G01X36909Y-25288D01*
G01X36931Y-25322D01*
G01X36953Y-25355D01*
G01X36976Y-25387D01*
G01X37000Y-25418D01*
G01X37026Y-25449D01*
G01X37052Y-25479D01*
G01X37079Y-25508D01*
G01X37107Y-25536D01*
G01X37136Y-25563D01*
G01X37166Y-25589D01*
G01X37197Y-25615D01*
G01X37228Y-25639D01*
G01X37260Y-25662D01*
G01X37293Y-25684D01*
G01X37327Y-25706D01*
G01X37361Y-25726D01*
G01X37396Y-25745D01*
G01X37432Y-25762D01*
G01X37468Y-25779D01*
G01X37504Y-25795D01*
G01X37542Y-25809D01*
G01X37579Y-25822D01*
G01X37617Y-25834D01*
G01X37655Y-25845D01*
G01X37694Y-25854D01*
G01X37733Y-25862D01*
G01X37772Y-25869D01*
G01X37811Y-25875D01*
G01X37851Y-25879D01*
G01X37890Y-25883D01*
G01X37930Y-25885D01*
G01X37970Y-25885D01*
G01X37970Y-25885D02*
G01X38010Y-25885D01*
G01X38049Y-25883D01*
G01X38089Y-25879D01*
G01X38128Y-25875D01*
G01X38168Y-25869D01*
G01X38207Y-25862D01*
G01X38246Y-25854D01*
G01X38284Y-25845D01*
G01X38323Y-25834D01*
G01X38361Y-25822D01*
G01X38398Y-25809D01*
G01X38435Y-25795D01*
G01X38472Y-25779D01*
G01X38508Y-25762D01*
G01X38543Y-25745D01*
G01X38578Y-25726D01*
G01X38613Y-25706D01*
G01X38646Y-25684D01*
G01X38679Y-25662D01*
G01X38711Y-25639D01*
G01X38743Y-25615D01*
G01X38774Y-25589D01*
G01X38803Y-25563D01*
G01X38832Y-25536D01*
G01X38861Y-25508D01*
G01X38888Y-25479D01*
G01X38914Y-25449D01*
G01X38939Y-25418D01*
G01X38964Y-25387D01*
G01X38987Y-25355D01*
G01X39009Y-25322D01*
G01X39030Y-25288D01*
G01X39050Y-25254D01*
G01X39069Y-25219D01*
G01X39087Y-25183D01*
G01X39104Y-25147D01*
G01X39119Y-25111D01*
G01X39134Y-25073D01*
G01X39147Y-25036D01*
G01X39159Y-24998D01*
G01X39169Y-24960D01*
G01X39179Y-24921D01*
G01X39187Y-24882D01*
G01X39194Y-24843D01*
G01X39200Y-24804D01*
G01X39204Y-24764D01*
G01X39207Y-24725D01*
G01X39209Y-24685D01*
G01X39210Y-24645D01*
G04 Draw part powcap3*
G04 draw part outline for part powcap3*
G04 Draw part vccdec*
G04 draw part outline for part vccdec*
G01X37369Y-19751D02*
G01X37669Y-19751D01*
G01X37519Y-19601D02*
G01X37519Y-19901D01*
G01X39249Y-19251D02*
G01X39249Y-19212D01*
G01X39247Y-19172D01*
G01X39243Y-19132D01*
G01X39239Y-19093D01*
G01X39233Y-19054D01*
G01X39226Y-19014D01*
G01X39218Y-18976D01*
G01X39209Y-18937D01*
G01X39198Y-18899D01*
G01X39186Y-18861D01*
G01X39173Y-18823D01*
G01X39159Y-18786D01*
G01X39143Y-18750D01*
G01X39126Y-18713D01*
G01X39109Y-18678D01*
G01X39090Y-18643D01*
G01X39070Y-18609D01*
G01X39048Y-18575D01*
G01X39026Y-18542D01*
G01X39003Y-18510D01*
G01X38979Y-18478D01*
G01X38953Y-18448D01*
G01X38927Y-18418D01*
G01X38900Y-18389D01*
G01X38872Y-18361D01*
G01X38843Y-18334D01*
G01X38813Y-18307D01*
G01X38782Y-18282D01*
G01X38751Y-18258D01*
G01X38719Y-18234D01*
G01X38686Y-18212D01*
G01X38652Y-18191D01*
G01X38618Y-18171D01*
G01X38583Y-18152D01*
G01X38547Y-18134D01*
G01X38511Y-18118D01*
G01X38475Y-18102D01*
G01X38437Y-18088D01*
G01X38400Y-18075D01*
G01X38362Y-18063D01*
G01X38324Y-18052D01*
G01X38285Y-18043D01*
G01X38246Y-18034D01*
G01X38207Y-18027D01*
G01X38168Y-18022D01*
G01X38128Y-18017D01*
G01X38089Y-18014D01*
G01X38049Y-18012D01*
G01X38009Y-18011D01*
G01X38009Y-18011D02*
G01X37969Y-18012D01*
G01X37930Y-18014D01*
G01X37890Y-18017D01*
G01X37851Y-18022D01*
G01X37811Y-18027D01*
G01X37772Y-18034D01*
G01X37733Y-18043D01*
G01X37695Y-18052D01*
G01X37656Y-18063D01*
G01X37618Y-18075D01*
G01X37581Y-18088D01*
G01X37544Y-18102D01*
G01X37507Y-18118D01*
G01X37471Y-18134D01*
G01X37436Y-18152D01*
G01X37401Y-18171D01*
G01X37366Y-18191D01*
G01X37333Y-18212D01*
G01X37300Y-18234D01*
G01X37268Y-18258D01*
G01X37236Y-18282D01*
G01X37205Y-18307D01*
G01X37176Y-18334D01*
G01X37147Y-18361D01*
G01X37118Y-18389D01*
G01X37091Y-18418D01*
G01X37065Y-18448D01*
G01X37040Y-18478D01*
G01X37015Y-18510D01*
G01X36992Y-18542D01*
G01X36970Y-18575D01*
G01X36949Y-18609D01*
G01X36929Y-18643D01*
G01X36910Y-18678D01*
G01X36892Y-18713D01*
G01X36875Y-18750D01*
G01X36860Y-18786D01*
G01X36845Y-18823D01*
G01X36832Y-18861D01*
G01X36820Y-18899D01*
G01X36810Y-18937D01*
G01X36800Y-18976D01*
G01X36792Y-19014D01*
G01X36785Y-19054D01*
G01X36779Y-19093D01*
G01X36775Y-19132D01*
G01X36772Y-19172D01*
G01X36770Y-19212D01*
G01X36769Y-19251D01*
G01X36769Y-19251D02*
G01X36770Y-19291D01*
G01X36772Y-19331D01*
G01X36775Y-19371D01*
G01X36779Y-19410D01*
G01X36785Y-19449D01*
G01X36792Y-19489D01*
G01X36800Y-19527D01*
G01X36810Y-19566D01*
G01X36820Y-19604D01*
G01X36832Y-19642D01*
G01X36845Y-19680D01*
G01X36860Y-19717D01*
G01X36875Y-19753D01*
G01X36892Y-19789D01*
G01X36910Y-19825D01*
G01X36929Y-19860D01*
G01X36949Y-19894D01*
G01X36970Y-19928D01*
G01X36992Y-19961D01*
G01X37015Y-19993D01*
G01X37040Y-20025D01*
G01X37065Y-20055D01*
G01X37091Y-20085D01*
G01X37118Y-20114D01*
G01X37147Y-20142D01*
G01X37176Y-20169D01*
G01X37205Y-20196D01*
G01X37236Y-20221D01*
G01X37268Y-20245D01*
G01X37300Y-20268D01*
G01X37333Y-20291D01*
G01X37366Y-20312D01*
G01X37401Y-20332D01*
G01X37436Y-20351D01*
G01X37471Y-20369D01*
G01X37507Y-20385D01*
G01X37544Y-20401D01*
G01X37581Y-20415D01*
G01X37618Y-20428D01*
G01X37656Y-20440D01*
G01X37695Y-20451D01*
G01X37733Y-20460D01*
G01X37772Y-20469D01*
G01X37811Y-20476D01*
G01X37851Y-20481D01*
G01X37890Y-20486D01*
G01X37930Y-20489D01*
G01X37969Y-20491D01*
G01X38009Y-20491D01*
G01X38009Y-20491D02*
G01X38049Y-20491D01*
G01X38089Y-20489D01*
G01X38128Y-20486D01*
G01X38168Y-20481D01*
G01X38207Y-20476D01*
G01X38246Y-20469D01*
G01X38285Y-20460D01*
G01X38324Y-20451D01*
G01X38362Y-20440D01*
G01X38400Y-20428D01*
G01X38437Y-20415D01*
G01X38475Y-20401D01*
G01X38511Y-20385D01*
G01X38547Y-20369D01*
G01X38583Y-20351D01*
G01X38618Y-20332D01*
G01X38652Y-20312D01*
G01X38686Y-20291D01*
G01X38719Y-20268D01*
G01X38751Y-20245D01*
G01X38782Y-20221D01*
G01X38813Y-20196D01*
G01X38843Y-20169D01*
G01X38872Y-20142D01*
G01X38900Y-20114D01*
G01X38927Y-20085D01*
G01X38953Y-20055D01*
G01X38979Y-20025D01*
G01X39003Y-19993D01*
G01X39026Y-19961D01*
G01X39048Y-19928D01*
G01X39070Y-19894D01*
G01X39090Y-19860D01*
G01X39109Y-19825D01*
G01X39126Y-19789D01*
G01X39143Y-19753D01*
G01X39159Y-19717D01*
G01X39173Y-19680D01*
G01X39186Y-19642D01*
G01X39198Y-19604D01*
G01X39209Y-19566D01*
G01X39218Y-19527D01*
G01X39226Y-19489D01*
G01X39233Y-19449D01*
G01X39239Y-19410D01*
G01X39243Y-19371D01*
G01X39247Y-19331D01*
G01X39249Y-19291D01*
G01X39249Y-19251D01*
G04 Draw part myvia2*
G04 draw part outline for part myvia2*
G04 Draw part myvia3*
G04 draw part outline for part myvia3*
G04 Draw part myvia4*
G04 draw part outline for part myvia4*
G04 Draw part myvia5*
G04 draw part outline for part myvia5*
G04 Draw part cpupowvia1*
G04 draw part outline for part cpupowvia1*
G04 Draw part jres7*
G04 Draw part sdpowreg*
G04 Draw part scdecapv*
G04 draw part outline for part scdecapv*
G01X14850Y-46838D02*
G01X15150Y-46838D01*
G01X15000Y-46688D02*
G01X15000Y-46988D01*
G01X16730Y-46338D02*
G01X16729Y-46298D01*
G01X16727Y-46259D01*
G01X16724Y-46219D01*
G01X16719Y-46180D01*
G01X16714Y-46140D01*
G01X16707Y-46101D01*
G01X16698Y-46062D01*
G01X16689Y-46024D01*
G01X16678Y-45985D01*
G01X16666Y-45947D01*
G01X16653Y-45910D01*
G01X16639Y-45873D01*
G01X16623Y-45836D01*
G01X16607Y-45800D01*
G01X16589Y-45765D01*
G01X16570Y-45730D01*
G01X16550Y-45695D01*
G01X16529Y-45662D01*
G01X16507Y-45629D01*
G01X16483Y-45596D01*
G01X16459Y-45565D01*
G01X16434Y-45534D01*
G01X16407Y-45504D01*
G01X16380Y-45475D01*
G01X16352Y-45447D01*
G01X16323Y-45420D01*
G01X16293Y-45394D01*
G01X16263Y-45369D01*
G01X16231Y-45344D01*
G01X16199Y-45321D01*
G01X16166Y-45299D01*
G01X16132Y-45278D01*
G01X16098Y-45258D01*
G01X16063Y-45239D01*
G01X16028Y-45221D01*
G01X15991Y-45204D01*
G01X15955Y-45189D01*
G01X15918Y-45174D01*
G01X15880Y-45161D01*
G01X15842Y-45149D01*
G01X15804Y-45139D01*
G01X15765Y-45129D01*
G01X15727Y-45121D01*
G01X15687Y-45114D01*
G01X15648Y-45108D01*
G01X15609Y-45104D01*
G01X15569Y-45101D01*
G01X15529Y-45099D01*
G01X15490Y-45098D01*
G01X15490Y-45098D02*
G01X15450Y-45099D01*
G01X15410Y-45101D01*
G01X15370Y-45104D01*
G01X15331Y-45108D01*
G01X15292Y-45114D01*
G01X15252Y-45121D01*
G01X15214Y-45129D01*
G01X15175Y-45139D01*
G01X15137Y-45149D01*
G01X15099Y-45161D01*
G01X15061Y-45174D01*
G01X15024Y-45189D01*
G01X14988Y-45204D01*
G01X14951Y-45221D01*
G01X14916Y-45239D01*
G01X14881Y-45258D01*
G01X14847Y-45278D01*
G01X14813Y-45299D01*
G01X14780Y-45321D01*
G01X14748Y-45344D01*
G01X14716Y-45369D01*
G01X14686Y-45394D01*
G01X14656Y-45420D01*
G01X14627Y-45447D01*
G01X14599Y-45475D01*
G01X14572Y-45504D01*
G01X14545Y-45534D01*
G01X14520Y-45565D01*
G01X14496Y-45596D01*
G01X14472Y-45629D01*
G01X14450Y-45662D01*
G01X14429Y-45695D01*
G01X14409Y-45730D01*
G01X14390Y-45765D01*
G01X14372Y-45800D01*
G01X14356Y-45836D01*
G01X14340Y-45873D01*
G01X14326Y-45910D01*
G01X14313Y-45947D01*
G01X14301Y-45985D01*
G01X14290Y-46024D01*
G01X14281Y-46062D01*
G01X14272Y-46101D01*
G01X14265Y-46140D01*
G01X14260Y-46180D01*
G01X14255Y-46219D01*
G01X14252Y-46259D01*
G01X14250Y-46298D01*
G01X14250Y-46338D01*
G01X14250Y-46338D02*
G01X14250Y-46378D01*
G01X14252Y-46418D01*
G01X14255Y-46457D01*
G01X14260Y-46497D01*
G01X14265Y-46536D01*
G01X14272Y-46575D01*
G01X14281Y-46614D01*
G01X14290Y-46653D01*
G01X14301Y-46691D01*
G01X14313Y-46729D01*
G01X14326Y-46766D01*
G01X14340Y-46803D01*
G01X14356Y-46840D01*
G01X14372Y-46876D01*
G01X14390Y-46912D01*
G01X14409Y-46947D01*
G01X14429Y-46981D01*
G01X14450Y-47015D01*
G01X14472Y-47048D01*
G01X14496Y-47080D01*
G01X14520Y-47111D01*
G01X14545Y-47142D01*
G01X14572Y-47172D01*
G01X14599Y-47201D01*
G01X14627Y-47229D01*
G01X14656Y-47256D01*
G01X14686Y-47282D01*
G01X14716Y-47308D01*
G01X14748Y-47332D01*
G01X14780Y-47355D01*
G01X14813Y-47377D01*
G01X14847Y-47398D01*
G01X14881Y-47419D01*
G01X14916Y-47437D01*
G01X14951Y-47455D01*
G01X14988Y-47472D01*
G01X15024Y-47487D01*
G01X15061Y-47502D01*
G01X15099Y-47515D01*
G01X15137Y-47527D01*
G01X15175Y-47538D01*
G01X15214Y-47547D01*
G01X15252Y-47555D01*
G01X15292Y-47562D01*
G01X15331Y-47568D01*
G01X15370Y-47572D01*
G01X15410Y-47576D01*
G01X15450Y-47577D01*
G01X15490Y-47578D01*
G01X15490Y-47578D02*
G01X15529Y-47577D01*
G01X15569Y-47576D01*
G01X15609Y-47572D01*
G01X15648Y-47568D01*
G01X15687Y-47562D01*
G01X15727Y-47555D01*
G01X15765Y-47547D01*
G01X15804Y-47538D01*
G01X15842Y-47527D01*
G01X15880Y-47515D01*
G01X15918Y-47502D01*
G01X15955Y-47487D01*
G01X15991Y-47472D01*
G01X16028Y-47455D01*
G01X16063Y-47437D01*
G01X16098Y-47419D01*
G01X16132Y-47398D01*
G01X16166Y-47377D01*
G01X16199Y-47355D01*
G01X16231Y-47332D01*
G01X16263Y-47308D01*
G01X16293Y-47282D01*
G01X16323Y-47256D01*
G01X16352Y-47229D01*
G01X16380Y-47201D01*
G01X16407Y-47172D01*
G01X16434Y-47142D01*
G01X16459Y-47111D01*
G01X16483Y-47080D01*
G01X16507Y-47048D01*
G01X16529Y-47015D01*
G01X16550Y-46981D01*
G01X16570Y-46947D01*
G01X16589Y-46912D01*
G01X16607Y-46876D01*
G01X16623Y-46840D01*
G01X16639Y-46803D01*
G01X16653Y-46766D01*
G01X16666Y-46729D01*
G01X16678Y-46691D01*
G01X16689Y-46653D01*
G01X16698Y-46614D01*
G01X16707Y-46575D01*
G01X16714Y-46536D01*
G01X16719Y-46497D01*
G01X16724Y-46457D01*
G01X16727Y-46418D01*
G01X16729Y-46378D01*
G01X16730Y-46338D01*
G04 Draw part scdecap2*
G04 draw part outline for part scdecap2*
G01X14810Y-52192D02*
G01X15110Y-52192D01*
G01X14960Y-52042D02*
G01X14960Y-52342D01*
G01X16690Y-51692D02*
G01X16689Y-51653D01*
G01X16688Y-51613D01*
G01X16684Y-51573D01*
G01X16680Y-51534D01*
G01X16674Y-51495D01*
G01X16667Y-51455D01*
G01X16659Y-51416D01*
G01X16650Y-51378D01*
G01X16639Y-51340D01*
G01X16627Y-51302D01*
G01X16614Y-51264D01*
G01X16600Y-51227D01*
G01X16584Y-51190D01*
G01X16567Y-51154D01*
G01X16550Y-51119D01*
G01X16531Y-51084D01*
G01X16511Y-51050D01*
G01X16489Y-51016D01*
G01X16467Y-50983D01*
G01X16444Y-50951D01*
G01X16420Y-50919D01*
G01X16394Y-50889D01*
G01X16368Y-50859D01*
G01X16341Y-50830D01*
G01X16313Y-50802D01*
G01X16284Y-50774D01*
G01X16254Y-50748D01*
G01X16223Y-50723D01*
G01X16192Y-50699D01*
G01X16160Y-50675D01*
G01X16127Y-50653D01*
G01X16093Y-50632D01*
G01X16059Y-50612D01*
G01X16024Y-50593D01*
G01X15988Y-50575D01*
G01X15952Y-50559D01*
G01X15915Y-50543D01*
G01X15878Y-50529D01*
G01X15841Y-50516D01*
G01X15803Y-50504D01*
G01X15765Y-50493D01*
G01X15726Y-50484D01*
G01X15687Y-50475D01*
G01X15648Y-50468D01*
G01X15609Y-50463D01*
G01X15569Y-50458D01*
G01X15530Y-50455D01*
G01X15490Y-50453D01*
G01X15450Y-50452D01*
G01X15450Y-50452D02*
G01X15410Y-50453D01*
G01X15371Y-50455D01*
G01X15331Y-50458D01*
G01X15292Y-50463D01*
G01X15252Y-50468D01*
G01X15213Y-50475D01*
G01X15174Y-50484D01*
G01X15136Y-50493D01*
G01X15097Y-50504D01*
G01X15059Y-50516D01*
G01X15022Y-50529D01*
G01X14985Y-50543D01*
G01X14948Y-50559D01*
G01X14912Y-50575D01*
G01X14877Y-50593D01*
G01X14842Y-50612D01*
G01X14807Y-50632D01*
G01X14774Y-50653D01*
G01X14741Y-50675D01*
G01X14708Y-50699D01*
G01X14677Y-50723D01*
G01X14646Y-50748D01*
G01X14616Y-50774D01*
G01X14587Y-50802D01*
G01X14559Y-50830D01*
G01X14532Y-50859D01*
G01X14506Y-50889D01*
G01X14481Y-50919D01*
G01X14456Y-50951D01*
G01X14433Y-50983D01*
G01X14411Y-51016D01*
G01X14390Y-51050D01*
G01X14370Y-51084D01*
G01X14351Y-51119D01*
G01X14333Y-51154D01*
G01X14316Y-51190D01*
G01X14301Y-51227D01*
G01X14286Y-51264D01*
G01X14273Y-51302D01*
G01X14261Y-51340D01*
G01X14251Y-51378D01*
G01X14241Y-51416D01*
G01X14233Y-51455D01*
G01X14226Y-51495D01*
G01X14220Y-51534D01*
G01X14216Y-51573D01*
G01X14213Y-51613D01*
G01X14211Y-51653D01*
G01X14210Y-51692D01*
G01X14210Y-51692D02*
G01X14211Y-51732D01*
G01X14213Y-51772D01*
G01X14216Y-51811D01*
G01X14220Y-51851D01*
G01X14226Y-51890D01*
G01X14233Y-51929D01*
G01X14241Y-51968D01*
G01X14251Y-52007D01*
G01X14261Y-52045D01*
G01X14273Y-52083D01*
G01X14286Y-52121D01*
G01X14301Y-52158D01*
G01X14316Y-52194D01*
G01X14333Y-52230D01*
G01X14351Y-52266D01*
G01X14370Y-52301D01*
G01X14390Y-52335D01*
G01X14411Y-52369D01*
G01X14433Y-52402D01*
G01X14456Y-52434D01*
G01X14481Y-52466D01*
G01X14506Y-52496D01*
G01X14532Y-52526D01*
G01X14559Y-52555D01*
G01X14587Y-52583D01*
G01X14616Y-52610D01*
G01X14646Y-52637D01*
G01X14677Y-52662D01*
G01X14708Y-52686D01*
G01X14741Y-52709D01*
G01X14774Y-52732D01*
G01X14807Y-52753D01*
G01X14842Y-52773D01*
G01X14877Y-52792D01*
G01X14912Y-52810D01*
G01X14948Y-52826D01*
G01X14985Y-52842D01*
G01X15022Y-52856D01*
G01X15059Y-52869D01*
G01X15097Y-52881D01*
G01X15136Y-52892D01*
G01X15174Y-52901D01*
G01X15213Y-52910D01*
G01X15252Y-52917D01*
G01X15292Y-52922D01*
G01X15331Y-52927D01*
G01X15371Y-52930D01*
G01X15410Y-52932D01*
G01X15450Y-52932D01*
G01X15450Y-52932D02*
G01X15490Y-52932D01*
G01X15530Y-52930D01*
G01X15569Y-52927D01*
G01X15609Y-52922D01*
G01X15648Y-52917D01*
G01X15687Y-52910D01*
G01X15726Y-52901D01*
G01X15765Y-52892D01*
G01X15803Y-52881D01*
G01X15841Y-52869D01*
G01X15878Y-52856D01*
G01X15915Y-52842D01*
G01X15952Y-52826D01*
G01X15988Y-52810D01*
G01X16024Y-52792D01*
G01X16059Y-52773D01*
G01X16093Y-52753D01*
G01X16127Y-52732D01*
G01X16160Y-52709D01*
G01X16192Y-52686D01*
G01X16223Y-52662D01*
G01X16254Y-52637D01*
G01X16284Y-52610D01*
G01X16313Y-52583D01*
G01X16341Y-52555D01*
G01X16368Y-52526D01*
G01X16394Y-52496D01*
G01X16420Y-52466D01*
G01X16444Y-52434D01*
G01X16467Y-52402D01*
G01X16489Y-52369D01*
G01X16511Y-52335D01*
G01X16531Y-52301D01*
G01X16550Y-52266D01*
G01X16567Y-52230D01*
G01X16584Y-52194D01*
G01X16600Y-52158D01*
G01X16614Y-52121D01*
G01X16627Y-52083D01*
G01X16639Y-52045D01*
G01X16650Y-52007D01*
G01X16659Y-51968D01*
G01X16667Y-51929D01*
G01X16674Y-51890D01*
G01X16680Y-51851D01*
G01X16684Y-51811D01*
G01X16688Y-51772D01*
G01X16689Y-51732D01*
G01X16690Y-51692D01*
G04 Draw part scdecap3*
G04 draw part outline for part scdecap3*
G04 Draw part scdecap4*
G04 draw part outline for part scdecap4*
G04 Draw part scdecap5*
G04 Draw part progpullup*
G04 Draw part cclkserres*
G04 Draw part doneserres*
G04 Draw part progbres*
G04 Draw part vdio2*
G04 draw part outline for part vdio2*
G54D11*
G01X44291Y-10236D02*
G01X44291Y-11181D01*
G01X44291Y-11181D02*
G01X42362Y-11181D01*
G01X42362Y-11181D02*
G01X42362Y-10196D01*
G01X42362Y-10196D02*
G01X44291Y-10196D01*
G01X42362Y-10196D02*
G01X42204Y-10196D01*
G01X42204Y-10196D02*
G01X42204Y-11181D01*
G01X42204Y-11181D02*
G01X42362Y-11181D01*
G01X42362Y-11181D02*
G01X42362Y-10196D01*
G04 Draw part justavia*
G04 draw part outline for part justavia*
G04 Draw part hole1*
G04 draw part outline for part hole1*
G04 Draw part hole2*
G04 draw part outline for part hole2*
G04 Draw part hole3*
G04 draw part outline for part hole3*
G04 Draw part doutpulldown*
G04 Draw part alt_conx2*
G04 draw part outline for part alt_conx2*
G01X22598Y-49015D02*
G01X32637Y-49015D01*
G01X32637Y-49015D02*
G01X32637Y-51062D01*
G01X32637Y-51062D02*
G01X22598Y-51062D01*
G01X22598Y-51062D02*
G01X22598Y-49015D01*
G04 Draw part alt_conx3*
G04 draw part outline for part alt_conx3*
G01X20629Y-42992D02*
G01X20629Y-50944D01*
G01X20629Y-50944D02*
G01X18700Y-50944D01*
G01X18700Y-50944D02*
G01X18700Y-42952D01*
G01X18700Y-42952D02*
G01X20629Y-42952D01*
G04 Draw part hole9*
G04 draw part outline for part hole9*
G04 Draw part buscon2*
G04 draw part outline for part buscon2*
G04 Draw part buscon3*
G04 draw part outline for part buscon3*
G04 Draw part buscon4*
G04 draw part outline for part buscon4*
G04 Draw part buscon6*
G04 Draw part buscon7*
G04 draw part outline for part buscon7*
G54D10*
G01X1614Y-55255D02*
G01X1614Y-56594D01*
G01X1614Y-56594D02*
G01X905Y-56594D01*
G01X905Y-56594D02*
G01X905Y-55255D01*
G01X905Y-55255D02*
G01X1614Y-55255D01*
G04 Draw part buscon8*
G04 Draw part buscon9*
G04 draw part outline for part buscon9*
G54D11*
G01X38858Y-26574D02*
G01X38858Y-27519D01*
G01X38858Y-27519D02*
G01X36968Y-27519D01*
G01X36968Y-27519D02*
G01X36968Y-26574D01*
G01X36968Y-26574D02*
G01X38622Y-26574D01*
G01X38622Y-26574D02*
G01X38858Y-26574D01*
G04 Draw part buscon10*
G04 draw part outline for part buscon10*
G01X35629Y-50944D02*
G01X34685Y-50944D01*
G01X34685Y-50944D02*
G01X34685Y-49055D01*
G01X34685Y-49055D02*
G01X35629Y-49055D01*
G01X35629Y-49055D02*
G01X35629Y-50708D01*
G01X35629Y-50708D02*
G01X35629Y-50944D01*
G04 Draw part fix1*
G04 Draw part fix2*
G04 Draw part fix3*
G04 Draw part fix4*
G04 Draw part fix5*
G04 Draw part fix13*
G04 draw part outline for part fix13*
G04 Draw part fix21*
G04 draw part outline for part fix21*
G54D10*
G01X3700Y-35216D02*
G01X3700Y-36555D01*
G01X3700Y-36555D02*
G01X2992Y-36555D01*
G01X2992Y-36555D02*
G01X2992Y-35216D01*
G01X2992Y-35216D02*
G01X3700Y-35216D01*
G04 Draw part fix22*
G04 draw part outline for part fix22*
G01X2283Y-36555D02*
G01X2283Y-35216D01*
G01X2283Y-35216D02*
G01X2992Y-35216D01*
G01X2992Y-35216D02*
G01X2992Y-36555D01*
G01X2992Y-36555D02*
G01X2283Y-36555D01*
G04 Draw part resnet1*
G04 Draw part resnet3*
G04 Draw part resnet4*
G04 Draw part resnet5*
G04 Draw part resnet6*
G04 Draw part cpupowvia*
G04 draw part outline for part cpupowvia*
G04 Draw part decap999*
G04 draw part outline for part decap999*
G04 Draw part decap1000*
G04 draw part outline for part decap1000*
G04 Draw part batthoriz*
G04 draw part outline for part batthoriz*
G54D11*
G01X10157Y-9842D02*
G01X10117Y-9842D01*
G01X10078Y-9840D01*
G01X10038Y-9838D01*
G01X9999Y-9836D01*
G01X9959Y-9832D01*
G01X9920Y-9828D01*
G01X9880Y-9822D01*
G01X9841Y-9817D01*
G01X9802Y-9810D01*
G01X9763Y-9802D01*
G01X9724Y-9794D01*
G01X9686Y-9785D01*
G01X9647Y-9775D01*
G01X9609Y-9764D01*
G01X9571Y-9753D01*
G01X9534Y-9741D01*
G01X9496Y-9728D01*
G01X9459Y-9714D01*
G01X9422Y-9700D01*
G01X9385Y-9684D01*
G01X9349Y-9669D01*
G01X9313Y-9652D01*
G01X9277Y-9635D01*
G01X9242Y-9617D01*
G01X9207Y-9598D01*
G01X9173Y-9578D01*
G01X9139Y-9558D01*
G01X9105Y-9537D01*
G01X9072Y-9516D01*
G01X9039Y-9494D01*
G01X9006Y-9471D01*
G01X8974Y-9447D01*
G01X8943Y-9423D01*
G01X8912Y-9398D01*
G01X8882Y-9373D01*
G01X8852Y-9347D01*
G01X8822Y-9320D01*
G01X8793Y-9293D01*
G01X8765Y-9265D01*
G01X8737Y-9237D01*
G01X8710Y-9208D01*
G01X8684Y-9179D01*
G01X8658Y-9149D01*
G01X8632Y-9118D01*
G01X8607Y-9088D01*
G01X8583Y-9056D01*
G01X8560Y-9024D01*
G01X8537Y-8992D01*
G01X8515Y-8959D01*
G01X8493Y-8926D01*
G01X8472Y-8892D01*
G01X8452Y-8858D01*
G01X8433Y-8823D01*
G01X8414Y-8788D01*
G01X8396Y-8753D01*
G01X8379Y-8717D01*
G01X8362Y-8681D01*
G01X8346Y-8645D01*
G01X8331Y-8608D01*
G01X8316Y-8572D01*
G01X8303Y-8534D01*
G01X8290Y-8497D01*
G01X8278Y-8459D01*
G01X8266Y-8421D01*
G01X8256Y-8383D01*
G01X8246Y-8345D01*
G01X8237Y-8306D01*
G01X8228Y-8267D01*
G01X8221Y-8228D01*
G01X8214Y-8189D01*
G01X8208Y-8150D01*
G01X8203Y-8111D01*
G01X8198Y-8071D01*
G01X8195Y-8032D01*
G01X8192Y-7992D01*
G01X8190Y-7953D01*
G01X8189Y-7913D01*
G01X8188Y-7874D01*
G01X8188Y-7874D02*
G01X8189Y-7834D01*
G01X8190Y-7794D01*
G01X8192Y-7755D01*
G01X8195Y-7715D01*
G01X8198Y-7676D01*
G01X8203Y-7636D01*
G01X8208Y-7597D01*
G01X8214Y-7558D01*
G01X8221Y-7519D01*
G01X8228Y-7480D01*
G01X8237Y-7441D01*
G01X8246Y-7402D01*
G01X8256Y-7364D01*
G01X8266Y-7326D01*
G01X8278Y-7288D01*
G01X8290Y-7250D01*
G01X8303Y-7213D01*
G01X8316Y-7175D01*
G01X8331Y-7139D01*
G01X8346Y-7102D01*
G01X8362Y-7066D01*
G01X8379Y-7030D01*
G01X8396Y-6994D01*
G01X8414Y-6959D01*
G01X8433Y-6924D01*
G01X8452Y-6889D01*
G01X8472Y-6855D01*
G01X8493Y-6821D01*
G01X8515Y-6788D01*
G01X8537Y-6755D01*
G01X8560Y-6723D01*
G01X8583Y-6691D01*
G01X8607Y-6660D01*
G01X8632Y-6629D01*
G01X8658Y-6598D01*
G01X8684Y-6568D01*
G01X8710Y-6539D01*
G01X8737Y-6510D01*
G01X8765Y-6482D01*
G01X8793Y-6454D01*
G01X8822Y-6427D01*
G01X8852Y-6400D01*
G01X8882Y-6374D01*
G01X8912Y-6349D01*
G01X8943Y-6324D01*
G01X8974Y-6300D01*
G01X9006Y-6276D01*
G01X9039Y-6253D01*
G01X9072Y-6231D01*
G01X9105Y-6210D01*
G01X9139Y-6189D01*
G01X9173Y-6169D01*
G01X9207Y-6149D01*
G01X9242Y-6130D01*
G01X9277Y-6112D01*
G01X9313Y-6095D01*
G01X9349Y-6078D01*
G01X9385Y-6063D01*
G01X9422Y-6047D01*
G01X9459Y-6033D01*
G01X9496Y-6019D01*
G01X9534Y-6006D01*
G01X9571Y-5994D01*
G01X9609Y-5983D01*
G01X9647Y-5972D01*
G01X9686Y-5962D01*
G01X9724Y-5953D01*
G01X9763Y-5945D01*
G01X9802Y-5937D01*
G01X9841Y-5931D01*
G01X9880Y-5925D01*
G01X9920Y-5919D01*
G01X9959Y-5915D01*
G01X9999Y-5911D01*
G01X10038Y-5909D01*
G01X10078Y-5907D01*
G01X10117Y-5905D01*
G01X10157Y-5905D01*
G01X10157Y-5905D02*
G01X10197Y-5905D01*
G01X10236Y-5907D01*
G01X10276Y-5909D01*
G01X10315Y-5911D01*
G01X10355Y-5915D01*
G01X10394Y-5919D01*
G01X10434Y-5925D01*
G01X10473Y-5931D01*
G01X10512Y-5937D01*
G01X10551Y-5945D01*
G01X10589Y-5953D01*
G01X10628Y-5962D01*
G01X10666Y-5972D01*
G01X10705Y-5983D01*
G01X10743Y-5994D01*
G01X10780Y-6006D01*
G01X10818Y-6019D01*
G01X10855Y-6033D01*
G01X10892Y-6047D01*
G01X10929Y-6063D01*
G01X10965Y-6078D01*
G01X11001Y-6095D01*
G01X11037Y-6112D01*
G01X11072Y-6130D01*
G01X11107Y-6149D01*
G01X11141Y-6169D01*
G01X11175Y-6189D01*
G01X11209Y-6210D01*
G01X11242Y-6231D01*
G01X11275Y-6253D01*
G01X11308Y-6276D01*
G01X11340Y-6300D01*
G01X11371Y-6324D01*
G01X11402Y-6349D01*
G01X11432Y-6374D01*
G01X11462Y-6400D01*
G01X11492Y-6427D01*
G01X11521Y-6454D01*
G01X11549Y-6482D01*
G01X11577Y-6510D01*
G01X11604Y-6539D01*
G01X11630Y-6568D01*
G01X11656Y-6598D01*
G01X11682Y-6629D01*
G01X11707Y-6660D01*
G01X11731Y-6691D01*
G01X11754Y-6723D01*
G01X11777Y-6755D01*
G01X11799Y-6788D01*
G01X11821Y-6821D01*
G01X11842Y-6855D01*
G01X11862Y-6889D01*
G01X11881Y-6924D01*
G01X11900Y-6959D01*
G01X11918Y-6994D01*
G01X11935Y-7030D01*
G01X11952Y-7066D01*
G01X11968Y-7102D01*
G01X11983Y-7139D01*
G01X11998Y-7175D01*
G01X12011Y-7213D01*
G01X12024Y-7250D01*
G01X12036Y-7288D01*
G01X12048Y-7326D01*
G01X12058Y-7364D01*
G01X12068Y-7402D01*
G01X12077Y-7441D01*
G01X12086Y-7480D01*
G01X12093Y-7519D01*
G01X12100Y-7558D01*
G01X12106Y-7597D01*
G01X12111Y-7636D01*
G01X12116Y-7676D01*
G01X12119Y-7715D01*
G01X12122Y-7755D01*
G01X12124Y-7794D01*
G01X12125Y-7834D01*
G01X12125Y-7874D01*
G01X12125Y-7874D02*
G01X12125Y-7913D01*
G01X12124Y-7952D01*
G01X12122Y-7992D01*
G01X12119Y-8031D01*
G01X12115Y-8070D01*
G01X12111Y-8109D01*
G01X12106Y-8148D01*
G01X12100Y-8187D01*
G01X12093Y-8226D01*
G01X12085Y-8264D01*
G01X12077Y-8303D01*
G01X12068Y-8341D01*
G01X12058Y-8379D01*
G01X12047Y-8417D01*
G01X12036Y-8455D01*
G01X12024Y-8492D01*
G01X12011Y-8529D01*
G01X11997Y-8566D01*
G01X11982Y-8603D01*
G01X11967Y-8639D01*
G01X11951Y-8675D01*
G01X11934Y-8711D01*
G01X11917Y-8746D01*
G01X11899Y-8781D01*
G01X11880Y-8815D01*
G01X11860Y-8849D01*
G01X11840Y-8883D01*
G01X11819Y-8916D01*
G01X11798Y-8949D01*
G01X11775Y-8982D01*
G01X11752Y-9014D01*
G01X11729Y-9045D01*
G01X11705Y-9076D01*
G01X11680Y-9107D01*
G01X11654Y-9137D01*
G01X11628Y-9166D01*
G01X11602Y-9195D01*
G01X11574Y-9224D01*
G01X11546Y-9251D01*
G01X11518Y-9279D01*
G01X11489Y-9305D01*
G01X11460Y-9331D01*
G01X11430Y-9357D01*
G01X11399Y-9382D01*
G01X11368Y-9406D01*
G01X11337Y-9430D01*
G01X11305Y-9453D01*
G01X11272Y-9475D01*
G01X11239Y-9496D01*
G01X11206Y-9517D01*
G01X11172Y-9538D01*
G01X11138Y-9557D01*
G01X11104Y-9576D01*
G01X11069Y-9594D01*
G01X11033Y-9612D01*
G01X10998Y-9628D01*
G01X10962Y-9644D01*
G01X10925Y-9660D01*
G01X10889Y-9674D01*
G01X10852Y-9688D01*
G01X10815Y-9701D01*
G01X10777Y-9713D01*
G01X10740Y-9725D01*
G01X10702Y-9735D01*
G01X10664Y-9745D01*
G01X10626Y-9754D01*
G01X10587Y-9763D01*
G01X10549Y-9770D01*
G01X10510Y-9777D01*
G01X10471Y-9783D01*
G01X10432Y-9788D01*
G01X10393Y-9793D01*
G01X10354Y-9796D01*
G01X10314Y-9799D01*
G01X10275Y-9801D01*
G01X10236Y-9802D01*
G01X10196Y-9803D01*
G04 Draw part battdio*
G04 draw part outline for part battdio*
G01X6456Y-12440D02*
G01X7401Y-12440D01*
G01X7401Y-12440D02*
G01X7401Y-14370D01*
G01X7401Y-14370D02*
G01X6417Y-14370D01*
G01X6417Y-14370D02*
G01X6417Y-12440D01*
G01X6417Y-14370D02*
G01X6417Y-14527D01*
G01X6417Y-14527D02*
G01X7401Y-14527D01*
G01X7401Y-14527D02*
G01X7401Y-14370D01*
G01X7401Y-14370D02*
G01X6417Y-14370D01*
G04 Draw part battres*
G04 Draw part pusel*
G04 draw part outline for part pusel*
G01X4271Y-3948D02*
G01X1271Y-3948D01*
G01X1271Y-3948D02*
G01X1271Y-4948D01*
G01X1271Y-4948D02*
G01X4271Y-4948D01*
G01X4271Y-4948D02*
G01X4271Y-3948D01*
G04 Draw part blah*
G04 Draw part blah3*
G04 Draw part cs3*
G04 draw part outline for part cs3*
G01X7598Y-12440D02*
G01X8543Y-12440D01*
G01X8543Y-12440D02*
G01X8543Y-14370D01*
G01X8543Y-14370D02*
G01X7559Y-14370D01*
G01X7559Y-14370D02*
G01X7559Y-12440D01*
G01X7559Y-14370D02*
G01X7559Y-14527D01*
G01X7559Y-14527D02*
G01X8543Y-14527D01*
G01X8543Y-14527D02*
G01X8543Y-14370D01*
G01X8543Y-14370D02*
G01X7559Y-14370D01*
G04 Draw part powercon*
G04 draw part outline for part powercon*
G04 Draw part buh*
G04 draw part outline for part buh*
G04 Draw part buhhh*
G04 draw part outline for part buhhh*
G54D10*
G01X42763Y-9200D02*
G01X43063Y-9200D01*
G01X42913Y-9050D02*
G01X42913Y-9350D01*
G01X44643Y-8700D02*
G01X44642Y-8661D01*
G01X44640Y-8621D01*
G01X44637Y-8581D01*
G01X44633Y-8542D01*
G01X44627Y-8502D01*
G01X44620Y-8463D01*
G01X44612Y-8424D01*
G01X44602Y-8386D01*
G01X44592Y-8347D01*
G01X44580Y-8310D01*
G01X44567Y-8272D01*
G01X44552Y-8235D01*
G01X44537Y-8198D01*
G01X44520Y-8162D01*
G01X44502Y-8127D01*
G01X44483Y-8092D01*
G01X44463Y-8057D01*
G01X44442Y-8024D01*
G01X44420Y-7991D01*
G01X44397Y-7959D01*
G01X44372Y-7927D01*
G01X44347Y-7896D01*
G01X44321Y-7867D01*
G01X44294Y-7838D01*
G01X44266Y-7810D01*
G01X44237Y-7782D01*
G01X44207Y-7756D01*
G01X44176Y-7731D01*
G01X44145Y-7707D01*
G01X44112Y-7683D01*
G01X44079Y-7661D01*
G01X44046Y-7640D01*
G01X44011Y-7620D01*
G01X43976Y-7601D01*
G01X43941Y-7583D01*
G01X43905Y-7566D01*
G01X43868Y-7551D01*
G01X43831Y-7537D01*
G01X43794Y-7523D01*
G01X43756Y-7512D01*
G01X43717Y-7501D01*
G01X43679Y-7491D01*
G01X43640Y-7483D01*
G01X43601Y-7476D01*
G01X43561Y-7470D01*
G01X43522Y-7466D01*
G01X43482Y-7463D01*
G01X43443Y-7461D01*
G01X43403Y-7460D01*
G01X43403Y-7460D02*
G01X43363Y-7461D01*
G01X43323Y-7463D01*
G01X43284Y-7466D01*
G01X43244Y-7470D01*
G01X43205Y-7476D01*
G01X43166Y-7483D01*
G01X43127Y-7491D01*
G01X43088Y-7501D01*
G01X43050Y-7512D01*
G01X43012Y-7523D01*
G01X42975Y-7537D01*
G01X42938Y-7551D01*
G01X42901Y-7566D01*
G01X42865Y-7583D01*
G01X42829Y-7601D01*
G01X42794Y-7620D01*
G01X42760Y-7640D01*
G01X42726Y-7661D01*
G01X42693Y-7683D01*
G01X42661Y-7707D01*
G01X42630Y-7731D01*
G01X42599Y-7756D01*
G01X42569Y-7782D01*
G01X42540Y-7810D01*
G01X42512Y-7838D01*
G01X42485Y-7867D01*
G01X42459Y-7896D01*
G01X42433Y-7927D01*
G01X42409Y-7959D01*
G01X42386Y-7991D01*
G01X42364Y-8024D01*
G01X42343Y-8057D01*
G01X42322Y-8092D01*
G01X42304Y-8127D01*
G01X42286Y-8162D01*
G01X42269Y-8198D01*
G01X42254Y-8235D01*
G01X42239Y-8272D01*
G01X42226Y-8310D01*
G01X42214Y-8347D01*
G01X42203Y-8386D01*
G01X42194Y-8424D01*
G01X42186Y-8463D01*
G01X42179Y-8502D01*
G01X42173Y-8542D01*
G01X42169Y-8581D01*
G01X42165Y-8621D01*
G01X42164Y-8661D01*
G01X42163Y-8700D01*
G01X42163Y-8700D02*
G01X42164Y-8740D01*
G01X42165Y-8780D01*
G01X42169Y-8819D01*
G01X42173Y-8859D01*
G01X42179Y-8898D01*
G01X42186Y-8937D01*
G01X42194Y-8976D01*
G01X42203Y-9015D01*
G01X42214Y-9053D01*
G01X42226Y-9091D01*
G01X42239Y-9129D01*
G01X42254Y-9166D01*
G01X42269Y-9202D01*
G01X42286Y-9238D01*
G01X42304Y-9274D01*
G01X42322Y-9309D01*
G01X42343Y-9343D01*
G01X42364Y-9377D01*
G01X42386Y-9410D01*
G01X42409Y-9442D01*
G01X42433Y-9473D01*
G01X42459Y-9504D01*
G01X42485Y-9534D01*
G01X42512Y-9563D01*
G01X42540Y-9591D01*
G01X42569Y-9618D01*
G01X42599Y-9644D01*
G01X42630Y-9670D01*
G01X42661Y-9694D01*
G01X42693Y-9717D01*
G01X42726Y-9740D01*
G01X42760Y-9761D01*
G01X42794Y-9781D01*
G01X42829Y-9800D01*
G01X42865Y-9817D01*
G01X42901Y-9834D01*
G01X42938Y-9850D01*
G01X42975Y-9864D01*
G01X43012Y-9877D01*
G01X43050Y-9889D01*
G01X43088Y-9900D01*
G01X43127Y-9909D01*
G01X43166Y-9917D01*
G01X43205Y-9924D01*
G01X43244Y-9930D01*
G01X43284Y-9935D01*
G01X43323Y-9938D01*
G01X43363Y-9940D01*
G01X43403Y-9940D01*
G01X43403Y-9940D02*
G01X43443Y-9940D01*
G01X43482Y-9938D01*
G01X43522Y-9935D01*
G01X43561Y-9930D01*
G01X43601Y-9924D01*
G01X43640Y-9917D01*
G01X43679Y-9909D01*
G01X43717Y-9900D01*
G01X43756Y-9889D01*
G01X43794Y-9877D01*
G01X43831Y-9864D01*
G01X43868Y-9850D01*
G01X43905Y-9834D01*
G01X43941Y-9817D01*
G01X43976Y-9800D01*
G01X44011Y-9781D01*
G01X44046Y-9761D01*
G01X44079Y-9740D01*
G01X44112Y-9717D01*
G01X44145Y-9694D01*
G01X44176Y-9670D01*
G01X44207Y-9644D01*
G01X44237Y-9618D01*
G01X44266Y-9591D01*
G01X44294Y-9563D01*
G01X44321Y-9534D01*
G01X44347Y-9504D01*
G01X44372Y-9473D01*
G01X44397Y-9442D01*
G01X44420Y-9410D01*
G01X44442Y-9377D01*
G01X44463Y-9343D01*
G01X44483Y-9309D01*
G01X44502Y-9274D01*
G01X44520Y-9238D01*
G01X44537Y-9202D01*
G01X44552Y-9166D01*
G01X44567Y-9129D01*
G01X44580Y-9091D01*
G01X44592Y-9053D01*
G01X44602Y-9015D01*
G01X44612Y-8976D01*
G01X44620Y-8937D01*
G01X44627Y-8898D01*
G01X44633Y-8859D01*
G01X44637Y-8819D01*
G01X44640Y-8780D01*
G01X44642Y-8740D01*
G01X44643Y-8700D01*
G04 Draw part rest*
G04 draw part outline for part rest*
G04 Draw part sw2*
G04 draw part outline for part sw2*
G54D11*
G01X2913Y-31417D02*
G01X5118Y-31417D01*
G01X5118Y-31417D02*
G01X5118Y-33700D01*
G01X5118Y-33700D02*
G01X3228Y-33700D01*
G01X2913Y-31417D02*
G01X2913Y-33700D01*
G01X2913Y-33700D02*
G01X3267Y-33700D01*
G04 Draw part trans67*
G04 draw part outline for part trans67*
G54D10*
G01X42933Y-4251D02*
G01X41594Y-4251D01*
G01X41594Y-4251D02*
G01X41594Y-3543D01*
G01X41594Y-3543D02*
G01X42933Y-3543D01*
G01X42933Y-3543D02*
G01X42933Y-4251D01*
G04 Draw part usbcon1*
G04 draw part outline for part usbcon1*
G54D11*
G01X45984Y-19527D02*
G01X45472Y-19527D01*
G01X45472Y-19527D02*
G01X45314Y-19527D01*
G01X45314Y-19527D02*
G01X45314Y-14370D01*
G01X45314Y-14370D02*
G01X45944Y-14370D01*
G01X47795Y-19527D02*
G01X50984Y-19527D01*
G01X50984Y-19527D02*
G01X50984Y-14370D01*
G01X50984Y-14370D02*
G01X47795Y-14370D01*
G04 Draw part usbcon2*
G04 draw part outline for part usbcon2*
G54D10*
G01X41102Y-14171D02*
G01X41102Y-13926D01*
G01X41102Y-13926D02*
G01X43228Y-13926D01*
G01X43228Y-13926D02*
G01X43228Y-14171D01*
G01X41102Y-17875D02*
G01X41102Y-18120D01*
G01X41102Y-18120D02*
G01X43228Y-18120D01*
G01X43228Y-18120D02*
G01X43228Y-17875D01*
G54D11*
G01X40852Y-13976D02*
G01X40852Y-13972D01*
G01X40853Y-13967D01*
G01X40854Y-13963D01*
G01X40855Y-13959D01*
G01X40857Y-13955D01*
G01X40859Y-13951D01*
G01X40861Y-13947D01*
G01X40864Y-13944D01*
G01X40867Y-13941D01*
G01X40870Y-13938D01*
G01X40873Y-13935D01*
G01X40877Y-13933D01*
G01X40881Y-13931D01*
G01X40885Y-13929D01*
G01X40889Y-13928D01*
G01X40893Y-13927D01*
G01X40898Y-13926D01*
G01X40902Y-13926D01*
G01X40902Y-13926D02*
G01X40906Y-13926D01*
G01X40911Y-13927D01*
G01X40915Y-13928D01*
G01X40919Y-13929D01*
G01X40923Y-13931D01*
G01X40927Y-13933D01*
G01X40931Y-13935D01*
G01X40934Y-13938D01*
G01X40937Y-13941D01*
G01X40940Y-13944D01*
G01X40943Y-13947D01*
G01X40945Y-13951D01*
G01X40947Y-13955D01*
G01X40949Y-13959D01*
G01X40950Y-13963D01*
G01X40951Y-13967D01*
G01X40952Y-13972D01*
G01X40952Y-13976D01*
G01X40952Y-13976D02*
G01X40952Y-13980D01*
G01X40951Y-13985D01*
G01X40950Y-13989D01*
G01X40949Y-13993D01*
G01X40947Y-13997D01*
G01X40945Y-14001D01*
G01X40943Y-14005D01*
G01X40940Y-14008D01*
G01X40937Y-14011D01*
G01X40934Y-14014D01*
G01X40931Y-14017D01*
G01X40927Y-14019D01*
G01X40923Y-14021D01*
G01X40919Y-14023D01*
G01X40915Y-14024D01*
G01X40911Y-14025D01*
G01X40906Y-14026D01*
G01X40902Y-14026D01*
G01X40902Y-14026D02*
G01X40898Y-14026D01*
G01X40893Y-14025D01*
G01X40889Y-14024D01*
G01X40885Y-14023D01*
G01X40881Y-14021D01*
G01X40877Y-14019D01*
G01X40873Y-14017D01*
G01X40870Y-14014D01*
G01X40867Y-14011D01*
G01X40864Y-14008D01*
G01X40861Y-14005D01*
G01X40859Y-14001D01*
G01X40857Y-13997D01*
G01X40855Y-13993D01*
G01X40854Y-13989D01*
G01X40853Y-13985D01*
G01X40852Y-13980D01*
G01X40852Y-13976D01*
G04 Draw part usbres1*
G04 Draw part usbres2*
G04 Draw part usbcap3*
G04 draw part outline for part usbcap3*
G54D10*
G01X44960Y-15413D02*
G01X44960Y-16751D01*
G01X44960Y-16751D02*
G01X44251Y-16751D01*
G01X44251Y-16751D02*
G01X44251Y-15413D01*
G01X44251Y-15413D02*
G01X44960Y-15413D01*
G04 Draw part usbcap5*
G04 draw part outline for part usbcap5*
G04 Draw part usbcap6*
G04 Draw part usbcap11*
G04 draw part outline for part usbcap11*
G04 Draw part powcap*
G04 draw part outline for part powcap*
G01X39696Y-9692D02*
G01X39696Y-9992D01*
G01X39846Y-9842D02*
G01X39546Y-9842D01*
G01X40196Y-11572D02*
G01X40236Y-11571D01*
G01X40276Y-11569D01*
G01X40315Y-11566D01*
G01X40355Y-11562D01*
G01X40394Y-11556D01*
G01X40433Y-11549D01*
G01X40472Y-11541D01*
G01X40511Y-11531D01*
G01X40549Y-11521D01*
G01X40587Y-11509D01*
G01X40625Y-11496D01*
G01X40662Y-11481D01*
G01X40698Y-11466D01*
G01X40734Y-11449D01*
G01X40770Y-11431D01*
G01X40805Y-11412D01*
G01X40839Y-11392D01*
G01X40873Y-11371D01*
G01X40906Y-11349D01*
G01X40938Y-11326D01*
G01X40969Y-11301D01*
G01X41000Y-11276D01*
G01X41030Y-11250D01*
G01X41059Y-11223D01*
G01X41087Y-11195D01*
G01X41114Y-11166D01*
G01X41141Y-11136D01*
G01X41166Y-11105D01*
G01X41190Y-11074D01*
G01X41213Y-11041D01*
G01X41236Y-11008D01*
G01X41257Y-10975D01*
G01X41277Y-10941D01*
G01X41296Y-10906D01*
G01X41314Y-10870D01*
G01X41330Y-10834D01*
G01X41346Y-10797D01*
G01X41360Y-10760D01*
G01X41373Y-10723D01*
G01X41385Y-10685D01*
G01X41396Y-10647D01*
G01X41405Y-10608D01*
G01X41413Y-10569D01*
G01X41420Y-10530D01*
G01X41426Y-10491D01*
G01X41431Y-10451D01*
G01X41434Y-10411D01*
G01X41436Y-10372D01*
G01X41436Y-10332D01*
G01X41436Y-10332D02*
G01X41436Y-10292D01*
G01X41434Y-10253D01*
G01X41431Y-10213D01*
G01X41426Y-10173D01*
G01X41420Y-10134D01*
G01X41413Y-10095D01*
G01X41405Y-10056D01*
G01X41396Y-10017D01*
G01X41385Y-9979D01*
G01X41373Y-9941D01*
G01X41360Y-9904D01*
G01X41346Y-9867D01*
G01X41330Y-9830D01*
G01X41314Y-9794D01*
G01X41296Y-9758D01*
G01X41277Y-9724D01*
G01X41257Y-9689D01*
G01X41236Y-9656D01*
G01X41213Y-9623D01*
G01X41190Y-9590D01*
G01X41166Y-9559D01*
G01X41141Y-9528D01*
G01X41114Y-9498D01*
G01X41087Y-9469D01*
G01X41059Y-9441D01*
G01X41030Y-9414D01*
G01X41000Y-9388D01*
G01X40969Y-9363D01*
G01X40938Y-9338D01*
G01X40906Y-9315D01*
G01X40873Y-9293D01*
G01X40839Y-9272D01*
G01X40805Y-9252D01*
G01X40770Y-9233D01*
G01X40734Y-9215D01*
G01X40698Y-9198D01*
G01X40662Y-9183D01*
G01X40625Y-9168D01*
G01X40587Y-9155D01*
G01X40549Y-9143D01*
G01X40511Y-9133D01*
G01X40472Y-9123D01*
G01X40433Y-9115D01*
G01X40394Y-9108D01*
G01X40355Y-9102D01*
G01X40315Y-9098D01*
G01X40276Y-9095D01*
G01X40236Y-9093D01*
G01X40196Y-9092D01*
G01X40196Y-9092D02*
G01X40157Y-9093D01*
G01X40117Y-9095D01*
G01X40077Y-9098D01*
G01X40038Y-9102D01*
G01X39998Y-9108D01*
G01X39959Y-9115D01*
G01X39920Y-9123D01*
G01X39882Y-9133D01*
G01X39844Y-9143D01*
G01X39806Y-9155D01*
G01X39768Y-9168D01*
G01X39731Y-9183D01*
G01X39694Y-9198D01*
G01X39658Y-9215D01*
G01X39623Y-9233D01*
G01X39588Y-9252D01*
G01X39554Y-9272D01*
G01X39520Y-9293D01*
G01X39487Y-9315D01*
G01X39455Y-9338D01*
G01X39423Y-9363D01*
G01X39393Y-9388D01*
G01X39363Y-9414D01*
G01X39334Y-9441D01*
G01X39306Y-9469D01*
G01X39278Y-9498D01*
G01X39252Y-9528D01*
G01X39227Y-9559D01*
G01X39203Y-9590D01*
G01X39179Y-9623D01*
G01X39157Y-9656D01*
G01X39136Y-9689D01*
G01X39116Y-9724D01*
G01X39097Y-9758D01*
G01X39079Y-9794D01*
G01X39062Y-9830D01*
G01X39047Y-9867D01*
G01X39033Y-9904D01*
G01X39020Y-9941D01*
G01X39008Y-9979D01*
G01X38997Y-10017D01*
G01X38987Y-10056D01*
G01X38979Y-10095D01*
G01X38972Y-10134D01*
G01X38967Y-10173D01*
G01X38962Y-10213D01*
G01X38959Y-10253D01*
G01X38957Y-10292D01*
G01X38956Y-10332D01*
G01X38956Y-10332D02*
G01X38957Y-10372D01*
G01X38959Y-10411D01*
G01X38962Y-10451D01*
G01X38967Y-10491D01*
G01X38972Y-10530D01*
G01X38979Y-10569D01*
G01X38987Y-10608D01*
G01X38997Y-10647D01*
G01X39008Y-10685D01*
G01X39020Y-10723D01*
G01X39033Y-10760D01*
G01X39047Y-10797D01*
G01X39062Y-10834D01*
G01X39079Y-10870D01*
G01X39097Y-10906D01*
G01X39116Y-10941D01*
G01X39136Y-10975D01*
G01X39157Y-11008D01*
G01X39179Y-11041D01*
G01X39203Y-11074D01*
G01X39227Y-11105D01*
G01X39252Y-11136D01*
G01X39278Y-11166D01*
G01X39306Y-11195D01*
G01X39334Y-11223D01*
G01X39363Y-11250D01*
G01X39393Y-11276D01*
G01X39423Y-11301D01*
G01X39455Y-11326D01*
G01X39487Y-11349D01*
G01X39520Y-11371D01*
G01X39554Y-11392D01*
G01X39588Y-11412D01*
G01X39623Y-11431D01*
G01X39658Y-11449D01*
G01X39694Y-11466D01*
G01X39731Y-11481D01*
G01X39768Y-11496D01*
G01X39806Y-11509D01*
G01X39844Y-11521D01*
G01X39882Y-11531D01*
G01X39920Y-11541D01*
G01X39959Y-11549D01*
G01X39998Y-11556D01*
G01X40038Y-11562D01*
G01X40077Y-11566D01*
G01X40117Y-11569D01*
G01X40157Y-11571D01*
G01X40196Y-11572D01*
G04 Draw part reg*
G04 draw part outline for part reg*
G01X36141Y-4527D02*
G01X38661Y-4527D01*
G01X38661Y-4527D02*
G01X38661Y-8070D01*
G01X38661Y-8070D02*
G01X36141Y-8070D01*
G01X36141Y-8070D02*
G01X36141Y-4527D01*
G04 Draw part powmf*
G04 draw part outline for part powmf*
G01X42165Y-6259D02*
G01X40153Y-6259D01*
G01X40153Y-6259D02*
G01X40153Y-7165D01*
G01X40153Y-7165D02*
G01X42165Y-7165D01*
G01X42165Y-7165D02*
G01X42165Y-6259D01*
G01X42165Y-6456D02*
G01X41968Y-6456D01*
G01X41968Y-6456D02*
G01X41968Y-6968D01*
G01X41968Y-6968D02*
G01X42165Y-6968D01*
G01X42165Y-6968D02*
G01X42165Y-6456D01*
G04 Draw part powcap200*
G04 draw part outline for part powcap200*
G01X37630Y-8870D02*
G01X37330Y-8870D01*
G01X37480Y-9020D02*
G01X37480Y-8720D01*
G01X35750Y-9370D02*
G01X35750Y-9409D01*
G01X35752Y-9449D01*
G01X35756Y-9489D01*
G01X35760Y-9528D01*
G01X35766Y-9567D01*
G01X35773Y-9607D01*
G01X35781Y-9646D01*
G01X35790Y-9684D01*
G01X35801Y-9722D01*
G01X35813Y-9760D01*
G01X35826Y-9798D01*
G01X35840Y-9835D01*
G01X35856Y-9872D01*
G01X35873Y-9908D01*
G01X35890Y-9943D01*
G01X35909Y-9978D01*
G01X35929Y-10012D01*
G01X35951Y-10046D01*
G01X35973Y-10079D01*
G01X35996Y-10111D01*
G01X36020Y-10143D01*
G01X36046Y-10173D01*
G01X36072Y-10203D01*
G01X36099Y-10232D01*
G01X36127Y-10260D01*
G01X36156Y-10288D01*
G01X36186Y-10314D01*
G01X36217Y-10339D01*
G01X36248Y-10363D01*
G01X36280Y-10387D01*
G01X36313Y-10409D01*
G01X36347Y-10430D01*
G01X36381Y-10450D01*
G01X36416Y-10469D01*
G01X36452Y-10487D01*
G01X36488Y-10503D01*
G01X36524Y-10519D01*
G01X36562Y-10533D01*
G01X36599Y-10546D01*
G01X36637Y-10558D01*
G01X36675Y-10569D01*
G01X36714Y-10578D01*
G01X36753Y-10587D01*
G01X36792Y-10594D01*
G01X36831Y-10599D01*
G01X36871Y-10604D01*
G01X36910Y-10607D01*
G01X36950Y-10609D01*
G01X36990Y-10610D01*
G01X36990Y-10610D02*
G01X37030Y-10609D01*
G01X37069Y-10607D01*
G01X37109Y-10604D01*
G01X37148Y-10599D01*
G01X37188Y-10594D01*
G01X37227Y-10587D01*
G01X37266Y-10578D01*
G01X37304Y-10569D01*
G01X37343Y-10558D01*
G01X37381Y-10546D01*
G01X37418Y-10533D01*
G01X37455Y-10519D01*
G01X37492Y-10503D01*
G01X37528Y-10487D01*
G01X37563Y-10469D01*
G01X37598Y-10450D01*
G01X37633Y-10430D01*
G01X37666Y-10409D01*
G01X37699Y-10387D01*
G01X37731Y-10363D01*
G01X37763Y-10339D01*
G01X37794Y-10314D01*
G01X37823Y-10288D01*
G01X37852Y-10260D01*
G01X37881Y-10232D01*
G01X37908Y-10203D01*
G01X37934Y-10173D01*
G01X37959Y-10143D01*
G01X37984Y-10111D01*
G01X38007Y-10079D01*
G01X38029Y-10046D01*
G01X38050Y-10012D01*
G01X38070Y-9978D01*
G01X38089Y-9943D01*
G01X38107Y-9908D01*
G01X38124Y-9872D01*
G01X38139Y-9835D01*
G01X38154Y-9798D01*
G01X38167Y-9760D01*
G01X38179Y-9722D01*
G01X38189Y-9684D01*
G01X38199Y-9646D01*
G01X38207Y-9607D01*
G01X38214Y-9567D01*
G01X38220Y-9528D01*
G01X38224Y-9489D01*
G01X38227Y-9449D01*
G01X38229Y-9409D01*
G01X38230Y-9370D01*
G01X38230Y-9370D02*
G01X38229Y-9330D01*
G01X38227Y-9290D01*
G01X38224Y-9251D01*
G01X38220Y-9211D01*
G01X38214Y-9172D01*
G01X38207Y-9133D01*
G01X38199Y-9094D01*
G01X38189Y-9055D01*
G01X38179Y-9017D01*
G01X38167Y-8979D01*
G01X38154Y-8941D01*
G01X38139Y-8904D01*
G01X38124Y-8868D01*
G01X38107Y-8832D01*
G01X38089Y-8796D01*
G01X38070Y-8761D01*
G01X38050Y-8727D01*
G01X38029Y-8693D01*
G01X38007Y-8660D01*
G01X37984Y-8628D01*
G01X37959Y-8596D01*
G01X37934Y-8566D01*
G01X37908Y-8536D01*
G01X37881Y-8507D01*
G01X37852Y-8479D01*
G01X37823Y-8452D01*
G01X37794Y-8425D01*
G01X37763Y-8400D01*
G01X37731Y-8376D01*
G01X37699Y-8353D01*
G01X37666Y-8330D01*
G01X37633Y-8309D01*
G01X37598Y-8289D01*
G01X37563Y-8270D01*
G01X37528Y-8252D01*
G01X37492Y-8236D01*
G01X37455Y-8220D01*
G01X37418Y-8206D01*
G01X37381Y-8193D01*
G01X37343Y-8181D01*
G01X37304Y-8170D01*
G01X37266Y-8161D01*
G01X37227Y-8152D01*
G01X37188Y-8145D01*
G01X37148Y-8140D01*
G01X37109Y-8135D01*
G01X37069Y-8132D01*
G01X37030Y-8130D01*
G01X36990Y-8130D01*
G01X36990Y-8130D02*
G01X36950Y-8130D01*
G01X36910Y-8132D01*
G01X36871Y-8135D01*
G01X36831Y-8140D01*
G01X36792Y-8145D01*
G01X36753Y-8152D01*
G01X36714Y-8161D01*
G01X36675Y-8170D01*
G01X36637Y-8181D01*
G01X36599Y-8193D01*
G01X36562Y-8206D01*
G01X36524Y-8220D01*
G01X36488Y-8236D01*
G01X36452Y-8252D01*
G01X36416Y-8270D01*
G01X36381Y-8289D01*
G01X36347Y-8309D01*
G01X36313Y-8330D01*
G01X36280Y-8353D01*
G01X36248Y-8376D01*
G01X36217Y-8400D01*
G01X36186Y-8425D01*
G01X36156Y-8452D01*
G01X36127Y-8479D01*
G01X36099Y-8507D01*
G01X36072Y-8536D01*
G01X36046Y-8566D01*
G01X36020Y-8596D01*
G01X35996Y-8628D01*
G01X35973Y-8660D01*
G01X35951Y-8693D01*
G01X35929Y-8727D01*
G01X35909Y-8761D01*
G01X35890Y-8796D01*
G01X35873Y-8832D01*
G01X35856Y-8868D01*
G01X35840Y-8904D01*
G01X35826Y-8941D01*
G01X35813Y-8979D01*
G01X35801Y-9017D01*
G01X35790Y-9055D01*
G01X35781Y-9094D01*
G01X35773Y-9133D01*
G01X35766Y-9172D01*
G01X35760Y-9211D01*
G01X35756Y-9251D01*
G01X35752Y-9290D01*
G01X35750Y-9330D01*
G01X35750Y-9370D01*
G04 Draw part powcap201*
G04 draw part outline for part powcap201*
G04 Draw part decasp900*
G04 draw part outline for part decasp900*
G01X2369Y-38610D02*
G01X2669Y-38610D01*
G01X2519Y-38460D02*
G01X2519Y-38760D01*
G01X4249Y-38110D02*
G01X4249Y-38070D01*
G01X4247Y-38030D01*
G01X4243Y-37991D01*
G01X4239Y-37951D01*
G01X4233Y-37912D01*
G01X4226Y-37873D01*
G01X4218Y-37834D01*
G01X4209Y-37795D01*
G01X4198Y-37757D01*
G01X4186Y-37719D01*
G01X4173Y-37681D01*
G01X4159Y-37644D01*
G01X4143Y-37608D01*
G01X4126Y-37572D01*
G01X4109Y-37536D01*
G01X4090Y-37501D01*
G01X4070Y-37467D01*
G01X4048Y-37433D01*
G01X4026Y-37400D01*
G01X4003Y-37368D01*
G01X3979Y-37337D01*
G01X3953Y-37306D01*
G01X3927Y-37276D01*
G01X3900Y-37247D01*
G01X3872Y-37219D01*
G01X3843Y-37192D01*
G01X3813Y-37166D01*
G01X3782Y-37140D01*
G01X3751Y-37116D01*
G01X3719Y-37093D01*
G01X3686Y-37071D01*
G01X3652Y-37049D01*
G01X3618Y-37029D01*
G01X3583Y-37010D01*
G01X3547Y-36993D01*
G01X3511Y-36976D01*
G01X3475Y-36960D01*
G01X3437Y-36946D01*
G01X3400Y-36933D01*
G01X3362Y-36921D01*
G01X3324Y-36910D01*
G01X3285Y-36901D01*
G01X3246Y-36893D01*
G01X3207Y-36886D01*
G01X3168Y-36880D01*
G01X3128Y-36875D01*
G01X3089Y-36872D01*
G01X3049Y-36870D01*
G01X3009Y-36870D01*
G01X3009Y-36870D02*
G01X2969Y-36870D01*
G01X2930Y-36872D01*
G01X2890Y-36875D01*
G01X2851Y-36880D01*
G01X2811Y-36886D01*
G01X2772Y-36893D01*
G01X2733Y-36901D01*
G01X2695Y-36910D01*
G01X2656Y-36921D01*
G01X2618Y-36933D01*
G01X2581Y-36946D01*
G01X2544Y-36960D01*
G01X2507Y-36976D01*
G01X2471Y-36993D01*
G01X2436Y-37010D01*
G01X2401Y-37029D01*
G01X2366Y-37049D01*
G01X2333Y-37071D01*
G01X2300Y-37093D01*
G01X2268Y-37116D01*
G01X2236Y-37140D01*
G01X2205Y-37166D01*
G01X2176Y-37192D01*
G01X2147Y-37219D01*
G01X2118Y-37247D01*
G01X2091Y-37276D01*
G01X2065Y-37306D01*
G01X2040Y-37337D01*
G01X2015Y-37368D01*
G01X1992Y-37400D01*
G01X1970Y-37433D01*
G01X1949Y-37467D01*
G01X1929Y-37501D01*
G01X1910Y-37536D01*
G01X1892Y-37572D01*
G01X1875Y-37608D01*
G01X1860Y-37644D01*
G01X1845Y-37681D01*
G01X1832Y-37719D01*
G01X1820Y-37757D01*
G01X1810Y-37795D01*
G01X1800Y-37834D01*
G01X1792Y-37873D01*
G01X1785Y-37912D01*
G01X1779Y-37951D01*
G01X1775Y-37991D01*
G01X1772Y-38030D01*
G01X1770Y-38070D01*
G01X1769Y-38110D01*
G01X1769Y-38110D02*
G01X1770Y-38149D01*
G01X1772Y-38189D01*
G01X1775Y-38229D01*
G01X1779Y-38268D01*
G01X1785Y-38308D01*
G01X1792Y-38347D01*
G01X1800Y-38386D01*
G01X1810Y-38424D01*
G01X1820Y-38463D01*
G01X1832Y-38500D01*
G01X1845Y-38538D01*
G01X1860Y-38575D01*
G01X1875Y-38612D01*
G01X1892Y-38648D01*
G01X1910Y-38683D01*
G01X1929Y-38718D01*
G01X1949Y-38753D01*
G01X1970Y-38786D01*
G01X1992Y-38819D01*
G01X2015Y-38851D01*
G01X2040Y-38883D01*
G01X2065Y-38914D01*
G01X2091Y-38943D01*
G01X2118Y-38972D01*
G01X2147Y-39000D01*
G01X2176Y-39028D01*
G01X2205Y-39054D01*
G01X2236Y-39079D01*
G01X2268Y-39103D01*
G01X2300Y-39127D01*
G01X2333Y-39149D01*
G01X2366Y-39170D01*
G01X2401Y-39190D01*
G01X2436Y-39209D01*
G01X2471Y-39227D01*
G01X2507Y-39244D01*
G01X2544Y-39259D01*
G01X2581Y-39273D01*
G01X2618Y-39287D01*
G01X2656Y-39298D01*
G01X2695Y-39309D01*
G01X2733Y-39319D01*
G01X2772Y-39327D01*
G01X2811Y-39334D01*
G01X2851Y-39340D01*
G01X2890Y-39344D01*
G01X2930Y-39347D01*
G01X2969Y-39349D01*
G01X3009Y-39350D01*
G01X3009Y-39350D02*
G01X3049Y-39349D01*
G01X3089Y-39347D01*
G01X3128Y-39344D01*
G01X3168Y-39340D01*
G01X3207Y-39334D01*
G01X3246Y-39327D01*
G01X3285Y-39319D01*
G01X3324Y-39309D01*
G01X3362Y-39298D01*
G01X3400Y-39287D01*
G01X3437Y-39273D01*
G01X3475Y-39259D01*
G01X3511Y-39244D01*
G01X3547Y-39227D01*
G01X3583Y-39209D01*
G01X3618Y-39190D01*
G01X3652Y-39170D01*
G01X3686Y-39149D01*
G01X3719Y-39127D01*
G01X3751Y-39103D01*
G01X3782Y-39079D01*
G01X3813Y-39054D01*
G01X3843Y-39028D01*
G01X3872Y-39000D01*
G01X3900Y-38972D01*
G01X3927Y-38943D01*
G01X3953Y-38914D01*
G01X3979Y-38883D01*
G01X4003Y-38851D01*
G01X4026Y-38819D01*
G01X4048Y-38786D01*
G01X4070Y-38753D01*
G01X4090Y-38718D01*
G01X4109Y-38683D01*
G01X4126Y-38648D01*
G01X4143Y-38612D01*
G01X4159Y-38575D01*
G01X4173Y-38538D01*
G01X4186Y-38500D01*
G01X4198Y-38463D01*
G01X4209Y-38424D01*
G01X4218Y-38386D01*
G01X4226Y-38347D01*
G01X4233Y-38308D01*
G01X4239Y-38268D01*
G01X4243Y-38229D01*
G01X4247Y-38189D01*
G01X4249Y-38149D01*
G01X4249Y-38110D01*
G04 Draw part meeple*
G04 draw part outline for part meeple*
G04 Draw part powvia*
G04 draw part outline for part powvia*
G04 Draw part blahvccio*
G04 Draw part dio1*
G04 draw part outline for part dio1*
G01X39488Y-12362D02*
G01X41456Y-12362D01*
G01X41456Y-12362D02*
G01X41456Y-13385D01*
G01X41456Y-13385D02*
G01X39488Y-13385D01*
G01X39488Y-13385D02*
G01X39488Y-12362D01*
G04 Draw part resft1*
G04 Draw part resft2*
G04 Draw part resnet*
G04 draw part outline for part resnet*
G04 Draw part ledres9000*
G04 Draw part ledres9001*
G04 Draw part ledres9002*
G04 Draw part ledres9003*
G04 Draw part ledres9004*
G04 draw part outline for part ledres9004*
G54D11*
G01X46732Y-6354D02*
G01X43332Y-6354D01*
G01X43332Y-6354D02*
G01X43332Y-3354D01*
G01X43332Y-3354D02*
G01X49132Y-3354D01*
G01X49132Y-3354D02*
G01X49132Y-6354D01*
G01X49132Y-6354D02*
G01X46832Y-6354D01*
G01X46832Y-6354D02*
G01X46732Y-6354D01*
G04 Draw part ledres9005*

G04 Draw traces*

G04 Draw Text*
G54D10*
G01X36975Y-43246D02*
G01X36975Y-43622D01*
G01X36850Y-43246D02*
G01X37100Y-43246D01*
G01X37244Y-43246D02*
G01X37244Y-43622D01*
G01X37244Y-43246D02*
G01X37369Y-43246D01*
G01X37369Y-43246D02*
G01X37423Y-43264D01*
G01X37423Y-43264D02*
G01X37458Y-43299D01*
G01X37458Y-43299D02*
G01X37476Y-43335D01*
G01X37476Y-43335D02*
G01X37494Y-43389D01*
G01X37494Y-43389D02*
G01X37494Y-43478D01*
G01X37494Y-43478D02*
G01X37476Y-43532D01*
G01X37476Y-43532D02*
G01X37458Y-43568D01*
G01X37458Y-43568D02*
G01X37423Y-43604D01*
G01X37423Y-43604D02*
G01X37369Y-43622D01*
G01X37369Y-43622D02*
G01X37244Y-43622D01*
G01X37637Y-43246D02*
G01X37637Y-43622D01*
G01X36975Y-44230D02*
G01X36975Y-44606D01*
G01X36850Y-44230D02*
G01X37100Y-44230D01*
G01X37244Y-44230D02*
G01X37244Y-44606D01*
G01X37244Y-44230D02*
G01X37369Y-44230D01*
G01X37369Y-44230D02*
G01X37423Y-44248D01*
G01X37423Y-44248D02*
G01X37458Y-44284D01*
G01X37458Y-44284D02*
G01X37476Y-44319D01*
G01X37476Y-44319D02*
G01X37494Y-44373D01*
G01X37494Y-44373D02*
G01X37494Y-44463D01*
G01X37494Y-44463D02*
G01X37476Y-44516D01*
G01X37476Y-44516D02*
G01X37458Y-44552D01*
G01X37458Y-44552D02*
G01X37423Y-44588D01*
G01X37423Y-44588D02*
G01X37369Y-44606D01*
G01X37369Y-44606D02*
G01X37244Y-44606D01*
G01X37745Y-44230D02*
G01X37709Y-44248D01*
G01X37709Y-44248D02*
G01X37673Y-44284D01*
G01X37673Y-44284D02*
G01X37655Y-44319D01*
G01X37655Y-44319D02*
G01X37637Y-44373D01*
G01X37637Y-44373D02*
G01X37637Y-44463D01*
G01X37637Y-44463D02*
G01X37655Y-44516D01*
G01X37655Y-44516D02*
G01X37673Y-44552D01*
G01X37673Y-44552D02*
G01X37709Y-44588D01*
G01X37709Y-44588D02*
G01X37745Y-44606D01*
G01X37745Y-44606D02*
G01X37816Y-44606D01*
G01X37816Y-44606D02*
G01X37852Y-44588D01*
G01X37852Y-44588D02*
G01X37888Y-44552D01*
G01X37888Y-44552D02*
G01X37906Y-44516D01*
G01X37906Y-44516D02*
G01X37924Y-44463D01*
G01X37924Y-44463D02*
G01X37924Y-44373D01*
G01X37924Y-44373D02*
G01X37906Y-44319D01*
G01X37906Y-44319D02*
G01X37888Y-44284D01*
G01X37888Y-44284D02*
G01X37852Y-44248D01*
G01X37852Y-44248D02*
G01X37816Y-44230D01*
G01X37816Y-44230D02*
G01X37745Y-44230D01*
G01X37015Y-45293D02*
G01X37015Y-45669D01*
G01X36889Y-45293D02*
G01X37140Y-45293D01*
G01X37551Y-45382D02*
G01X37534Y-45347D01*
G01X37534Y-45347D02*
G01X37498Y-45311D01*
G01X37498Y-45311D02*
G01X37462Y-45293D01*
G01X37462Y-45293D02*
G01X37390Y-45293D01*
G01X37390Y-45293D02*
G01X37355Y-45311D01*
G01X37355Y-45311D02*
G01X37319Y-45347D01*
G01X37319Y-45347D02*
G01X37301Y-45382D01*
G01X37301Y-45382D02*
G01X37283Y-45436D01*
G01X37283Y-45436D02*
G01X37283Y-45526D01*
G01X37283Y-45526D02*
G01X37301Y-45579D01*
G01X37301Y-45579D02*
G01X37319Y-45615D01*
G01X37319Y-45615D02*
G01X37355Y-45651D01*
G01X37355Y-45651D02*
G01X37390Y-45669D01*
G01X37390Y-45669D02*
G01X37462Y-45669D01*
G01X37462Y-45669D02*
G01X37498Y-45651D01*
G01X37498Y-45651D02*
G01X37534Y-45615D01*
G01X37534Y-45615D02*
G01X37551Y-45579D01*
G01X37695Y-45293D02*
G01X37695Y-45669D01*
G01X37945Y-45293D02*
G01X37695Y-45544D01*
G01X37784Y-45454D02*
G01X37945Y-45669D01*
G01X37158Y-46406D02*
G01X37140Y-46370D01*
G01X37140Y-46370D02*
G01X37104Y-46335D01*
G01X37104Y-46335D02*
G01X37068Y-46317D01*
G01X37068Y-46317D02*
G01X36997Y-46317D01*
G01X36997Y-46317D02*
G01X36961Y-46335D01*
G01X36961Y-46335D02*
G01X36925Y-46370D01*
G01X36925Y-46370D02*
G01X36907Y-46406D01*
G01X36907Y-46406D02*
G01X36889Y-46460D01*
G01X36889Y-46460D02*
G01X36889Y-46549D01*
G01X36889Y-46549D02*
G01X36907Y-46603D01*
G01X36907Y-46603D02*
G01X36925Y-46639D01*
G01X36925Y-46639D02*
G01X36961Y-46675D01*
G01X36961Y-46675D02*
G01X36997Y-46692D01*
G01X36997Y-46692D02*
G01X37068Y-46692D01*
G01X37068Y-46692D02*
G01X37104Y-46675D01*
G01X37104Y-46675D02*
G01X37140Y-46639D01*
G01X37140Y-46639D02*
G01X37158Y-46603D01*
G01X37158Y-46603D02*
G01X37158Y-46549D01*
G01X37068Y-46549D02*
G01X37158Y-46549D01*
G01X37301Y-46317D02*
G01X37301Y-46692D01*
G01X37301Y-46317D02*
G01X37551Y-46692D01*
G01X37551Y-46317D02*
G01X37551Y-46692D01*
G01X37695Y-46317D02*
G01X37695Y-46692D01*
G01X37695Y-46317D02*
G01X37820Y-46317D01*
G01X37820Y-46317D02*
G01X37874Y-46335D01*
G01X37874Y-46335D02*
G01X37909Y-46370D01*
G01X37909Y-46370D02*
G01X37927Y-46406D01*
G01X37927Y-46406D02*
G01X37945Y-46460D01*
G01X37945Y-46460D02*
G01X37945Y-46549D01*
G01X37945Y-46549D02*
G01X37927Y-46603D01*
G01X37927Y-46603D02*
G01X37909Y-46639D01*
G01X37909Y-46639D02*
G01X37874Y-46675D01*
G01X37874Y-46675D02*
G01X37820Y-46692D01*
G01X37820Y-46692D02*
G01X37695Y-46692D01*
G01X36889Y-47261D02*
G01X37032Y-47637D01*
G01X37176Y-47261D02*
G01X37032Y-47637D01*
G01X37587Y-47351D02*
G01X37569Y-47315D01*
G01X37569Y-47315D02*
G01X37534Y-47279D01*
G01X37534Y-47279D02*
G01X37498Y-47261D01*
G01X37498Y-47261D02*
G01X37426Y-47261D01*
G01X37426Y-47261D02*
G01X37390Y-47279D01*
G01X37390Y-47279D02*
G01X37355Y-47315D01*
G01X37355Y-47315D02*
G01X37337Y-47351D01*
G01X37337Y-47351D02*
G01X37319Y-47405D01*
G01X37319Y-47405D02*
G01X37319Y-47494D01*
G01X37319Y-47494D02*
G01X37337Y-47548D01*
G01X37337Y-47548D02*
G01X37355Y-47584D01*
G01X37355Y-47584D02*
G01X37390Y-47619D01*
G01X37390Y-47619D02*
G01X37426Y-47637D01*
G01X37426Y-47637D02*
G01X37498Y-47637D01*
G01X37498Y-47637D02*
G01X37534Y-47619D01*
G01X37534Y-47619D02*
G01X37569Y-47584D01*
G01X37569Y-47584D02*
G01X37587Y-47548D01*
G01X37999Y-47351D02*
G01X37981Y-47315D01*
G01X37981Y-47315D02*
G01X37945Y-47279D01*
G01X37945Y-47279D02*
G01X37909Y-47261D01*
G01X37909Y-47261D02*
G01X37838Y-47261D01*
G01X37838Y-47261D02*
G01X37802Y-47279D01*
G01X37802Y-47279D02*
G01X37766Y-47315D01*
G01X37766Y-47315D02*
G01X37748Y-47351D01*
G01X37748Y-47351D02*
G01X37730Y-47405D01*
G01X37730Y-47405D02*
G01X37730Y-47494D01*
G01X37730Y-47494D02*
G01X37748Y-47548D01*
G01X37748Y-47548D02*
G01X37766Y-47584D01*
G01X37766Y-47584D02*
G01X37802Y-47619D01*
G01X37802Y-47619D02*
G01X37838Y-47637D01*
G01X37838Y-47637D02*
G01X37909Y-47637D01*
G01X37909Y-47637D02*
G01X37945Y-47619D01*
G01X37945Y-47619D02*
G01X37981Y-47584D01*
G01X37981Y-47584D02*
G01X37999Y-47548D01*
G01X36975Y-42222D02*
G01X36975Y-42598D01*
G01X36850Y-42222D02*
G01X37100Y-42222D01*
G01X37244Y-42222D02*
G01X37244Y-42598D01*
G01X37244Y-42222D02*
G01X37387Y-42598D01*
G01X37530Y-42222D02*
G01X37387Y-42598D01*
G01X37530Y-42222D02*
G01X37530Y-42598D01*
G01X37924Y-42276D02*
G01X37888Y-42240D01*
G01X37888Y-42240D02*
G01X37834Y-42222D01*
G01X37834Y-42222D02*
G01X37763Y-42222D01*
G01X37763Y-42222D02*
G01X37709Y-42240D01*
G01X37709Y-42240D02*
G01X37673Y-42276D01*
G01X37673Y-42276D02*
G01X37673Y-42312D01*
G01X37673Y-42312D02*
G01X37691Y-42347D01*
G01X37691Y-42347D02*
G01X37709Y-42365D01*
G01X37709Y-42365D02*
G01X37745Y-42383D01*
G01X37745Y-42383D02*
G01X37852Y-42419D01*
G01X37852Y-42419D02*
G01X37888Y-42437D01*
G01X37888Y-42437D02*
G01X37906Y-42455D01*
G01X37906Y-42455D02*
G01X37924Y-42491D01*
G01X37924Y-42491D02*
G01X37924Y-42544D01*
G01X37924Y-42544D02*
G01X37888Y-42580D01*
G01X37888Y-42580D02*
G01X37834Y-42598D01*
G01X37834Y-42598D02*
G01X37763Y-42598D01*
G01X37763Y-42598D02*
G01X37709Y-42580D01*
G01X37709Y-42580D02*
G01X37673Y-42544D01*
G01X33378Y-45026D02*
G01X33378Y-45456D01*
G01X33378Y-45456D02*
G01X33351Y-45536D01*
G01X33351Y-45536D02*
G01X33324Y-45563D01*
G01X33324Y-45563D02*
G01X33271Y-45590D01*
G01X33271Y-45590D02*
G01X33217Y-45590D01*
G01X33217Y-45590D02*
G01X33163Y-45563D01*
G01X33163Y-45563D02*
G01X33137Y-45536D01*
G01X33137Y-45536D02*
G01X33110Y-45456D01*
G01X33110Y-45456D02*
G01X33110Y-45402D01*
G01X33781Y-45026D02*
G01X33781Y-45590D01*
G01X33593Y-45026D02*
G01X33969Y-45026D01*
G01X34398Y-45026D02*
G01X34183Y-45590D01*
G01X34398Y-45026D02*
G01X34613Y-45590D01*
G01X34264Y-45402D02*
G01X34532Y-45402D01*
G01X35230Y-45161D02*
G01X35204Y-45107D01*
G01X35204Y-45107D02*
G01X35150Y-45053D01*
G01X35150Y-45053D02*
G01X35096Y-45026D01*
G01X35096Y-45026D02*
G01X34989Y-45026D01*
G01X34989Y-45026D02*
G01X34935Y-45053D01*
G01X34935Y-45053D02*
G01X34881Y-45107D01*
G01X34881Y-45107D02*
G01X34855Y-45161D01*
G01X34855Y-45161D02*
G01X34828Y-45241D01*
G01X34828Y-45241D02*
G01X34828Y-45375D01*
G01X34828Y-45375D02*
G01X34855Y-45456D01*
G01X34855Y-45456D02*
G01X34881Y-45510D01*
G01X34881Y-45510D02*
G01X34935Y-45563D01*
G01X34935Y-45563D02*
G01X34989Y-45590D01*
G01X34989Y-45590D02*
G01X35096Y-45590D01*
G01X35096Y-45590D02*
G01X35150Y-45563D01*
G01X35150Y-45563D02*
G01X35204Y-45510D01*
G01X35204Y-45510D02*
G01X35230Y-45456D01*
G01X35230Y-45456D02*
G01X35230Y-45375D01*
G01X35096Y-45375D02*
G01X35230Y-45375D01*
G54D11*
G01X8794Y-7410D02*
G01X8794Y-8228D01*
G01X8385Y-7819D02*
G01X9204Y-7819D01*
G54D10*
G01X7129Y-28890D02*
G01X7129Y-29212D01*
G01X6968Y-29051D02*
G01X7290Y-29051D01*
G01X8153Y-28890D02*
G01X8153Y-29212D01*
G01X7992Y-29051D02*
G01X8314Y-29051D01*
G01X1195Y-54520D02*
G01X1159Y-54484D01*
G01X1159Y-54484D02*
G01X1105Y-54466D01*
G01X1105Y-54466D02*
G01X1034Y-54466D01*
G01X1034Y-54466D02*
G01X980Y-54484D01*
G01X980Y-54484D02*
G01X944Y-54520D01*
G01X944Y-54520D02*
G01X944Y-54556D01*
G01X944Y-54556D02*
G01X962Y-54591D01*
G01X962Y-54591D02*
G01X980Y-54609D01*
G01X980Y-54609D02*
G01X1016Y-54627D01*
G01X1016Y-54627D02*
G01X1123Y-54663D01*
G01X1123Y-54663D02*
G01X1159Y-54681D01*
G01X1159Y-54681D02*
G01X1177Y-54699D01*
G01X1177Y-54699D02*
G01X1195Y-54735D01*
G01X1195Y-54735D02*
G01X1195Y-54788D01*
G01X1195Y-54788D02*
G01X1159Y-54824D01*
G01X1159Y-54824D02*
G01X1105Y-54842D01*
G01X1105Y-54842D02*
G01X1034Y-54842D01*
G01X1034Y-54842D02*
G01X980Y-54824D01*
G01X980Y-54824D02*
G01X944Y-54788D01*
G01X1338Y-54466D02*
G01X1338Y-54842D01*
G01X1338Y-54466D02*
G01X1463Y-54466D01*
G01X1463Y-54466D02*
G01X1517Y-54484D01*
G01X1517Y-54484D02*
G01X1553Y-54520D01*
G01X1553Y-54520D02*
G01X1571Y-54556D01*
G01X1571Y-54556D02*
G01X1589Y-54609D01*
G01X1589Y-54609D02*
G01X1589Y-54699D01*
G01X1589Y-54699D02*
G01X1571Y-54753D01*
G01X1571Y-54753D02*
G01X1553Y-54788D01*
G01X1553Y-54788D02*
G01X1517Y-54824D01*
G01X1517Y-54824D02*
G01X1463Y-54842D01*
G01X1463Y-54842D02*
G01X1338Y-54842D01*
G01X2018Y-54466D02*
G01X2018Y-54842D01*
G01X2018Y-54842D02*
G01X2233Y-54842D01*
G01X2376Y-54466D02*
G01X2376Y-54842D01*
G01X2376Y-54466D02*
G01X2609Y-54466D01*
G01X2376Y-54645D02*
G01X2519Y-54645D01*
G01X2376Y-54842D02*
G01X2609Y-54842D01*
G01X2752Y-54466D02*
G01X2752Y-54842D01*
G01X2752Y-54466D02*
G01X2877Y-54466D01*
G01X2877Y-54466D02*
G01X2931Y-54484D01*
G01X2931Y-54484D02*
G01X2967Y-54520D01*
G01X2967Y-54520D02*
G01X2984Y-54556D01*
G01X2984Y-54556D02*
G01X3002Y-54609D01*
G01X3002Y-54609D02*
G01X3002Y-54699D01*
G01X3002Y-54699D02*
G01X2984Y-54753D01*
G01X2984Y-54753D02*
G01X2967Y-54788D01*
G01X2967Y-54788D02*
G01X2931Y-54824D01*
G01X2931Y-54824D02*
G01X2877Y-54842D01*
G01X2877Y-54842D02*
G01X2752Y-54842D01*
G01X3625Y-55347D02*
G01X3625Y-55669D01*
G01X3464Y-55508D02*
G01X3786Y-55508D01*
G01X36134Y-50461D02*
G01X36116Y-50425D01*
G01X36116Y-50425D02*
G01X36080Y-50390D01*
G01X36080Y-50390D02*
G01X36045Y-50372D01*
G01X36045Y-50372D02*
G01X35973Y-50372D01*
G01X35973Y-50372D02*
G01X35937Y-50390D01*
G01X35937Y-50390D02*
G01X35901Y-50425D01*
G01X35901Y-50425D02*
G01X35884Y-50461D01*
G01X35884Y-50461D02*
G01X35866Y-50515D01*
G01X35866Y-50515D02*
G01X35866Y-50604D01*
G01X35866Y-50604D02*
G01X35884Y-50658D01*
G01X35884Y-50658D02*
G01X35901Y-50694D01*
G01X35901Y-50694D02*
G01X35937Y-50730D01*
G01X35937Y-50730D02*
G01X35973Y-50748D01*
G01X35973Y-50748D02*
G01X36045Y-50748D01*
G01X36045Y-50748D02*
G01X36080Y-50730D01*
G01X36080Y-50730D02*
G01X36116Y-50694D01*
G01X36116Y-50694D02*
G01X36134Y-50658D01*
G01X36134Y-50658D02*
G01X36134Y-50604D01*
G01X36045Y-50604D02*
G01X36134Y-50604D01*
G01X36277Y-50497D02*
G01X36277Y-50748D01*
G01X36277Y-50569D02*
G01X36331Y-50515D01*
G01X36331Y-50515D02*
G01X36367Y-50497D01*
G01X36367Y-50497D02*
G01X36420Y-50497D01*
G01X36420Y-50497D02*
G01X36456Y-50515D01*
G01X36456Y-50515D02*
G01X36474Y-50569D01*
G01X36474Y-50569D02*
G01X36474Y-50748D01*
G01X36832Y-50372D02*
G01X36832Y-50748D01*
G01X36832Y-50551D02*
G01X36796Y-50515D01*
G01X36796Y-50515D02*
G01X36760Y-50497D01*
G01X36760Y-50497D02*
G01X36707Y-50497D01*
G01X36707Y-50497D02*
G01X36671Y-50515D01*
G01X36671Y-50515D02*
G01X36635Y-50551D01*
G01X36635Y-50551D02*
G01X36617Y-50604D01*
G01X36617Y-50604D02*
G01X36617Y-50640D01*
G01X36617Y-50640D02*
G01X36635Y-50694D01*
G01X36635Y-50694D02*
G01X36671Y-50730D01*
G01X36671Y-50730D02*
G01X36707Y-50748D01*
G01X36707Y-50748D02*
G01X36760Y-50748D01*
G01X36760Y-50748D02*
G01X36796Y-50730D01*
G01X36796Y-50730D02*
G01X36832Y-50694D01*
G01X39402Y-26957D02*
G01X39384Y-26921D01*
G01X39384Y-26921D02*
G01X39348Y-26886D01*
G01X39348Y-26886D02*
G01X39312Y-26868D01*
G01X39312Y-26868D02*
G01X39241Y-26868D01*
G01X39241Y-26868D02*
G01X39205Y-26886D01*
G01X39205Y-26886D02*
G01X39169Y-26921D01*
G01X39169Y-26921D02*
G01X39151Y-26957D01*
G01X39151Y-26957D02*
G01X39133Y-27011D01*
G01X39133Y-27011D02*
G01X39133Y-27100D01*
G01X39133Y-27100D02*
G01X39151Y-27154D01*
G01X39151Y-27154D02*
G01X39169Y-27190D01*
G01X39169Y-27190D02*
G01X39205Y-27226D01*
G01X39205Y-27226D02*
G01X39241Y-27244D01*
G01X39241Y-27244D02*
G01X39312Y-27244D01*
G01X39312Y-27244D02*
G01X39348Y-27226D01*
G01X39348Y-27226D02*
G01X39384Y-27190D01*
G01X39384Y-27190D02*
G01X39402Y-27154D01*
G01X39402Y-27154D02*
G01X39402Y-27100D01*
G01X39312Y-27100D02*
G01X39402Y-27100D01*
G01X39545Y-26993D02*
G01X39545Y-27244D01*
G01X39545Y-27065D02*
G01X39599Y-27011D01*
G01X39599Y-27011D02*
G01X39634Y-26993D01*
G01X39634Y-26993D02*
G01X39688Y-26993D01*
G01X39688Y-26993D02*
G01X39724Y-27011D01*
G01X39724Y-27011D02*
G01X39742Y-27065D01*
G01X39742Y-27065D02*
G01X39742Y-27244D01*
G01X40100Y-26868D02*
G01X40100Y-27244D01*
G01X40100Y-27047D02*
G01X40064Y-27011D01*
G01X40064Y-27011D02*
G01X40028Y-26993D01*
G01X40028Y-26993D02*
G01X39974Y-26993D01*
G01X39974Y-26993D02*
G01X39939Y-27011D01*
G01X39939Y-27011D02*
G01X39903Y-27047D01*
G01X39903Y-27047D02*
G01X39885Y-27100D01*
G01X39885Y-27100D02*
G01X39885Y-27136D01*
G01X39885Y-27136D02*
G01X39903Y-27190D01*
G01X39903Y-27190D02*
G01X39939Y-27226D01*
G01X39939Y-27226D02*
G01X39974Y-27244D01*
G01X39974Y-27244D02*
G01X40028Y-27244D01*
G01X40028Y-27244D02*
G01X40064Y-27226D01*
G01X40064Y-27226D02*
G01X40100Y-27190D01*
G01X35905Y-49309D02*
G01X35905Y-49685D01*
G01X36066Y-49649D02*
G01X36048Y-49667D01*
G01X36048Y-49667D02*
G01X36066Y-49685D01*
G01X36066Y-49685D02*
G01X36084Y-49667D01*
G01X36084Y-49667D02*
G01X36066Y-49649D01*
G01X36335Y-49309D02*
G01X36299Y-49327D01*
G01X36299Y-49327D02*
G01X36263Y-49362D01*
G01X36263Y-49362D02*
G01X36245Y-49398D01*
G01X36245Y-49398D02*
G01X36227Y-49452D01*
G01X36227Y-49452D02*
G01X36227Y-49541D01*
G01X36227Y-49541D02*
G01X36245Y-49595D01*
G01X36245Y-49595D02*
G01X36263Y-49631D01*
G01X36263Y-49631D02*
G01X36299Y-49667D01*
G01X36299Y-49667D02*
G01X36335Y-49685D01*
G01X36335Y-49685D02*
G01X36406Y-49685D01*
G01X36406Y-49685D02*
G01X36442Y-49667D01*
G01X36442Y-49667D02*
G01X36478Y-49631D01*
G01X36478Y-49631D02*
G01X36496Y-49595D01*
G01X36496Y-49595D02*
G01X36513Y-49541D01*
G01X36513Y-49541D02*
G01X36513Y-49452D01*
G01X36513Y-49452D02*
G01X36496Y-49398D01*
G01X36496Y-49398D02*
G01X36478Y-49362D01*
G01X36478Y-49362D02*
G01X36442Y-49327D01*
G01X36442Y-49327D02*
G01X36406Y-49309D01*
G01X36406Y-49309D02*
G01X36335Y-49309D01*
G01X36675Y-49398D02*
G01X36675Y-49380D01*
G01X36675Y-49380D02*
G01X36692Y-49345D01*
G01X36692Y-49345D02*
G01X36710Y-49327D01*
G01X36710Y-49327D02*
G01X36746Y-49309D01*
G01X36746Y-49309D02*
G01X36818Y-49309D01*
G01X36818Y-49309D02*
G01X36853Y-49327D01*
G01X36853Y-49327D02*
G01X36871Y-49345D01*
G01X36871Y-49345D02*
G01X36889Y-49380D01*
G01X36889Y-49380D02*
G01X36889Y-49416D01*
G01X36889Y-49416D02*
G01X36871Y-49452D01*
G01X36871Y-49452D02*
G01X36836Y-49506D01*
G01X36836Y-49506D02*
G01X36657Y-49685D01*
G01X36657Y-49685D02*
G01X36907Y-49685D01*
G01X35866Y-26868D02*
G01X35866Y-27244D01*
G01X36027Y-27208D02*
G01X36009Y-27226D01*
G01X36009Y-27226D02*
G01X36027Y-27244D01*
G01X36027Y-27244D02*
G01X36045Y-27226D01*
G01X36045Y-27226D02*
G01X36027Y-27208D01*
G01X36295Y-26868D02*
G01X36259Y-26886D01*
G01X36259Y-26886D02*
G01X36224Y-26921D01*
G01X36224Y-26921D02*
G01X36206Y-26957D01*
G01X36206Y-26957D02*
G01X36188Y-27011D01*
G01X36188Y-27011D02*
G01X36188Y-27100D01*
G01X36188Y-27100D02*
G01X36206Y-27154D01*
G01X36206Y-27154D02*
G01X36224Y-27190D01*
G01X36224Y-27190D02*
G01X36259Y-27226D01*
G01X36259Y-27226D02*
G01X36295Y-27244D01*
G01X36295Y-27244D02*
G01X36367Y-27244D01*
G01X36367Y-27244D02*
G01X36403Y-27226D01*
G01X36403Y-27226D02*
G01X36438Y-27190D01*
G01X36438Y-27190D02*
G01X36456Y-27154D01*
G01X36456Y-27154D02*
G01X36474Y-27100D01*
G01X36474Y-27100D02*
G01X36474Y-27011D01*
G01X36474Y-27011D02*
G01X36456Y-26957D01*
G01X36456Y-26957D02*
G01X36438Y-26921D01*
G01X36438Y-26921D02*
G01X36403Y-26886D01*
G01X36403Y-26886D02*
G01X36367Y-26868D01*
G01X36367Y-26868D02*
G01X36295Y-26868D01*
G01X36617Y-26939D02*
G01X36653Y-26921D01*
G01X36653Y-26921D02*
G01X36707Y-26868D01*
G01X36707Y-26868D02*
G01X36707Y-27244D01*
G01X511Y-32419D02*
G01X511Y-32795D01*
G01X511Y-32419D02*
G01X672Y-32419D01*
G01X672Y-32419D02*
G01X726Y-32437D01*
G01X726Y-32437D02*
G01X744Y-32455D01*
G01X744Y-32455D02*
G01X762Y-32491D01*
G01X762Y-32491D02*
G01X762Y-32526D01*
G01X762Y-32526D02*
G01X744Y-32562D01*
G01X744Y-32562D02*
G01X726Y-32580D01*
G01X726Y-32580D02*
G01X672Y-32598D01*
G01X672Y-32598D02*
G01X511Y-32598D01*
G01X637Y-32598D02*
G01X762Y-32795D01*
G01X905Y-32419D02*
G01X905Y-32795D01*
G01X905Y-32419D02*
G01X1138Y-32419D01*
G01X905Y-32598D02*
G01X1048Y-32598D01*
G01X905Y-32795D02*
G01X1138Y-32795D01*
G01X1531Y-32473D02*
G01X1496Y-32437D01*
G01X1496Y-32437D02*
G01X1442Y-32419D01*
G01X1442Y-32419D02*
G01X1370Y-32419D01*
G01X1370Y-32419D02*
G01X1317Y-32437D01*
G01X1317Y-32437D02*
G01X1281Y-32473D01*
G01X1281Y-32473D02*
G01X1281Y-32508D01*
G01X1281Y-32508D02*
G01X1299Y-32544D01*
G01X1299Y-32544D02*
G01X1317Y-32562D01*
G01X1317Y-32562D02*
G01X1352Y-32580D01*
G01X1352Y-32580D02*
G01X1460Y-32616D01*
G01X1460Y-32616D02*
G01X1496Y-32634D01*
G01X1496Y-32634D02*
G01X1513Y-32652D01*
G01X1513Y-32652D02*
G01X1531Y-32687D01*
G01X1531Y-32687D02*
G01X1531Y-32741D01*
G01X1531Y-32741D02*
G01X1496Y-32777D01*
G01X1496Y-32777D02*
G01X1442Y-32795D01*
G01X1442Y-32795D02*
G01X1370Y-32795D01*
G01X1370Y-32795D02*
G01X1317Y-32777D01*
G01X1317Y-32777D02*
G01X1281Y-32741D01*
G01X1675Y-32419D02*
G01X1675Y-32795D01*
G01X1675Y-32419D02*
G01X1907Y-32419D01*
G01X1675Y-32598D02*
G01X1818Y-32598D01*
G01X1675Y-32795D02*
G01X1907Y-32795D01*
G01X2176Y-32419D02*
G01X2176Y-32795D01*
G01X2050Y-32419D02*
G01X2301Y-32419D01*
G01X8858Y-26435D02*
G01X8858Y-26811D01*
G01X8858Y-26435D02*
G01X9019Y-26435D01*
G01X9019Y-26435D02*
G01X9073Y-26453D01*
G01X9073Y-26453D02*
G01X9090Y-26471D01*
G01X9090Y-26471D02*
G01X9108Y-26506D01*
G01X9108Y-26506D02*
G01X9108Y-26542D01*
G01X9108Y-26542D02*
G01X9090Y-26578D01*
G01X9090Y-26578D02*
G01X9073Y-26596D01*
G01X9073Y-26596D02*
G01X9019Y-26614D01*
G01X9019Y-26614D02*
G01X8858Y-26614D01*
G01X8983Y-26614D02*
G01X9108Y-26811D01*
G01X9502Y-26488D02*
G01X9466Y-26453D01*
G01X9466Y-26453D02*
G01X9413Y-26435D01*
G01X9413Y-26435D02*
G01X9341Y-26435D01*
G01X9341Y-26435D02*
G01X9287Y-26453D01*
G01X9287Y-26453D02*
G01X9251Y-26488D01*
G01X9251Y-26488D02*
G01X9251Y-26524D01*
G01X9251Y-26524D02*
G01X9269Y-26560D01*
G01X9269Y-26560D02*
G01X9287Y-26578D01*
G01X9287Y-26578D02*
G01X9323Y-26596D01*
G01X9323Y-26596D02*
G01X9430Y-26632D01*
G01X9430Y-26632D02*
G01X9466Y-26649D01*
G01X9466Y-26649D02*
G01X9484Y-26667D01*
G01X9484Y-26667D02*
G01X9502Y-26703D01*
G01X9502Y-26703D02*
G01X9502Y-26757D01*
G01X9502Y-26757D02*
G01X9466Y-26793D01*
G01X9466Y-26793D02*
G01X9413Y-26811D01*
G01X9413Y-26811D02*
G01X9341Y-26811D01*
G01X9341Y-26811D02*
G01X9287Y-26793D01*
G01X9287Y-26793D02*
G01X9251Y-26757D01*
G01X8167Y-27702D02*
G01X8149Y-27720D01*
G01X8149Y-27720D02*
G01X8167Y-27738D01*
G01X8167Y-27738D02*
G01X8185Y-27720D01*
G01X8185Y-27720D02*
G01X8167Y-27702D01*
G01X8167Y-27916D02*
G01X8149Y-27934D01*
G01X8149Y-27934D02*
G01X8167Y-27952D01*
G01X8167Y-27952D02*
G01X8185Y-27934D01*
G01X8185Y-27934D02*
G01X8167Y-27916D01*
G01X7143Y-27702D02*
G01X7125Y-27720D01*
G01X7125Y-27720D02*
G01X7143Y-27738D01*
G01X7143Y-27738D02*
G01X7161Y-27720D01*
G01X7161Y-27720D02*
G01X7143Y-27702D01*
G01X7143Y-27916D02*
G01X7125Y-27934D01*
G01X7125Y-27934D02*
G01X7143Y-27952D01*
G01X7143Y-27952D02*
G01X7161Y-27934D01*
G01X7161Y-27934D02*
G01X7143Y-27916D01*
G01X9151Y-27702D02*
G01X9133Y-27720D01*
G01X9133Y-27720D02*
G01X9151Y-27738D01*
G01X9151Y-27738D02*
G01X9169Y-27720D01*
G01X9169Y-27720D02*
G01X9151Y-27702D01*
G01X9151Y-27916D02*
G01X9133Y-27934D01*
G01X9133Y-27934D02*
G01X9151Y-27952D01*
G01X9151Y-27952D02*
G01X9169Y-27934D01*
G01X9169Y-27934D02*
G01X9151Y-27916D01*
G01X42168Y-11961D02*
G01X42168Y-12283D01*
G01X42007Y-12122D02*
G01X42329Y-12122D01*
G01X12047Y-25837D02*
G01X12083Y-25819D01*
G01X12083Y-25819D02*
G01X12136Y-25765D01*
G01X12136Y-25765D02*
G01X12136Y-26141D01*
G01X20039Y-6782D02*
G01X20075Y-6764D01*
G01X20075Y-6764D02*
G01X20128Y-6710D01*
G01X20128Y-6710D02*
G01X20128Y-7086D01*
G01X17952Y-28593D02*
G01X17988Y-28575D01*
G01X17988Y-28575D02*
G01X18042Y-28521D01*
G01X18042Y-28521D02*
G01X18042Y-28897D01*
G01X18364Y-28521D02*
G01X18185Y-28772D01*
G01X18185Y-28772D02*
G01X18453Y-28772D01*
G01X18364Y-28521D02*
G01X18364Y-28897D01*
G01X21045Y-27498D02*
G01X20866Y-27748D01*
G01X20866Y-27748D02*
G01X21134Y-27748D01*
G01X21045Y-27498D02*
G01X21045Y-27874D01*
G01X21385Y-27498D02*
G01X21331Y-27516D01*
G01X21331Y-27516D02*
G01X21295Y-27569D01*
G01X21295Y-27569D02*
G01X21277Y-27659D01*
G01X21277Y-27659D02*
G01X21277Y-27712D01*
G01X21277Y-27712D02*
G01X21295Y-27802D01*
G01X21295Y-27802D02*
G01X21331Y-27856D01*
G01X21331Y-27856D02*
G01X21385Y-27874D01*
G01X21385Y-27874D02*
G01X21420Y-27874D01*
G01X21420Y-27874D02*
G01X21474Y-27856D01*
G01X21474Y-27856D02*
G01X21510Y-27802D01*
G01X21510Y-27802D02*
G01X21528Y-27712D01*
G01X21528Y-27712D02*
G01X21528Y-27659D01*
G01X21528Y-27659D02*
G01X21510Y-27569D01*
G01X21510Y-27569D02*
G01X21474Y-27516D01*
G01X21474Y-27516D02*
G01X21420Y-27498D01*
G01X21420Y-27498D02*
G01X21385Y-27498D01*
G01X18385Y-43239D02*
G01X18421Y-43221D01*
G01X18421Y-43221D02*
G01X18475Y-43167D01*
G01X18475Y-43167D02*
G01X18475Y-43543D01*
G01X20905Y-50483D02*
G01X20941Y-50465D01*
G01X20941Y-50465D02*
G01X20994Y-50411D01*
G01X20994Y-50411D02*
G01X20994Y-50787D01*
G01X21352Y-50465D02*
G01X21335Y-50429D01*
G01X21335Y-50429D02*
G01X21281Y-50411D01*
G01X21281Y-50411D02*
G01X21245Y-50411D01*
G01X21245Y-50411D02*
G01X21191Y-50429D01*
G01X21191Y-50429D02*
G01X21156Y-50483D01*
G01X21156Y-50483D02*
G01X21138Y-50572D01*
G01X21138Y-50572D02*
G01X21138Y-50662D01*
G01X21138Y-50662D02*
G01X21156Y-50733D01*
G01X21156Y-50733D02*
G01X21191Y-50769D01*
G01X21191Y-50769D02*
G01X21245Y-50787D01*
G01X21245Y-50787D02*
G01X21263Y-50787D01*
G01X21263Y-50787D02*
G01X21317Y-50769D01*
G01X21317Y-50769D02*
G01X21352Y-50733D01*
G01X21352Y-50733D02*
G01X21370Y-50680D01*
G01X21370Y-50680D02*
G01X21370Y-50662D01*
G01X21370Y-50662D02*
G01X21352Y-50608D01*
G01X21352Y-50608D02*
G01X21317Y-50572D01*
G01X21317Y-50572D02*
G01X21263Y-50554D01*
G01X21263Y-50554D02*
G01X21245Y-50554D01*
G01X21245Y-50554D02*
G01X21191Y-50572D01*
G01X21191Y-50572D02*
G01X21156Y-50608D01*
G01X21156Y-50608D02*
G01X21138Y-50662D01*
G01X22322Y-49302D02*
G01X22358Y-49284D01*
G01X22358Y-49284D02*
G01X22412Y-49230D01*
G01X22412Y-49230D02*
G01X22412Y-49606D01*
G01X32852Y-50461D02*
G01X32852Y-50443D01*
G01X32852Y-50443D02*
G01X32870Y-50408D01*
G01X32870Y-50408D02*
G01X32888Y-50390D01*
G01X32888Y-50390D02*
G01X32924Y-50372D01*
G01X32924Y-50372D02*
G01X32995Y-50372D01*
G01X32995Y-50372D02*
G01X33031Y-50390D01*
G01X33031Y-50390D02*
G01X33049Y-50408D01*
G01X33049Y-50408D02*
G01X33067Y-50443D01*
G01X33067Y-50443D02*
G01X33067Y-50479D01*
G01X33067Y-50479D02*
G01X33049Y-50515D01*
G01X33049Y-50515D02*
G01X33013Y-50569D01*
G01X33013Y-50569D02*
G01X32834Y-50748D01*
G01X32834Y-50748D02*
G01X33085Y-50748D01*
G01X33335Y-50372D02*
G01X33282Y-50390D01*
G01X33282Y-50390D02*
G01X33246Y-50443D01*
G01X33246Y-50443D02*
G01X33228Y-50533D01*
G01X33228Y-50533D02*
G01X33228Y-50586D01*
G01X33228Y-50586D02*
G01X33246Y-50676D01*
G01X33246Y-50676D02*
G01X33282Y-50730D01*
G01X33282Y-50730D02*
G01X33335Y-50748D01*
G01X33335Y-50748D02*
G01X33371Y-50748D01*
G01X33371Y-50748D02*
G01X33425Y-50730D01*
G01X33425Y-50730D02*
G01X33460Y-50676D01*
G01X33460Y-50676D02*
G01X33478Y-50586D01*
G01X33478Y-50586D02*
G01X33478Y-50533D01*
G01X33478Y-50533D02*
G01X33460Y-50443D01*
G01X33460Y-50443D02*
G01X33425Y-50390D01*
G01X33425Y-50390D02*
G01X33371Y-50372D01*
G01X33371Y-50372D02*
G01X33335Y-50372D01*
G01X153Y-4309D02*
G01X350Y-4309D01*
G01X350Y-4309D02*
G01X243Y-4452D01*
G01X243Y-4452D02*
G01X297Y-4452D01*
G01X297Y-4452D02*
G01X332Y-4470D01*
G01X332Y-4470D02*
G01X350Y-4488D01*
G01X350Y-4488D02*
G01X368Y-4541D01*
G01X368Y-4541D02*
G01X368Y-4577D01*
G01X368Y-4577D02*
G01X350Y-4631D01*
G01X350Y-4631D02*
G01X314Y-4667D01*
G01X314Y-4667D02*
G01X261Y-4685D01*
G01X261Y-4685D02*
G01X207Y-4685D01*
G01X207Y-4685D02*
G01X153Y-4667D01*
G01X153Y-4667D02*
G01X136Y-4649D01*
G01X136Y-4649D02*
G01X118Y-4613D01*
G01X511Y-4434D02*
G01X619Y-4685D01*
G01X726Y-4434D02*
G01X619Y-4685D01*
G01X905Y-4309D02*
G01X1102Y-4309D01*
G01X1102Y-4309D02*
G01X994Y-4452D01*
G01X994Y-4452D02*
G01X1048Y-4452D01*
G01X1048Y-4452D02*
G01X1084Y-4470D01*
G01X1084Y-4470D02*
G01X1102Y-4488D01*
G01X1102Y-4488D02*
G01X1120Y-4541D01*
G01X1120Y-4541D02*
G01X1120Y-4577D01*
G01X1120Y-4577D02*
G01X1102Y-4631D01*
G01X1102Y-4631D02*
G01X1066Y-4667D01*
G01X1066Y-4667D02*
G01X1012Y-4685D01*
G01X1012Y-4685D02*
G01X959Y-4685D01*
G01X959Y-4685D02*
G01X905Y-4667D01*
G01X905Y-4667D02*
G01X887Y-4649D01*
G01X887Y-4649D02*
G01X869Y-4613D01*
G01X4663Y-4269D02*
G01X4484Y-4269D01*
G01X4484Y-4269D02*
G01X4466Y-4430D01*
G01X4466Y-4430D02*
G01X4484Y-4413D01*
G01X4484Y-4413D02*
G01X4538Y-4395D01*
G01X4538Y-4395D02*
G01X4591Y-4395D01*
G01X4591Y-4395D02*
G01X4645Y-4413D01*
G01X4645Y-4413D02*
G01X4681Y-4448D01*
G01X4681Y-4448D02*
G01X4699Y-4502D01*
G01X4699Y-4502D02*
G01X4699Y-4538D01*
G01X4699Y-4538D02*
G01X4681Y-4591D01*
G01X4681Y-4591D02*
G01X4645Y-4627D01*
G01X4645Y-4627D02*
G01X4591Y-4645D01*
G01X4591Y-4645D02*
G01X4538Y-4645D01*
G01X4538Y-4645D02*
G01X4484Y-4627D01*
G01X4484Y-4627D02*
G01X4466Y-4609D01*
G01X4466Y-4609D02*
G01X4448Y-4574D01*
G01X4842Y-4395D02*
G01X4949Y-4645D01*
G01X5057Y-4395D02*
G01X4949Y-4645D01*
G01X8103Y-26524D02*
G01X8085Y-26488D01*
G01X8085Y-26488D02*
G01X8049Y-26453D01*
G01X8049Y-26453D02*
G01X8013Y-26435D01*
G01X8013Y-26435D02*
G01X7942Y-26435D01*
G01X7942Y-26435D02*
G01X7906Y-26453D01*
G01X7906Y-26453D02*
G01X7870Y-26488D01*
G01X7870Y-26488D02*
G01X7852Y-26524D01*
G01X7852Y-26524D02*
G01X7834Y-26578D01*
G01X7834Y-26578D02*
G01X7834Y-26667D01*
G01X7834Y-26667D02*
G01X7852Y-26721D01*
G01X7852Y-26721D02*
G01X7870Y-26757D01*
G01X7870Y-26757D02*
G01X7906Y-26793D01*
G01X7906Y-26793D02*
G01X7942Y-26811D01*
G01X7942Y-26811D02*
G01X8013Y-26811D01*
G01X8013Y-26811D02*
G01X8049Y-26793D01*
G01X8049Y-26793D02*
G01X8085Y-26757D01*
G01X8085Y-26757D02*
G01X8103Y-26721D01*
G01X8103Y-26721D02*
G01X8103Y-26667D01*
G01X8013Y-26667D02*
G01X8103Y-26667D01*
G01X8246Y-26435D02*
G01X8246Y-26811D01*
G01X8246Y-26811D02*
G01X8460Y-26811D01*
G01X6929Y-26435D02*
G01X6929Y-26811D01*
G01X6929Y-26435D02*
G01X7090Y-26435D01*
G01X7090Y-26435D02*
G01X7143Y-26453D01*
G01X7143Y-26453D02*
G01X7161Y-26471D01*
G01X7161Y-26471D02*
G01X7179Y-26506D01*
G01X7179Y-26506D02*
G01X7179Y-26542D01*
G01X7179Y-26542D02*
G01X7161Y-26578D01*
G01X7161Y-26578D02*
G01X7143Y-26596D01*
G01X7143Y-26596D02*
G01X7090Y-26614D01*
G01X7090Y-26614D02*
G01X6929Y-26614D01*
G01X7054Y-26614D02*
G01X7179Y-26811D01*
G01X7322Y-26435D02*
G01X7322Y-26811D01*
G01X7322Y-26811D02*
G01X7537Y-26811D01*
G01X37251Y-6011D02*
G01X36982Y-6011D01*
G01X36982Y-6011D02*
G01X36955Y-6252D01*
G01X36955Y-6252D02*
G01X36982Y-6225D01*
G01X36982Y-6225D02*
G01X37063Y-6198D01*
G01X37063Y-6198D02*
G01X37143Y-6198D01*
G01X37143Y-6198D02*
G01X37224Y-6225D01*
G01X37224Y-6225D02*
G01X37278Y-6279D01*
G01X37278Y-6279D02*
G01X37304Y-6360D01*
G01X37304Y-6360D02*
G01X37304Y-6413D01*
G01X37304Y-6413D02*
G01X37278Y-6494D01*
G01X37278Y-6494D02*
G01X37224Y-6547D01*
G01X37224Y-6547D02*
G01X37143Y-6574D01*
G01X37143Y-6574D02*
G01X37063Y-6574D01*
G01X37063Y-6574D02*
G01X36982Y-6547D01*
G01X36982Y-6547D02*
G01X36955Y-6521D01*
G01X36955Y-6521D02*
G01X36929Y-6467D01*
G01X37519Y-6198D02*
G01X37680Y-6574D01*
G01X37841Y-6198D02*
G01X37680Y-6574D01*
M00*
M02*
